<svg width="24" height="24" viewBox="0 0 24 24" fill="none" xmlns="http://www.w3.org/2000/svg">
<path d="M15 5.00001C15.1986 4.99885 15.3931 5.05688 15.5586 5.16668C15.7241 5.27648 15.8532 5.43308 15.9294 5.61653C16.0055 5.79997 16.0254 6.00194 15.9863 6.19669C15.9472 6.39144 15.851 6.57014 15.71 6.71001L10.41 12L15.71 17.29C15.8983 17.4783 16.0041 17.7337 16.0041 18C16.0041 18.1319 15.9781 18.2624 15.9277 18.3842C15.8772 18.5061 15.8033 18.6168 15.71 18.71C15.6168 18.8032 15.5061 18.8772 15.3843 18.9277C15.2624 18.9781 15.1319 19.0041 15 19.0041C14.7337 19.0041 14.4783 18.8983 14.29 18.71L8.29001 12.71C8.10376 12.5226 7.99922 12.2692 7.99922 12.005C7.99922 11.7408 8.10376 11.4874 8.29001 11.3L14.29 5.30001C14.3826 5.20552 14.4931 5.13035 14.6149 5.07885C14.7368 5.02736 14.8677 5.00056 15 5.00001Z" fill="#494747"/>
</svg>
