<svg width="16" height="16" viewBox="0 0 16 16" fill="none" xmlns="http://www.w3.org/2000/svg">
<path d="M8.00045 10.6666C7.91271 10.6671 7.82573 10.6503 7.74451 10.6172C7.66328 10.584 7.58941 10.5351 7.52711 10.4733L3.52712 6.4733C3.40158 6.34776 3.33105 6.1775 3.33105 5.99996C3.33105 5.82243 3.40158 5.65216 3.52712 5.52663C3.65265 5.40109 3.82291 5.33057 4.00045 5.33057C4.17798 5.33057 4.34825 5.40109 4.47378 5.52663L8.00045 9.05997L11.5271 5.53329C11.6546 5.42408 11.8187 5.36701 11.9865 5.37349C12.1543 5.37997 12.3134 5.44952 12.4321 5.56825C12.5509 5.68698 12.6204 5.84614 12.6269 6.01393C12.6334 6.18171 12.5763 6.34576 12.4671 6.4733L8.46711 10.4733C8.34294 10.5965 8.17534 10.6659 8.00045 10.6666Z" fill="white" fill-opacity="0.5"/>
</svg>
