<svg width="24" height="24" viewBox="0 0 24 24" fill="none" xmlns="http://www.w3.org/2000/svg">
<path d="M17.355 20.6459L10.7378 3.5297C10.6166 3.21003 10.3099 2.99897 9.96807 3H7.4106C7.06936 3.00099 6.76371 3.21134 6.64088 3.5297L0.0277478 20.6459C-0.0212883 20.773 -0.00464605 20.916 0.0722367 21.0285C0.149119 21.1409 0.276398 21.2083 0.41263 21.2088H3.02392C3.19564 21.2086 3.34983 21.1036 3.41293 20.9439L4.79101 17.3352C4.85242 17.176 5.00525 17.0709 5.17589 17.0704H12.2028C12.3745 17.0705 12.5287 17.1755 12.5918 17.3352L13.9699 20.9439C14.0313 21.1031 14.1841 21.2082 14.3547 21.2088H16.966C17.1025 21.2083 17.23 21.1412 17.3076 21.029C17.3851 20.9167 17.4028 20.7737 17.355 20.6459ZM10.8868 14.1736H6.49185C6.34821 14.1741 6.21362 14.1035 6.13242 13.9851C6.05123 13.8665 6.03398 13.7155 6.08629 13.5818L8.28373 7.83364C8.34655 7.66398 8.50838 7.55133 8.68929 7.55133C8.87024 7.55133 9.03203 7.66398 9.09484 7.83364L11.2965 13.5818C11.3469 13.7162 11.3283 13.8669 11.2466 13.985C11.1648 14.103 11.0304 14.1735 10.8868 14.1736Z" fill="#494747" fill-opacity="0.8"/>
<path d="M23.9723 20.6456L20.6161 11.8102C20.494 11.4888 20.186 11.2763 19.8422 11.2764H18.642C18.2982 11.2763 17.9902 11.4888 17.8682 11.8102L16.3618 15.7748L17.3633 18.3736C17.4273 18.3321 17.5022 18.3105 17.5785 18.3116H20.9057C21.0753 18.3114 21.2278 18.4147 21.2906 18.5723L22.2424 20.9477C22.3052 21.1052 22.4577 21.2085 22.6273 21.2084H23.5874C23.7236 21.2079 23.8509 21.1406 23.9278 21.0281C24.0047 20.9158 24.0213 20.7727 23.9723 20.6456ZM20.2354 16.6562H18.2531C18.1829 16.6568 18.117 16.6221 18.0779 16.5637C18.0387 16.5054 18.0314 16.4314 18.0586 16.3665L19.0477 13.8918C19.0774 13.8099 19.1551 13.7555 19.2422 13.7555C19.3292 13.7555 19.4069 13.8099 19.4367 13.8918L20.4299 16.3665C20.4561 16.4313 20.4485 16.505 20.4095 16.563C20.3705 16.6211 20.3052 16.656 20.2354 16.6562Z" fill="#494747" fill-opacity="0.8"/>
</svg>
