<svg width="20" height="24" viewBox="0 0 20 24" fill="none" xmlns="http://www.w3.org/2000/svg">
<path d="M19.1315 22.0361C19.4211 22.406 19.9999 22.1945 19.9999 21.7188V0.504986C19.9999 0.158271 19.6691 -0.0851465 19.3518 0.0280633L6.36732 4.66097C6.04713 4.77522 5.93397 5.18318 6.147 5.45521L19.1315 22.0361Z" fill="url(#paint0_linear_159_7475)" fill-opacity="0.8"/>
<path d="M16.5339 23.993C16.9914 24.0673 17.2828 23.5038 16.9688 23.1523L5.91445 10.7834C5.68673 10.5287 5.28375 10.5816 5.125 10.8871L0.0584619 20.6395C-0.100647 20.9458 0.0806655 21.3226 0.413098 21.3766L16.5339 23.993Z" fill="url(#paint1_linear_159_7475)" fill-opacity="0.8"/>
<defs>
<linearGradient id="paint0_linear_159_7475" x1="14.5401" y1="20.9541" x2="16.9285" y2="2.1167" gradientUnits="userSpaceOnUse">
<stop stop-color="white"/>
<stop offset="1" stop-color="white"/>
</linearGradient>
<linearGradient id="paint1_linear_159_7475" x1="11.0124" y1="10.8964" x2="3.74781" y2="14.9346" gradientUnits="userSpaceOnUse">
<stop stop-color="white"/>
<stop offset="1" stop-color="white"/>
</linearGradient>
</defs>
</svg>
