<svg width="24" height="24" viewBox="0 0 24 24" fill="none" xmlns="http://www.w3.org/2000/svg">
<path fill-rule="evenodd" clip-rule="evenodd" d="M11.5466 1.06152C11.1848 1.15208 10.914 1.30672 10.6412 1.57857C10.3602 1.85859 10.1904 2.16693 10.1121 2.53909C10.0445 2.86076 10.0452 9.50356 10.1129 9.82002C10.2709 10.5584 10.8642 11.1519 11.6024 11.3099C11.7482 11.3411 12.3856 11.3587 13.374 11.3587H14.9178L15.4991 12.1315C15.8188 12.5566 16.1326 12.9386 16.1963 12.9804C16.3507 13.0816 16.7111 13.0816 16.8655 12.9804C16.9293 12.9386 17.243 12.5566 17.5627 12.1315L18.144 11.3587H19.6879C20.6593 11.3587 21.3161 11.3409 21.4594 11.3107C22.1886 11.1571 22.7975 10.5481 22.9499 9.82002C23.0174 9.49789 23.0164 2.8547 22.9489 2.53909C22.7905 1.7988 22.1954 1.20318 21.4594 1.04837C21.1158 0.976074 11.8388 0.988409 11.5466 1.06152ZM21.3659 2.37637C21.4751 2.43207 21.5664 2.52336 21.6221 2.63257C21.7066 2.79831 21.7086 2.8795 21.7086 6.17956C21.7086 9.47962 21.7066 9.56081 21.6221 9.72654C21.5664 9.83575 21.4751 9.92704 21.3659 9.98275C21.2042 10.0653 21.1154 10.0693 19.4437 10.0694C17.8612 10.0694 17.6764 10.0767 17.5407 10.1446C17.44 10.1949 17.2527 10.4015 16.974 10.7697C16.7451 11.0723 16.5457 11.3198 16.5309 11.3198C16.5161 11.3198 16.3167 11.0723 16.0878 10.7697C15.8091 10.4015 15.6218 10.1949 15.5212 10.1446C15.3853 10.0767 15.2005 10.0694 13.6149 10.0694C11.8755 10.0693 11.8575 10.0684 11.6877 9.9729C11.5871 9.91634 11.4826 9.81053 11.4348 9.71674C11.3567 9.56373 11.3533 9.41266 11.3551 6.17053C11.3571 2.36425 11.3369 2.59939 11.6795 2.39193L11.8474 2.29028L16.5219 2.29006C21.1222 2.28985 21.199 2.29123 21.3659 2.37637ZM2.48037 4.4564C2.11741 4.54816 1.84736 4.70254 1.57494 4.97401C1.28147 5.26644 1.11854 5.5716 1.03896 5.97768C0.958051 6.39076 1.01129 8.48742 1.12399 9.32575C1.59862 12.8563 3.12974 15.9499 5.64169 18.4538C8.1084 20.9125 11.3184 22.4657 14.8337 22.9013C15.572 22.9928 17.6666 23.0348 18.0228 22.9653C18.7931 22.815 19.412 22.1986 19.5585 21.4358C19.5926 21.2579 19.6037 20.4943 19.5947 18.937C19.5819 16.7495 19.5794 16.6915 19.493 16.5758C19.3057 16.3249 19.2777 16.3172 17.1539 15.9349C13.1871 15.2209 13.4788 15.2615 13.2641 15.3926C13.1925 15.4362 12.8458 15.8118 12.4935 16.2271L11.8531 16.9823L11.5924 16.8507C9.89312 15.9928 8.12404 14.2434 7.21218 12.5191L7.01895 12.1538L7.77235 11.514C8.18673 11.1621 8.56245 10.814 8.60735 10.7404C8.65221 10.6667 8.68899 10.5408 8.68907 10.4606C8.68916 10.3803 8.46676 9.07475 8.19481 7.55939C7.67894 4.68454 7.68199 4.69674 7.42667 4.50599C7.31062 4.4193 7.25798 4.4172 5.0016 4.40972C3.26359 4.40396 2.64227 4.41548 2.48037 4.4564ZM6.56216 5.78199C6.57475 5.83516 6.75813 6.84575 6.96966 8.02766C7.26876 9.69903 7.34263 10.1872 7.30202 10.2239C7.27332 10.2499 6.92816 10.5443 6.53504 10.8781C5.63628 11.6411 5.59555 11.6884 5.59555 11.9679C5.59555 12.1473 5.64161 12.2755 5.86852 12.7275C6.46934 13.9244 7.19537 14.9319 8.13277 15.8695C9.07248 16.8095 10.0774 17.5336 11.2746 18.1333C11.8768 18.435 12.1232 18.4806 12.3468 18.3319C12.4087 18.2907 12.7541 17.9089 13.1143 17.4834C13.4745 17.0578 13.7817 16.6959 13.7971 16.6791C13.8189 16.6552 17.793 17.3398 18.2174 17.4405L18.3141 17.4635V19.334C18.3141 21.1239 18.3103 21.2119 18.2276 21.3742C18.1701 21.4869 18.0805 21.5747 17.9608 21.6358C17.786 21.725 17.7446 21.7272 16.6186 21.705C15.4075 21.6811 14.8015 21.6224 13.8491 21.4366C12.0046 21.0768 10.1699 20.3003 8.53886 19.189C7.79495 18.6822 7.26249 18.2329 6.4956 17.4649C5.67676 16.6449 5.27569 16.1574 4.66817 15.2433C3.53605 13.5399 2.78875 11.6122 2.4624 9.5535C2.3381 8.76907 2.28679 8.02848 2.28881 7.04759C2.29088 6.06076 2.31468 5.96814 2.61327 5.78736L2.78114 5.68572L4.66018 5.6855L6.53921 5.68529L6.56216 5.78199ZM13.6744 6.92105C13.4597 7.02889 13.3298 7.24366 13.3298 7.49045C13.3298 7.73725 13.4597 7.95202 13.6744 8.05986C14.0953 8.2714 14.5759 7.96784 14.5759 7.49045C14.5759 7.14378 14.2879 6.84588 13.9528 6.84588C13.8819 6.84588 13.7566 6.87971 13.6744 6.92105ZM16.2525 6.92105C16.0378 7.02889 15.9079 7.24366 15.9079 7.49045C15.9079 7.73725 16.0378 7.95202 16.2525 8.05986C16.6733 8.2714 17.1539 7.96784 17.1539 7.49045C17.1539 7.14378 16.866 6.84588 16.5309 6.84588C16.46 6.84588 16.3347 6.87971 16.2525 6.92105ZM18.8306 6.92105C18.6159 7.02889 18.486 7.24366 18.486 7.49045C18.486 7.73725 18.6159 7.95202 18.8306 8.05986C19.2514 8.2714 19.732 7.96784 19.732 7.49045C19.732 7.14378 19.4441 6.84588 19.109 6.84588C19.0381 6.84588 18.9128 6.87971 18.8306 6.92105Z" fill="#EA5D0E"/>
</svg>
