<svg width="16" height="16" viewBox="0 0 16 16" fill="none" xmlns="http://www.w3.org/2000/svg">
<path d="M11.57 13.7639L7.15853 2.35313C7.07774 2.14002 6.87328 1.99931 6.64538 2H4.9404C4.71291 2.00066 4.50914 2.14089 4.42725 2.35313L0.0184986 13.7639C-0.0141922 13.8487 -0.00309737 13.944 0.0481578 14.019C0.0994129 14.094 0.184265 14.1389 0.275087 14.1392H2.01595C2.13043 14.139 2.23322 14.0691 2.27529 13.9626L3.194 11.5568C3.23495 11.4507 3.33683 11.3806 3.45059 11.3802H8.13519C8.24967 11.3804 8.35246 11.4503 8.39453 11.5568L9.31324 13.9626C9.35419 14.0687 9.45607 14.1388 9.56983 14.1392H11.3107C11.4016 14.1389 11.4867 14.0941 11.5384 14.0193C11.5901 13.9445 11.6019 13.8491 11.57 13.7639ZM7.25785 9.44904H4.3279C4.23214 9.44942 4.14241 9.40235 4.08828 9.32337C4.03415 9.24436 4.02265 9.1437 4.05753 9.05453L5.52249 5.22242C5.56437 5.10932 5.67225 5.03422 5.79286 5.03422C5.9135 5.03422 6.02135 5.10932 6.06323 5.22242L7.53097 9.05453C7.56463 9.14417 7.55219 9.24458 7.49772 9.32331C7.44321 9.402 7.35358 9.44901 7.25785 9.44904Z" fill="white"/>
<path d="M15.9814 13.7637L13.7439 7.87349C13.6625 7.65922 13.4572 7.51755 13.228 7.51758H12.4279C12.1987 7.51755 11.9933 7.65922 11.9119 7.87349L10.9077 10.5165L11.5754 12.2491C11.618 12.2214 11.668 12.207 11.7188 12.2077H13.937C14.0501 12.2076 14.1517 12.2765 14.1936 12.3815L14.8281 13.9651C14.87 14.0702 14.9716 14.139 15.0847 14.1389H15.7248C15.8156 14.1386 15.9004 14.0937 15.9517 14.0187C16.003 13.9439 16.014 13.8485 15.9814 13.7637ZM13.4901 11.1042H12.1686C12.1217 11.1045 12.0778 11.0814 12.0517 11.0425C12.0256 11.0036 12.0208 10.9542 12.0389 10.911L12.6983 9.26119C12.7181 9.20662 12.7699 9.17031 12.8279 9.17031C12.886 9.17031 12.9378 9.20662 12.9576 9.26119L13.6197 10.911C13.6372 10.9542 13.6321 11.0033 13.6061 11.042C13.5802 11.0807 13.5367 11.104 13.4901 11.1042Z" fill="white"/>
</svg>
