<svg width="16" height="16" viewBox="0 0 16 16" fill="none" xmlns="http://www.w3.org/2000/svg">
<path d="M14.614 8.25416C14.6642 8.13212 14.6771 7.99792 14.651 7.86856C14.6249 7.7392 14.5609 7.6205 14.4673 7.5275L10.4673 3.52749C10.3398 3.41827 10.1757 3.3612 10.008 3.36768C9.84017 3.37417 9.68101 3.44372 9.56228 3.56245C9.44355 3.68118 9.37399 3.84034 9.36751 4.00812C9.36103 4.17591 9.4181 4.33996 9.52732 4.46749L12.394 7.33416H2.00065C1.82384 7.33416 1.65427 7.4044 1.52925 7.52943C1.40422 7.65445 1.33398 7.82402 1.33398 8.00083C1.33398 8.17764 1.40422 8.34721 1.52925 8.47223C1.65427 8.59726 1.82384 8.6675 2.00065 8.6675H12.394L9.53399 11.5275C9.4642 11.5873 9.40752 11.6608 9.3675 11.7435C9.32749 11.8262 9.305 11.9163 9.30145 12.0081C9.29791 12.0999 9.31338 12.1915 9.3469 12.2771C9.38041 12.3626 9.43125 12.4403 9.49622 12.5053C9.56119 12.5702 9.63889 12.6211 9.72444 12.6546C9.80999 12.6881 9.90154 12.7036 9.99336 12.7C10.0852 12.6965 10.1753 12.674 10.258 12.634C10.3407 12.594 10.4142 12.5373 10.474 12.4675L14.474 8.4675C14.534 8.40606 14.5815 8.33363 14.614 8.25416Z" fill="#EA5D0E"/>
</svg>
