<svg width="992" height="264" fill="none" xmlns="http://www.w3.org/2000/svg"><g clip-path="url(#clip0_2_2483)"><path d="M100.566 161l-3.016-9.86H82.47L79.454 161H70l14.616-41.586h10.73L110.02 161h-9.454zm-8.12-26.854a216.64 216.64 0 00-.754-2.494c-.31-1.005-.619-2.03-.928-3.074a67.012 67.012 0 01-.754-2.726c-.193.773-.464 1.74-.812 2.9-.31 1.121-.619 2.204-.928 3.248-.27 1.005-.483 1.721-.638 2.146l-2.958 9.628h10.788l-3.016-9.628zm20.209 7.888c0-4.679.58-8.642 1.74-11.89 1.16-3.287 2.997-5.897 5.51-7.83 2.513-1.972 5.8-3.306 9.86-4.002 2.049-.348 4.118-.638 6.206-.87 2.127-.271 4.311-.541 6.554-.812l.986 7.54c-.967.116-2.03.251-3.19.406-1.16.116-2.339.251-3.538.406-1.16.116-2.281.251-3.364.406-1.083.155-2.069.29-2.958.406-1.431.232-2.687.561-3.77.986-1.083.387-1.991.947-2.726 1.682-.735.735-1.315 1.74-1.74 3.016-.387 1.237-.638 2.842-.754 4.814h.406c.464-.735 1.102-1.469 1.914-2.204.851-.735 1.895-1.353 3.132-1.856 1.237-.503 2.649-.754 4.234-.754 2.513 0 4.698.522 6.554 1.566 1.856 1.044 3.287 2.591 4.292 4.64 1.005 2.049 1.508 4.601 1.508 7.656 0 3.596-.657 6.593-1.972 8.99-1.315 2.397-3.132 4.215-5.452 5.452-2.32 1.199-5.007 1.798-8.062 1.798-2.32 0-4.427-.425-6.322-1.276-1.895-.851-3.519-2.107-4.872-3.77-1.353-1.663-2.397-3.712-3.132-6.148-.696-2.436-1.044-5.22-1.044-8.352zm15.892 12.528c1.237 0 2.301-.271 3.19-.812.928-.541 1.643-1.431 2.146-2.668.541-1.237.812-2.9.812-4.988 0-2.513-.425-4.505-1.276-5.974-.812-1.508-2.243-2.262-4.292-2.262a6.9 6.9 0 00-3.48.928c-1.044.58-1.933 1.257-2.668 2.03-.735.735-1.237 1.373-1.508 1.914 0 1.508.116 2.977.348 4.408.232 1.392.619 2.649 1.16 3.77.541 1.121 1.257 2.011 2.146 2.668.928.657 2.069.986 3.422.986zm30.454-12.702c0 .657-.039 1.469-.116 2.436a81.971 81.971 0 01-.174 2.958 44.769 44.769 0 01-.174 2.668 72.859 72.859 0 01-.174 1.624l14.616-22.214h10.382V161h-8.352v-12.644c0-1.044.039-2.185.116-3.422.077-1.276.155-2.455.232-3.538.116-1.121.193-1.972.232-2.552L161.031 161h-10.382v-31.668h8.352v12.528zm59.608-6.032h-10.382V161h-8.642v-25.172h-10.382v-6.496h29.406v6.496zm1.319-6.496h9.454l5.974 17.806c.193.58.348 1.16.464 1.74.154.58.27 1.179.348 1.798.116.619.193 1.276.232 1.972h.174c.116-1.005.27-1.953.464-2.842.232-.928.483-1.817.754-2.668l5.858-17.806h9.28l-13.398 35.728c-.812 2.165-1.876 3.983-3.19 5.452-1.276 1.469-2.765 2.571-4.466 3.306-1.702.735-3.558 1.102-5.568 1.102-.967 0-1.818-.058-2.552-.174a18.78 18.78 0 01-1.856-.29v-6.844c.425.077.928.155 1.508.232.618.077 1.256.116 1.914.116 1.198 0 2.223-.251 3.074-.754a6.327 6.327 0 002.204-2.088 11.736 11.736 0 001.392-2.784l.522-1.566-12.586-31.436zm55.177-.58c3.558 0 6.438 1.392 8.642 4.176 2.204 2.745 3.306 6.805 3.306 12.18 0 3.596-.522 6.631-1.566 9.106-1.044 2.436-2.474 4.273-4.292 5.51-1.817 1.237-3.924 1.856-6.322 1.856-1.508 0-2.822-.193-3.944-.58-1.082-.387-2.01-.889-2.784-1.508a14.102 14.102 0 01-2.03-1.972h-.464c.155.735.271 1.508.348 2.32.078.773.116 1.547.116 2.32v12.76h-8.642v-45.588h7.018l1.218 4.118h.406a11.81 11.81 0 012.088-2.32c.812-.735 1.779-1.315 2.9-1.74 1.16-.425 2.494-.638 4.002-.638zm-2.784 6.902c-1.508 0-2.706.309-3.596.928-.889.619-1.546 1.566-1.972 2.842-.386 1.237-.599 2.803-.638 4.698v.928c0 2.049.194 3.789.58 5.22.387 1.392 1.044 2.455 1.972 3.19.928.735 2.185 1.102 3.77 1.102 1.315 0 2.398-.367 3.248-1.102.851-.735 1.489-1.817 1.914-3.248.426-1.431.638-3.171.638-5.22 0-3.093-.483-5.413-1.45-6.96-.928-1.585-2.416-2.378-4.466-2.378zm30.207 6.206c0 .657-.038 1.469-.116 2.436a77.63 77.63 0 01-.174 2.958 43.145 43.145 0 01-.174 2.668 72.859 72.859 0 01-.174 1.624l14.616-22.214h10.382V161h-8.352v-12.644c0-1.044.039-2.185.116-3.422.078-1.276.155-2.455.232-3.538.116-1.121.194-1.972.232-2.552L304.558 161h-10.382v-31.668h8.352v12.528zm46.442-13.108c2.939 0 5.452.561 7.54 1.682 2.127 1.121 3.77 2.745 4.93 4.872 1.16 2.127 1.74 4.737 1.74 7.83v4.176h-20.416c.078 2.436.793 4.35 2.146 5.742 1.392 1.392 3.306 2.088 5.742 2.088 2.05 0 3.906-.193 5.568-.58 1.663-.425 3.384-1.063 5.162-1.914v6.67a19.542 19.542 0 01-4.93 1.682c-1.701.387-3.77.58-6.206.58-3.17 0-5.974-.58-8.41-1.74-2.436-1.199-4.35-2.997-5.742-5.394-1.392-2.397-2.088-5.413-2.088-9.048 0-3.712.619-6.786 1.856-9.222 1.276-2.475 3.036-4.331 5.278-5.568 2.243-1.237 4.853-1.856 7.83-1.856zm.058 6.148c-1.662 0-3.054.541-4.176 1.624-1.082 1.083-1.72 2.765-1.914 5.046h12.122c0-1.276-.232-2.417-.696-3.422a5.173 5.173 0 00-1.972-2.378c-.889-.58-2.01-.87-3.364-.87zm29.802-5.568v12.18h12.064v-12.18h8.642V161h-8.642v-13.05H378.83V161h-8.642v-31.668h8.642zm55.976 6.496h-10.382V161h-8.642v-25.172H405.4v-6.496h29.406v6.496zm18.835-7.134c4.253 0 7.501.928 9.744 2.784 2.281 1.817 3.422 4.621 3.422 8.41V161h-6.032l-1.682-4.292h-.232c-.889 1.121-1.817 2.049-2.784 2.784-.928.735-2.011 1.257-3.248 1.566-1.199.348-2.687.522-4.466.522-1.856 0-3.538-.348-5.046-1.044-1.469-.735-2.629-1.837-3.48-3.306-.851-1.508-1.276-3.403-1.276-5.684 0-3.364 1.179-5.839 3.538-7.424 2.359-1.624 5.897-2.513 10.614-2.668l5.51-.174v-1.392c0-1.663-.445-2.881-1.334-3.654-.851-.773-2.049-1.16-3.596-1.16-1.547 0-3.055.232-4.524.696a33.825 33.825 0 00-4.408 1.624l-2.842-5.858c1.701-.889 3.577-1.585 5.626-2.088a27.64 27.64 0 016.496-.754zm1.218 17.748c-2.784.077-4.717.58-5.8 1.508-1.083.928-1.624 2.146-1.624 3.654 0 1.315.387 2.262 1.16 2.842.773.541 1.779.812 3.016.812 1.856 0 3.422-.541 4.698-1.624 1.276-1.121 1.914-2.687 1.914-4.698v-2.61l-3.364.116zm60.698-17.11V161h-8.062v-15.544c0-1.547.019-3.055.058-4.524.077-1.469.174-2.823.29-4.06h-.174L498.911 161h-6.496l-8.874-24.186h-.232c.155 1.276.251 2.649.29 4.118.077 1.431.116 3.016.116 4.756V161h-8.062v-31.668h12.238l7.888 21.46 8.004-21.46h11.774zM75.375 193.68h-2.883l-.015-1.211h2.617c.432 0 .81-.073 1.133-.219.322-.146.572-.354.75-.625.182-.276.273-.604.273-.984 0-.417-.08-.756-.242-1.016-.156-.266-.399-.458-.727-.578-.323-.125-.734-.188-1.234-.188h-2.219V199H71.32v-11.375h3.727c.583 0 1.104.06 1.562.18.459.114.847.297 1.164.547.323.244.568.557.735.937.166.38.25.836.25 1.367 0 .469-.12.893-.36 1.274-.24.375-.572.682-1 .922-.421.239-.916.393-1.484.46l-.539.368zm-.07 5.32h-3.407l.852-1.227h2.555c.479 0 .885-.083 1.218-.25.339-.166.597-.401.774-.703.177-.307.266-.669.266-1.086 0-.422-.076-.786-.227-1.093a1.56 1.56 0 00-.711-.711c-.323-.167-.74-.25-1.25-.25h-2.148l.015-1.211h2.938l.32.437c.547.047 1.01.203 1.39.469.38.26.67.594.868 1 .203.406.305.854.305 1.344 0 .708-.157 1.307-.47 1.797a2.94 2.94 0 01-1.304 1.109c-.562.25-1.224.375-1.984.375zM88 191.578c-.318 0-.622.07-.914.211a1.952 1.952 0 00-.711.586 1.389 1.389 0 00-.273.852h-1.383c0-.506.156-.972.469-1.399a3.432 3.432 0 011.218-1.039 3.344 3.344 0 011.594-.398c.594 0 1.12.112 1.578.336a3.33 3.33 0 011.156.921c.318.391.558.842.72 1.352a5.3 5.3 0 01.241 1.609v.329c0 .567-.083 1.106-.25 1.617a4.161 4.161 0 01-.718 1.351 3.333 3.333 0 01-1.157.922c-.453.224-.974.336-1.562.336-.63 0-1.195-.135-1.695-.406a3.124 3.124 0 01-1.172-1.094 2.95 2.95 0 01-.422-1.562h1.383c0 .349.083.666.25.953a1.897 1.897 0 001.656.922c.39 0 .726-.089 1.008-.266.286-.177.52-.412.703-.703.182-.292.315-.617.398-.977a4.59 4.59 0 00.133-1.093v-.329a4.53 4.53 0 00-.133-1.093 3.186 3.186 0 00-.398-.977 2.017 2.017 0 00-.696-.695c-.28-.177-.622-.266-1.023-.266zm2.953 2.524v1.179h-3.898v-1.179h3.898zm5.516-3.555V199h-1.453v-8.453h1.453zm2.836 0v1.172h-7.07v-1.172h7.07zm.711 4.32v-.179c0-.61.088-1.175.265-1.696.177-.526.433-.982.766-1.367a3.401 3.401 0 011.211-.906 3.755 3.755 0 011.594-.328c.593 0 1.127.109 1.601.328.479.213.886.515 1.219.906.338.385.596.841.773 1.367a5.24 5.24 0 01.266 1.696v.179c0 .61-.089 1.175-.266 1.695a4.069 4.069 0 01-.773 1.368 3.548 3.548 0 01-1.211.906c-.469.213-1 .32-1.594.32a3.863 3.863 0 01-1.601-.32 3.627 3.627 0 01-1.219-.906 4.14 4.14 0 01-.766-1.368 5.229 5.229 0 01-.265-1.695zm1.445-.179v.179c0 .422.049.821.148 1.195.099.37.248.698.446.985.203.286.455.513.757.68.303.161.654.242 1.055.242.396 0 .742-.081 1.039-.242.302-.167.552-.394.75-.68.198-.287.347-.615.446-.985.104-.374.156-.773.156-1.195v-.179c0-.417-.052-.81-.156-1.18a3.017 3.017 0 00-.454-.992 2.139 2.139 0 00-.75-.688c-.296-.167-.645-.25-1.046-.25-.396 0-.745.083-1.047.25a2.247 2.247 0 00-.75.688 3.131 3.131 0 00-.446.992c-.099.37-.148.763-.148 1.18zm12.922 2.39l2.875-6.531h1.39L114.883 199h-1l-3.75-8.453h1.39l2.86 6.531zm-3.281-6.531V199h-1.446v-8.453h1.446zm6.515 8.453v-8.453h1.453V199h-1.453zm9.195-6.828v10.078h-1.453v-11.703h1.329l.124 1.625zm5.696 2.531v.164c0 .615-.073 1.185-.219 1.711a4.202 4.202 0 01-.641 1.36 2.923 2.923 0 01-1.023.898c-.406.213-.872.32-1.398.32-.537 0-1.011-.088-1.422-.265a2.793 2.793 0 01-1.047-.774 3.938 3.938 0 01-.688-1.219 7.056 7.056 0 01-.343-1.601v-.875a7.323 7.323 0 01.351-1.68c.172-.495.399-.916.68-1.265a2.778 2.778 0 011.039-.805c.406-.188.875-.281 1.406-.281.531 0 1.003.104 1.414.312a2.84 2.84 0 011.039.875c.282.38.492.836.633 1.367.146.526.219 1.112.219 1.758zm-1.453.164v-.164c0-.422-.045-.818-.133-1.187a3.022 3.022 0 00-.414-.985 1.982 1.982 0 00-.703-.672c-.287-.166-.628-.25-1.024-.25-.364 0-.682.063-.953.188a2.057 2.057 0 00-.68.508 2.689 2.689 0 00-.46.718 4.09 4.09 0 00-.258.829v2.023c.104.365.25.708.437 1.031.188.318.438.576.75.774.313.192.706.289 1.18.289.391 0 .726-.081 1.008-.242a2.05 2.05 0 00.703-.68c.187-.287.325-.615.414-.985a5.21 5.21 0 00.133-1.195zm8.281 2.688v-4.352a1.77 1.77 0 00-.203-.867 1.325 1.325 0 00-.594-.578c-.266-.136-.594-.203-.984-.203-.365 0-.685.062-.961.187a1.672 1.672 0 00-.641.492 1.08 1.08 0 00-.226.657h-1.446c0-.302.078-.602.235-.899a2.61 2.61 0 01.672-.804 3.356 3.356 0 011.062-.579c.417-.145.88-.218 1.391-.218.614 0 1.156.104 1.625.312.474.208.843.524 1.109.945.271.417.406.941.406 1.571v3.937c0 .282.024.581.071.899.052.317.127.591.226.82V199h-1.508a2.715 2.715 0 01-.172-.664 5.446 5.446 0 01-.062-.781zm.25-3.68l.016 1.016h-1.461a5.38 5.38 0 00-1.102.101 2.526 2.526 0 00-.812.289c-.219.13-.386.295-.5.492-.115.193-.172.42-.172.68 0 .266.06.508.179.727.12.218.3.393.539.523.245.125.545.188.899.188.443 0 .833-.094 1.172-.282.338-.187.607-.416.804-.687.204-.271.313-.534.329-.789l.617.695a2.122 2.122 0 01-.297.727 3.482 3.482 0 01-.649.765 3.49 3.49 0 01-.953.602 3.107 3.107 0 01-1.234.234c-.573 0-1.076-.112-1.508-.336a2.58 2.58 0 01-1-.898 2.382 2.382 0 01-.351-1.274c0-.453.088-.851.265-1.195a2.3 2.3 0 01.766-.867 3.623 3.623 0 011.203-.531c.469-.12.992-.18 1.57-.18h1.68zm6.625 1.086h-1.555v-.891h1.438c.401 0 .718-.049.953-.148.234-.104.401-.248.5-.43a1.32 1.32 0 00.148-.64c0-.219-.057-.425-.172-.618a1.164 1.164 0 00-.531-.476c-.245-.125-.573-.188-.984-.188-.334 0-.636.06-.906.18a1.61 1.61 0 00-.649.477 1.053 1.053 0 00-.234.671h-1.446c0-.515.146-.958.438-1.328.297-.375.69-.664 1.18-.867a4.214 4.214 0 011.617-.305c.489 0 .927.055 1.312.164.391.105.722.261.992.469.271.203.477.459.618.766.146.302.218.654.218 1.055a1.7 1.7 0 01-.203.812c-.135.255-.33.482-.586.68a2.927 2.927 0 01-.929.453 4.2 4.2 0 01-1.219.164zm-1.555-.547h1.555c.505 0 .95.05 1.336.148.385.094.708.235.969.422.26.188.455.42.586.696.135.271.203.583.203.937 0 .396-.081.753-.243 1.071-.156.312-.38.578-.671.796a3.142 3.142 0 01-1.047.5 4.843 4.843 0 01-1.336.172 4.643 4.643 0 01-1.594-.281 2.97 2.97 0 01-1.273-.867c-.334-.396-.5-.899-.5-1.508h1.445c0 .255.081.497.242.727.162.229.386.414.672.554.292.141.628.211 1.008.211.406 0 .745-.062 1.015-.187a1.41 1.41 0 00.61-.5c.14-.209.211-.435.211-.68 0-.318-.063-.573-.188-.766-.125-.192-.317-.333-.578-.421-.255-.094-.583-.141-.984-.141h-1.438v-.883zm8.047-3.867h1.445l-.125 3.164c-.031.802-.122 1.495-.273 2.078a6.12 6.12 0 01-.578 1.492 4.469 4.469 0 01-.789 1.024 5.222 5.222 0 01-.891.695h-.719l.039-1.18.297-.008c.172-.203.339-.411.5-.624a4.33 4.33 0 00.446-.774c.135-.302.247-.669.336-1.102.093-.437.153-.971.179-1.601l.133-3.164zm.359 0h5.086V199h-1.445v-7.117h-3.641v-1.336zm-2.617 7.265h8.789v3.68h-1.445V199h-5.898v2.492h-1.453l.007-3.68zm13.899 1.344a4.157 4.157 0 01-1.602-.297 3.626 3.626 0 01-1.226-.851 3.798 3.798 0 01-.782-1.297 4.764 4.764 0 01-.273-1.641v-.328c0-.687.101-1.299.305-1.836.203-.541.479-1 .828-1.375a3.541 3.541 0 011.187-.851 3.407 3.407 0 011.375-.289c.604 0 1.125.104 1.563.312.442.208.804.5 1.086.875.281.37.489.807.625 1.313.135.5.203 1.047.203 1.64v.649h-6.313V194h4.868v-.109a3.594 3.594 0 00-.235-1.094 1.96 1.96 0 00-.625-.875c-.286-.229-.677-.344-1.172-.344a1.962 1.962 0 00-1.617.82 3.082 3.082 0 00-.461.993c-.109.39-.164.841-.164 1.351v.328c0 .401.055.779.164 1.133.115.349.279.656.492.922.219.266.482.474.789.625.313.151.667.227 1.063.227.51 0 .943-.105 1.297-.313.354-.208.664-.487.929-.836l.875.695a4.041 4.041 0 01-.695.789c-.281.25-.627.454-1.039.61-.406.156-.888.234-1.445.234zm10.625-8.609v1.195h-4.086v-1.195h4.086zm1.273 0V199h-1.445v-8.453h1.445zm-5.711 0h1.453l-.218 4.078c-.037.63-.097 1.187-.18 1.672a5.72 5.72 0 01-.328 1.234 2.576 2.576 0 01-.516.844 1.895 1.895 0 01-.734.477 3.036 3.036 0 01-.992.148h-.454v-1.273l.313-.024a1.33 1.33 0 00.57-.156c.162-.089.297-.219.407-.391.109-.177.197-.403.265-.679.073-.276.128-.605.164-.985.042-.38.073-.823.094-1.328l.156-3.617zm11.547 8.609a4.155 4.155 0 01-1.601-.297 3.64 3.64 0 01-1.227-.851 3.78 3.78 0 01-.781-1.297 4.74 4.74 0 01-.274-1.641v-.328c0-.687.102-1.299.305-1.836.203-.541.479-1 .828-1.375a3.535 3.535 0 011.188-.851 3.403 3.403 0 011.375-.289c.604 0 1.125.104 1.562.312.443.208.805.5 1.086.875.281.37.49.807.625 1.313.135.5.203 1.047.203 1.64v.649h-6.312V194h4.867v-.109a3.622 3.622 0 00-.234-1.094 1.97 1.97 0 00-.626-.875c-.286-.229-.677-.344-1.171-.344a1.963 1.963 0 00-1.618.82 3.103 3.103 0 00-.461.993c-.109.39-.164.841-.164 1.351v.328c0 .401.055.779.164 1.133.115.349.279.656.493.922.218.266.481.474.789.625.312.151.666.227 1.062.227.511 0 .943-.105 1.297-.313.354-.208.664-.487.93-.836l.875.695a4.015 4.015 0 01-.696.789c-.281.25-.627.454-1.039.61-.406.156-.888.234-1.445.234zm13.805-2.078l2.875-6.531h1.39L196.383 199h-1l-3.75-8.453h1.39l2.86 6.531zm-3.281-6.531V199h-1.446v-8.453h1.446zm6.515 8.453v-8.453h1.453V199h-1.453zm4.969-5.547h2.539c.682 0 1.258.12 1.727.359.468.235.822.56 1.062.977.245.412.367.88.367 1.406 0 .391-.067.758-.203 1.102a2.478 2.478 0 01-.609.891 2.828 2.828 0 01-.992.601 3.978 3.978 0 01-1.352.211h-3.594v-8.453h1.446v7.265h2.148c.417 0 .75-.075 1-.226.25-.151.43-.346.539-.586a1.795 1.795 0 000-1.5 1.396 1.396 0 00-.539-.609c-.25-.167-.583-.25-1-.25h-2.539v-1.188zm8.703-2.906V199h-1.445v-8.453h1.445zm9.883 7.422c.344 0 .661-.071.953-.211.292-.141.531-.334.719-.578.187-.25.294-.534.32-.852h1.375c-.026.5-.195.966-.508 1.399a3.47 3.47 0 01-1.211 1.039c-.5.26-1.049.39-1.648.39-.636 0-1.19-.112-1.664-.336a3.289 3.289 0 01-1.172-.922 4.11 4.11 0 01-.695-1.343 5.677 5.677 0 01-.227-1.617v-.329c0-.567.076-1.104.227-1.609.156-.51.388-.961.695-1.352.312-.39.703-.697 1.172-.921.474-.224 1.028-.336 1.664-.336.661 0 1.239.135 1.734.406.495.265.883.63 1.164 1.094.287.458.443.979.469 1.562h-1.375a2.078 2.078 0 00-.297-.945 1.854 1.854 0 00-.687-.672 1.923 1.923 0 00-1.008-.258c-.443 0-.815.089-1.117.266a1.956 1.956 0 00-.711.703 3.28 3.28 0 00-.375.976c-.073.355-.11.717-.11 1.086v.329c0 .369.037.734.11 1.093.073.36.195.685.367.977.177.291.414.526.711.703.302.172.677.258 1.125.258zm4.609-3.102v-.179c0-.61.089-1.175.266-1.696.177-.526.432-.982.765-1.367a3.41 3.41 0 011.211-.906 3.758 3.758 0 011.594-.328c.594 0 1.128.109 1.602.328.479.213.885.515 1.219.906.338.385.596.841.773 1.367a5.24 5.24 0 01.266 1.696v.179c0 .61-.089 1.175-.266 1.695a4.069 4.069 0 01-.773 1.368 3.558 3.558 0 01-1.211.906c-.469.213-1 .32-1.594.32a3.867 3.867 0 01-1.602-.32 3.637 3.637 0 01-1.219-.906 4.139 4.139 0 01-.765-1.368 5.229 5.229 0 01-.266-1.695zm1.446-.179v.179c0 .422.049.821.148 1.195.099.37.247.698.445.985.203.286.456.513.758.68a2.21 2.21 0 001.055.242c.396 0 .742-.081 1.039-.242.302-.167.552-.394.75-.68.198-.287.346-.615.445-.985.104-.374.156-.773.156-1.195v-.179c0-.417-.052-.81-.156-1.18a3.036 3.036 0 00-.453-.992 2.156 2.156 0 00-.75-.688c-.297-.167-.646-.25-1.047-.25-.396 0-.745.083-1.047.25a2.247 2.247 0 00-.75.688 3.13 3.13 0 00-.445.992c-.099.37-.148.763-.148 1.18zm13.484-7.821h1.187c0 .511-.078.917-.234 1.219-.156.297-.37.526-.641.687a3.2 3.2 0 01-.906.368c-.333.083-.679.164-1.039.242a4.775 4.775 0 00-1.25.445c-.38.198-.708.479-.984.844-.271.364-.472.838-.602 1.422-.125.583-.159 1.304-.101 2.164v.719h-1.188v-.719c0-.964.091-1.805.274-2.524.187-.718.45-1.325.789-1.82a4.101 4.101 0 011.203-1.18 4.545 4.545 0 011.547-.601 10.52 10.52 0 001.046-.25c.292-.094.514-.219.665-.375.156-.156.234-.37.234-.641zm-1.711 4.164c.552 0 1.044.097 1.477.289.432.193.799.461 1.101.805.302.344.531.75.688 1.219.161.463.242.968.242 1.515v.172c0 .589-.086 1.136-.258 1.641-.167.5-.414.937-.742 1.312-.323.37-.719.659-1.188.868-.463.208-.992.312-1.586.312-.593 0-1.125-.104-1.593-.312a3.472 3.472 0 01-1.188-.868 3.891 3.891 0 01-.75-1.312 5.197 5.197 0 01-.25-1.641v-.172c0-.13.024-.257.07-.382.047-.125.105-.253.172-.383a3.43 3.43 0 00.196-.414c.192-.469.455-.904.789-1.305a3.975 3.975 0 011.211-.969c.474-.25 1.01-.375 1.609-.375zm-.281 1.18c-.531 0-.969.122-1.313.367-.338.245-.591.57-.758.977-.166.401-.25.836-.25 1.304v.172c0 .396.047.771.141 1.125.094.354.234.67.422.946a2.1 2.1 0 00.727.64c.296.156.645.235 1.046.235s.748-.079 1.039-.235c.292-.156.532-.37.719-.64.188-.276.328-.592.422-.946.094-.354.141-.729.141-1.125v-.172c0-.354-.047-.69-.141-1.007a2.487 2.487 0 00-.43-.844 1.933 1.933 0 00-.726-.578c-.292-.146-.638-.219-1.039-.219zm6.734-.039v10.078H245.5v-11.703h1.328l.125 1.625zm5.695 2.531v.164c0 .615-.072 1.185-.218 1.711-.146.521-.36.974-.641 1.36a2.923 2.923 0 01-1.023.898c-.407.213-.873.32-1.399.32-.536 0-1.01-.088-1.422-.265a2.809 2.809 0 01-1.047-.774 3.956 3.956 0 01-.687-1.219 7.055 7.055 0 01-.344-1.601v-.875c.063-.625.18-1.185.352-1.68.172-.495.398-.916.679-1.265a2.781 2.781 0 011.04-.805c.406-.188.874-.281 1.406-.281.531 0 1.002.104 1.414.312.411.203.758.495 1.039.875a4 4 0 01.633 1.367 6.57 6.57 0 01.218 1.758zm-1.453.164v-.164c0-.422-.044-.818-.133-1.187a2.98 2.98 0 00-.414-.985 1.974 1.974 0 00-.703-.672c-.286-.166-.627-.25-1.023-.25-.365 0-.682.063-.953.188a2.057 2.057 0 00-.68.508 2.716 2.716 0 00-.461.718 4.22 4.22 0 00-.258.829v2.023c.104.365.25.708.438 1.031.187.318.437.576.75.774.312.192.706.289 1.18.289.39 0 .726-.081 1.007-.242.287-.167.521-.394.703-.68.188-.287.326-.615.414-.985.089-.374.133-.773.133-1.195zm8.282 2.688v-4.352c0-.333-.068-.622-.204-.867a1.327 1.327 0 00-.593-.578c-.266-.136-.594-.203-.985-.203-.364 0-.685.062-.961.187-.27.125-.484.289-.64.492a1.082 1.082 0 00-.227.657h-1.445c0-.302.078-.602.234-.899a2.61 2.61 0 01.672-.804 3.362 3.362 0 011.063-.579c.416-.145.88-.218 1.39-.218.615 0 1.157.104 1.625.312a2.44 2.44 0 011.11.945c.27.417.406.941.406 1.571v3.937c0 .282.023.581.07.899.052.317.128.591.227.82V199h-1.508a2.715 2.715 0 01-.172-.664 5.306 5.306 0 01-.062-.781zm.25-3.68l.015 1.016h-1.461c-.411 0-.778.033-1.101.101a2.54 2.54 0 00-.813.289 1.38 1.38 0 00-.5.492c-.114.193-.172.42-.172.68 0 .266.06.508.18.727.12.218.299.393.539.523.245.125.544.188.898.188.443 0 .834-.094 1.172-.282.339-.187.607-.416.805-.687.203-.271.313-.534.328-.789l.617.695c-.036.219-.135.461-.296.727a3.506 3.506 0 01-1.602 1.367 3.11 3.11 0 01-1.234.234c-.573 0-1.076-.112-1.508-.336a2.574 2.574 0 01-1-.898 2.374 2.374 0 01-.352-1.274c0-.453.089-.851.266-1.195.177-.349.432-.638.765-.867a3.637 3.637 0 011.204-.531 6.33 6.33 0 011.57-.18h1.68zm9.117-3.328v1.195h-4.086v-1.195h4.086zm1.273 0V199h-1.445v-8.453h1.445zm-5.711 0h1.453l-.218 4.078c-.037.63-.097 1.187-.18 1.672a5.72 5.72 0 01-.328 1.234 2.576 2.576 0 01-.516.844 1.895 1.895 0 01-.734.477 3.036 3.036 0 01-.992.148h-.453v-1.273l.312-.024a1.33 1.33 0 00.57-.156c.162-.089.297-.219.407-.391.109-.177.197-.403.265-.679.073-.276.128-.605.164-.985.042-.38.073-.823.094-1.328l.156-3.617zm9.602 6.164l3.898-6.164h1.453V199h-1.453v-6.164L274.008 199h-1.438v-8.453h1.438v6.164zm15.609-1.43h-2.773l-.016-1.156h2.266c.448 0 .82-.044 1.117-.133.302-.088.529-.221.68-.398a.976.976 0 00.226-.656 1.027 1.027 0 00-.515-.915 1.9 1.9 0 00-.641-.226 4.382 4.382 0 00-.883-.078h-1.851V199h-1.446v-8.453h3.297c.537 0 1.018.047 1.445.141.433.093.8.236 1.102.429.307.188.542.427.703.719.162.292.242.635.242 1.031a1.74 1.74 0 01-.617 1.336 2.505 2.505 0 01-.75.438 3.91 3.91 0 01-1.023.211l-.563.429zm0 3.719h-3.297l.719-1.172h2.578c.401 0 .735-.049 1-.148.266-.104.464-.25.594-.438.135-.193.203-.422.203-.687 0-.266-.068-.493-.203-.68-.13-.193-.328-.339-.594-.437-.265-.105-.599-.157-1-.157h-2.195l.016-1.156h2.742l.523.437c.464.037.857.152 1.18.344.323.193.568.438.734.735.167.291.25.609.25.953 0 .396-.075.745-.226 1.047-.146.302-.36.554-.641.757a3.141 3.141 0 01-1.023.454 5.694 5.694 0 01-1.36.148zm8.571-1.031c.343 0 .661-.071.953-.211.291-.141.531-.334.718-.578.188-.25.295-.534.321-.852h1.375c-.026.5-.196.966-.508 1.399a3.47 3.47 0 01-1.211 1.039c-.5.26-1.05.39-1.648.39-.636 0-1.191-.112-1.665-.336a3.294 3.294 0 01-1.171-.922 4.094 4.094 0 01-.696-1.343 5.677 5.677 0 01-.226-1.617v-.329c0-.567.075-1.104.226-1.609a4.1 4.1 0 01.696-1.352c.312-.39.703-.697 1.171-.921.474-.224 1.029-.336 1.665-.336.661 0 1.239.135 1.734.406.495.265.883.63 1.164 1.094.286.458.443.979.469 1.562h-1.375a2.078 2.078 0 00-.297-.945 1.857 1.857 0 00-.688-.672 1.917 1.917 0 00-1.007-.258c-.443 0-.816.089-1.118.266a1.956 1.956 0 00-.711.703 3.307 3.307 0 00-.375.976 5.377 5.377 0 00-.109 1.086v.329c0 .369.036.734.109 1.093.073.36.196.685.368.977.177.291.414.526.71.703.303.172.678.258 1.126.258zm9.804-3.836v1.179H303.5v-1.179h4.492zm-3.234-3.586V199h-1.446v-8.453h1.446zm2 4.32v-.179c0-.61.088-1.175.265-1.696.178-.526.433-.982.766-1.367a3.5 3.5 0 011.211-.906 3.755 3.755 0 011.594-.328c.599 0 1.135.109 1.609.328.474.213.878.515 1.211.906.339.385.596.841.774 1.367a5.24 5.24 0 01.265 1.696v.179c0 .61-.088 1.175-.265 1.695a4.159 4.159 0 01-.766 1.368 3.548 3.548 0 01-1.211.906 3.867 3.867 0 01-1.602.32 3.866 3.866 0 01-1.601-.32 3.637 3.637 0 01-1.219-.906 4.159 4.159 0 01-.766-1.368 5.229 5.229 0 01-.265-1.695zm1.453-.179v.179c0 .422.049.821.148 1.195.099.37.248.698.446.985.203.286.453.513.75.68.302.161.653.242 1.054.242s.75-.081 1.047-.242c.302-.167.552-.394.75-.68.198-.287.347-.615.446-.985.104-.374.156-.773.156-1.195v-.179c0-.417-.052-.81-.156-1.18a3.017 3.017 0 00-.454-.992 2.139 2.139 0 00-.75-.688 2.142 2.142 0 00-1.054-.25c-.396 0-.742.083-1.039.25a2.247 2.247 0 00-.75.688 3.131 3.131 0 00-.446.992c-.099.37-.148.763-.148 1.18zm16.984 2.867v-4.352c0-.333-.067-.622-.203-.867a1.325 1.325 0 00-.594-.578c-.265-.136-.593-.203-.984-.203-.365 0-.685.062-.961.187a1.68 1.68 0 00-.641.492 1.08 1.08 0 00-.226.657h-1.445c0-.302.078-.602.234-.899a2.61 2.61 0 01.672-.804 3.367 3.367 0 011.062-.579 4.215 4.215 0 011.391-.218c.615 0 1.156.104 1.625.312.474.208.844.524 1.109.945.271.417.407.941.407 1.571v3.937c0 .282.023.581.07.899.052.317.128.591.227.82V199h-1.508a2.67 2.67 0 01-.172-.664 5.314 5.314 0 01-.063-.781zm.25-3.68l.016 1.016H324c-.411 0-.779.033-1.102.101a2.543 2.543 0 00-.812.289 1.38 1.38 0 00-.5.492c-.115.193-.172.42-.172.68 0 .266.06.508.18.727.12.218.299.393.539.523.245.125.544.188.898.188.443 0 .834-.094 1.172-.282.339-.187.607-.416.805-.687.203-.271.312-.534.328-.789l.617.695c-.036.219-.135.461-.297.727a3.521 3.521 0 01-1.601 1.367 3.112 3.112 0 01-1.235.234c-.573 0-1.075-.112-1.508-.336a2.58 2.58 0 01-1-.898 2.382 2.382 0 01-.351-1.274c0-.453.088-.851.266-1.195.177-.349.432-.638.765-.867a3.641 3.641 0 011.203-.531c.469-.12.993-.18 1.571-.18h1.679zm5.039-3.328V199h-1.445v-8.453h1.445zm5.547 0l-4.008 4.844H330l-.219-1.266h1.657l2.835-3.578h1.758zM334.477 199l-3.11-3.828.93-1.047 4.015 4.875h-1.835zm6.539-8.453V199h-1.454v-8.453h1.454zm2.836 0v1.172h-7.071v-1.172h7.071zm3.89 7.578l2.352-7.578h1.547l-3.391 9.758a5.423 5.423 0 01-.312.672 3.277 3.277 0 01-.485.695 2.289 2.289 0 01-.719.531c-.276.141-.606.211-.992.211-.114 0-.26-.016-.437-.047a4.119 4.119 0 01-.375-.078l-.008-1.172c.042.005.107.011.195.016a2.335 2.335 0 001.031-.117c.23-.084.422-.227.579-.43.161-.198.299-.471.414-.82l.601-1.641zm-1.726-7.578l2.195 6.562.375 1.524-1.039.531-3.109-8.617h1.578zm11.789 7.008v-4.352a1.77 1.77 0 00-.203-.867 1.335 1.335 0 00-.594-.578c-.266-.136-.594-.203-.985-.203-.364 0-.684.062-.961.187-.27.125-.484.289-.64.492a1.082 1.082 0 00-.227.657h-1.445c0-.302.078-.602.234-.899.157-.297.381-.565.672-.804a3.362 3.362 0 011.063-.579c.416-.145.88-.218 1.39-.218.615 0 1.157.104 1.625.312a2.44 2.44 0 011.11.945c.271.417.406.941.406 1.571v3.937c0 .282.023.581.07.899.052.317.128.591.227.82V199h-1.508a2.715 2.715 0 01-.172-.664 5.446 5.446 0 01-.062-.781zm.25-3.68l.015 1.016h-1.461c-.411 0-.778.033-1.101.101a2.54 2.54 0 00-.813.289c-.218.13-.385.295-.5.492-.114.193-.172.42-.172.68 0 .266.06.508.18.727.12.218.3.393.539.523.245.125.544.188.899.188a2.37 2.37 0 001.171-.282c.339-.187.607-.416.805-.687.203-.271.313-.534.328-.789l.617.695c-.036.219-.135.461-.296.727a3.482 3.482 0 01-.649.765 3.49 3.49 0 01-.953.602 3.11 3.11 0 01-1.234.234c-.573 0-1.076-.112-1.508-.336a2.574 2.574 0 01-1-.898 2.383 2.383 0 01-.352-1.274c0-.453.089-.851.266-1.195a2.3 2.3 0 01.766-.867 3.623 3.623 0 011.203-.531 6.33 6.33 0 011.57-.18h1.68zm9.117-3.328v1.195h-4.086v-1.195h4.086zm1.273 0V199H367v-8.453h1.445zm-5.711 0h1.454l-.219 4.078c-.037.63-.097 1.187-.18 1.672a5.664 5.664 0 01-.328 1.234 2.56 2.56 0 01-.516.844 1.895 1.895 0 01-.734.477 3.036 3.036 0 01-.992.148h-.453v-1.273l.312-.024a1.33 1.33 0 00.57-.156c.162-.089.297-.219.407-.391.109-.177.198-.403.265-.679.073-.276.128-.605.164-.985.042-.38.073-.823.094-1.328l.156-3.617zm9.227 2.906h2.539c.682 0 1.258.12 1.727.359.468.235.822.56 1.062.977.245.412.367.88.367 1.406 0 .391-.067.758-.203 1.102a2.478 2.478 0 01-.609.891 2.828 2.828 0 01-.992.601 3.978 3.978 0 01-1.352.211h-3.594v-8.453h1.446v7.265h2.148c.417 0 .75-.075 1-.226.25-.151.43-.346.539-.586a1.795 1.795 0 000-1.5 1.396 1.396 0 00-.539-.609c-.25-.167-.583-.25-1-.25h-2.539v-1.188zm13.234.758v1.172h-4.468v-1.172h4.468zm-4.164-3.664V199h-1.445v-8.453h1.445zm5.336 0V199h-1.453v-8.453h1.453zm4.703 7.578l2.352-7.578h1.547l-3.391 9.758a5.423 5.423 0 01-.312.672 3.24 3.24 0 01-.485.695 2.289 2.289 0 01-.719.531c-.276.141-.606.211-.992.211-.114 0-.26-.016-.437-.047a4.119 4.119 0 01-.375-.078l-.008-1.172c.042.005.107.011.195.016a2.343 2.343 0 001.032-.117c.229-.084.421-.227.578-.43.161-.198.299-.471.414-.82l.601-1.641zm-1.726-7.578l2.195 6.562.375 1.524-1.039.531-3.109-8.617h1.578zm11.742 3.586v1.179h-4.492v-1.179h4.492zm-3.234-3.586V199h-1.446v-8.453h1.446zm2 4.32v-.179c0-.61.088-1.175.265-1.696.177-.526.432-.982.766-1.367a3.491 3.491 0 011.211-.906 3.755 3.755 0 011.594-.328c.598 0 1.135.109 1.609.328a3.41 3.41 0 011.211.906c.338.385.596.841.773 1.367a5.24 5.24 0 01.266 1.696v.179c0 .61-.089 1.175-.266 1.695a4.139 4.139 0 01-.765 1.368 3.558 3.558 0 01-1.211.906 3.867 3.867 0 01-1.602.32 3.863 3.863 0 01-1.601-.32 3.627 3.627 0 01-1.219-.906 4.123 4.123 0 01-.766-1.368 5.229 5.229 0 01-.265-1.695zm1.453-.179v.179c0 .422.049.821.148 1.195.099.37.248.698.445.985.204.286.454.513.75.68.303.161.654.242 1.055.242.401 0 .75-.081 1.047-.242.302-.167.552-.394.75-.68.198-.287.346-.615.445-.985.104-.374.157-.773.157-1.195v-.179c0-.417-.053-.81-.157-1.18a3.036 3.036 0 00-.453-.992 2.156 2.156 0 00-.75-.688 2.142 2.142 0 00-1.054-.25c-.396 0-.743.083-1.04.25a2.266 2.266 0 00-.75.688 3.152 3.152 0 00-.445.992c-.099.37-.148.763-.148 1.18zm-328.64 22.023l3.897-6.164h1.454V219h-1.454v-6.164L72.665 219h-1.437v-8.453h1.437v6.164zm13.405-2.5v1.172h-4.468v-1.172h4.468zm-4.164-3.664V219h-1.445v-8.453h1.445zm5.336 0V219H85.79v-8.453h1.453zm12.047 4.375v.164c0 .594-.065 1.141-.195 1.641a3.92 3.92 0 01-.586 1.289 2.714 2.714 0 01-.953.851c-.38.198-.82.297-1.32.297a3.3 3.3 0 01-1.087-.164 2.227 2.227 0 01-.796-.492 2.481 2.481 0 01-.516-.766 3.915 3.915 0 01-.258-1.015v-3.75c.047-.401.133-.761.258-1.079.13-.317.302-.588.516-.812a2.21 2.21 0 01.789-.516 2.977 2.977 0 011.078-.179c.406 0 .77.073 1.094.218.328.141.614.344.859.61.25.265.456.586.617.961.167.369.292.786.375 1.25.083.463.125.961.125 1.492zm-1.445.164v-.164c0-.365-.026-.711-.078-1.039a4.257 4.257 0 00-.227-.914 2.61 2.61 0 00-.39-.735 1.67 1.67 0 00-1.36-.656c-.312 0-.573.039-.781.117a1.22 1.22 0 00-.727.711v4.899c.063.114.154.224.274.328.12.099.28.182.484.25.203.062.458.094.766.094.364 0 .674-.073.93-.219.26-.151.47-.36.632-.625.167-.266.287-.573.36-.922.078-.349.117-.724.117-1.125zm-8.594 0v-.164c0-.531.042-1.029.125-1.492.083-.464.208-.881.375-1.25.167-.375.372-.696.617-.961.25-.266.537-.469.86-.61a2.697 2.697 0 011.101-.218c.401 0 .75.06 1.047.179.302.12.557.292.766.516.208.224.375.495.5.812.125.318.213.678.265 1.079v3.601a4.283 4.283 0 01-.258 1.07 2.641 2.641 0 01-.5.821 2.049 2.049 0 01-.773.515c-.302.12-.656.18-1.063.18-.5 0-.94-.099-1.32-.297a2.78 2.78 0 01-.96-.851 4.14 4.14 0 01-.587-1.289 6.502 6.502 0 01-.195-1.641zm1.453-.164v.164c0 .401.034.776.102 1.125.073.349.185.656.336.922.156.265.359.474.609.625.25.146.557.219.922.219.312 0 .57-.039.773-.118a1.308 1.308 0 00.758-.695v-4.758a1.164 1.164 0 00-.258-.398 1.19 1.19 0 00-.476-.313c-.203-.078-.464-.117-.781-.117-.365 0-.675.089-.93.266a1.924 1.924 0 00-.617.726 4.043 4.043 0 00-.336 1.071 7.695 7.695 0 00-.102 1.281zm2.781 7.328V207h1.454v15.25h-1.454zm7.313-7.383v-.179c0-.61.088-1.175.265-1.696.178-.526.433-.982.766-1.367a3.401 3.401 0 011.211-.906 3.755 3.755 0 011.594-.328c.594 0 1.127.109 1.601.328.48.213.886.515 1.219.906.339.385.596.841.774 1.367a5.24 5.24 0 01.265 1.696v.179c0 .61-.088 1.175-.265 1.695a4.071 4.071 0 01-.774 1.368 3.548 3.548 0 01-1.211.906c-.469.213-1 .32-1.594.32a3.866 3.866 0 01-1.601-.32 3.637 3.637 0 01-1.219-.906 4.159 4.159 0 01-.766-1.368 5.229 5.229 0 01-.265-1.695zm1.445-.179v.179c0 .422.05.821.149 1.195.099.37.247.698.445.985.203.286.456.513.758.68.302.161.653.242 1.054.242a2.15 2.15 0 001.04-.242c.302-.167.552-.394.75-.68.197-.287.346-.615.445-.985.104-.374.156-.773.156-1.195v-.179c0-.417-.052-.81-.156-1.18a3.036 3.036 0 00-.453-.992 2.156 2.156 0 00-.75-.688c-.297-.167-.646-.25-1.047-.25-.396 0-.745.083-1.047.25a2.247 2.247 0 00-.75.688 3.13 3.13 0 00-.445.992c-.099.37-.149.763-.149 1.18zm9.508-2.516v10.078h-1.453v-11.703h1.328l.125 1.625zm5.695 2.531v.164c0 .615-.073 1.185-.218 1.711-.146.521-.36.974-.641 1.36a2.917 2.917 0 01-1.024.898c-.406.213-.872.32-1.398.32-.536 0-1.01-.088-1.422-.265a2.809 2.809 0 01-1.047-.774 3.956 3.956 0 01-.687-1.219 7.055 7.055 0 01-.344-1.601v-.875c.063-.625.18-1.185.352-1.68.172-.495.398-.916.679-1.265a2.786 2.786 0 011.039-.805c.407-.188.875-.281 1.407-.281.531 0 1.002.104 1.414.312.411.203.757.495 1.039.875a4 4 0 01.633 1.367 6.61 6.61 0 01.218 1.758zm-1.453.164v-.164c0-.422-.044-.818-.133-1.187a2.98 2.98 0 00-.414-.985 1.974 1.974 0 00-.703-.672c-.286-.166-.627-.25-1.023-.25a2.25 2.25 0 00-.953.188 2.047 2.047 0 00-.68.508 2.692 2.692 0 00-.461.718 4.09 4.09 0 00-.258.829v2.023c.104.365.25.708.438 1.031.187.318.437.576.75.774.312.192.705.289 1.179.289.391 0 .727-.081 1.008-.242.287-.167.521-.394.703-.68.188-.287.326-.615.414-.985.089-.374.133-.773.133-1.195zm8.156 2.211l2.875-6.531h1.391L124.648 219h-1l-3.75-8.453h1.391l2.859 6.531zm-3.281-6.531V219h-1.445v-8.453h1.445zm6.516 8.453v-8.453h1.453V219h-1.453zm8.765-1.445v-4.352c0-.333-.067-.622-.203-.867a1.327 1.327 0 00-.593-.578c-.266-.136-.594-.203-.985-.203-.364 0-.685.062-.961.187a1.669 1.669 0 00-.64.492 1.082 1.082 0 00-.227.657h-1.445c0-.302.078-.602.234-.899a2.61 2.61 0 01.672-.804 3.367 3.367 0 011.062-.579 4.215 4.215 0 011.391-.218c.615 0 1.156.104 1.625.312a2.44 2.44 0 011.11.945c.27.417.406.941.406 1.571v3.937c0 .282.023.581.07.899.052.317.128.591.227.82V219h-1.508a2.715 2.715 0 01-.172-.664 5.314 5.314 0 01-.063-.781zm.25-3.68l.016 1.016h-1.461a5.37 5.37 0 00-1.101.101 2.54 2.54 0 00-.813.289 1.38 1.38 0 00-.5.492c-.115.193-.172.42-.172.68 0 .266.06.508.18.727.12.218.299.393.539.523.245.125.544.188.898.188.443 0 .834-.094 1.172-.282.339-.187.607-.416.805-.687.203-.271.312-.534.328-.789l.617.695c-.036.219-.135.461-.297.727a3.506 3.506 0 01-1.601 1.367 3.112 3.112 0 01-1.235.234c-.572 0-1.075-.112-1.507-.336a2.574 2.574 0 01-1-.898 2.374 2.374 0 01-.352-1.274c0-.453.089-.851.266-1.195.177-.349.432-.638.765-.867a3.641 3.641 0 011.203-.531c.469-.12.993-.18 1.571-.18h1.679zm3.594 5.125v-8.453h1.446v7.265h3.89v-7.265h1.453V219h-6.789zm7.789-1.188l-.14 3.696h-1.289V219h-1.102v-1.188h2.531zm3.133-1.101l3.898-6.164h1.454V219h-1.454v-6.164L150.914 219h-1.437v-8.453h1.437v6.164zm12.484-2.578v1.179h-4.492v-1.179h4.492zm-3.234-3.586V219h-1.445v-8.453h1.445zm2 4.32v-.179c0-.61.089-1.175.266-1.696.177-.526.432-.982.765-1.367a3.51 3.51 0 011.211-.906 3.755 3.755 0 011.594-.328c.599 0 1.135.109 1.609.328.474.213.878.515 1.211.906.339.385.597.841.774 1.367a5.24 5.24 0 01.265 1.696v.179c0 .61-.088 1.175-.265 1.695a4.14 4.14 0 01-.766 1.368 3.548 3.548 0 01-1.211.906 3.866 3.866 0 01-1.601.32 3.867 3.867 0 01-1.602-.32 3.637 3.637 0 01-1.219-.906 4.139 4.139 0 01-.765-1.368 5.229 5.229 0 01-.266-1.695zm1.453-.179v.179c0 .422.05.821.149 1.195.099.37.247.698.445.985.203.286.453.513.75.68a2.21 2.21 0 001.055.242c.401 0 .75-.081 1.046-.242.303-.167.553-.394.75-.68.198-.287.347-.615.446-.985.104-.374.156-.773.156-1.195v-.179c0-.417-.052-.81-.156-1.18a3.036 3.036 0 00-.453-.992 2.156 2.156 0 00-.75-.688 2.146 2.146 0 00-1.055-.25c-.396 0-.742.083-1.039.25a2.247 2.247 0 00-.75.688 3.13 3.13 0 00-.445.992c-.099.37-.149.763-.149 1.18zm13.524-4.141h1.445l-.125 3.164c-.031.802-.122 1.495-.273 2.078-.152.583-.344 1.081-.579 1.492a4.441 4.441 0 01-.789 1.024 5.178 5.178 0 01-.89.695h-.719l.039-1.18.297-.008c.172-.203.338-.411.5-.624.161-.219.31-.477.445-.774.136-.302.248-.669.336-1.102.094-.437.154-.971.18-1.601l.133-3.164zm.359 0h5.086V219h-1.445v-7.117H177.5v-1.336zm-2.617 7.265h8.789v3.68h-1.445V219h-5.899v2.492h-1.453l.008-3.68zm16.039-7.265v1.195h-4.086v-1.195h4.086zm1.273 0V219h-1.445v-8.453h1.445zm-5.711 0h1.454l-.219 4.078c-.037.63-.097 1.187-.18 1.672a5.664 5.664 0 01-.328 1.234 2.56 2.56 0 01-.516.844 1.895 1.895 0 01-.734.477 3.036 3.036 0 01-.992.148h-.453v-1.273l.312-.024a1.33 1.33 0 00.57-.156c.162-.089.297-.219.407-.391.109-.177.198-.403.265-.679.073-.276.128-.605.164-.985.042-.38.073-.823.094-1.328l.156-3.617zm9.75 4.422h1.563L195.352 219h-1.563l2.445-4.031zm1.211-4.422h3.532V219h-1.446v-7.281h-2.086c-.411 0-.747.07-1.007.211a1.314 1.314 0 00-.571.531 1.394 1.394 0 00-.015 1.344c.109.208.281.38.515.515.235.136.537.203.906.203h2.649v1.188h-2.649c-.484 0-.914-.065-1.289-.195a2.849 2.849 0 01-.953-.539 2.353 2.353 0 01-.593-.821 2.588 2.588 0 01-.204-1.031c0-.37.071-.711.211-1.023.146-.313.354-.586.625-.821a2.877 2.877 0 011.008-.539c.401-.13.857-.195 1.367-.195zm14.813 7.008v-4.352a1.77 1.77 0 00-.203-.867 1.33 1.33 0 00-.594-.578c-.266-.136-.594-.203-.984-.203-.365 0-.685.062-.961.187a1.672 1.672 0 00-.641.492 1.082 1.082 0 00-.227.657h-1.445c0-.302.078-.602.235-.899a2.62 2.62 0 01.671-.804 3.362 3.362 0 011.063-.579 4.21 4.21 0 011.39-.218c.615 0 1.157.104 1.626.312.473.208.843.524 1.109.945.271.417.406.941.406 1.571v3.937c0 .282.024.581.07.899.053.317.128.591.227.82V219h-1.508a2.715 2.715 0 01-.172-.664 5.446 5.446 0 01-.062-.781zm.25-3.68l.015 1.016h-1.461c-.411 0-.778.033-1.101.101a2.54 2.54 0 00-.813.289c-.218.13-.385.295-.5.492-.114.193-.171.42-.171.68 0 .266.059.508.179.727.12.218.3.393.539.523.245.125.545.188.899.188.442 0 .833-.094 1.172-.282.338-.187.606-.416.804-.687.203-.271.313-.534.328-.789l.618.695a2.122 2.122 0 01-.297.727 3.482 3.482 0 01-.649.765 3.49 3.49 0 01-.953.602 3.107 3.107 0 01-1.234.234c-.573 0-1.076-.112-1.508-.336a2.58 2.58 0 01-1-.898 2.383 2.383 0 01-.352-1.274c0-.453.089-.851.266-1.195a2.3 2.3 0 01.766-.867 3.623 3.623 0 011.203-.531c.469-.12.992-.18 1.57-.18h1.68zm8.89-7.008h1.188c0 .511-.078.917-.234 1.219-.157.297-.37.526-.641.687a3.224 3.224 0 01-.906.368c-.334.083-.68.164-1.039.242a4.762 4.762 0 00-1.25.445 2.91 2.91 0 00-.985.844c-.271.364-.471.838-.601 1.422-.125.583-.159 1.304-.102 2.164v.719h-1.187v-.719c0-.964.091-1.805.273-2.524.188-.718.451-1.325.789-1.82.339-.495.74-.888 1.203-1.18a4.553 4.553 0 011.547-.601c.406-.078.755-.162 1.047-.25.292-.094.513-.219.664-.375.156-.156.234-.37.234-.641zm-1.71 4.164a3.6 3.6 0 011.476.289c.432.193.8.461 1.102.805.302.344.531.75.687 1.219.162.463.242.968.242 1.515v.172c0 .589-.086 1.136-.257 1.641-.167.5-.415.937-.743 1.312-.323.37-.718.659-1.187.868-.464.208-.992.312-1.586.312-.594 0-1.125-.104-1.594-.312a3.477 3.477 0 01-1.187-.868 3.858 3.858 0 01-.75-1.312 5.197 5.197 0 01-.25-1.641v-.172c0-.13.023-.257.07-.382.047-.125.104-.253.172-.383.073-.13.138-.268.195-.414a5.03 5.03 0 01.789-1.305 3.987 3.987 0 011.211-.969c.474-.25 1.011-.375 1.61-.375zm-.282 1.18c-.531 0-.968.122-1.312.367a2.21 2.21 0 00-.758.977c-.167.401-.25.836-.25 1.304v.172c0 .396.047.771.141 1.125.093.354.234.67.421.946a2.1 2.1 0 00.727.64c.297.156.646.235 1.047.235.401 0 .747-.079 1.039-.235a2.03 2.03 0 00.719-.64c.187-.276.328-.592.422-.946.093-.354.14-.729.14-1.125v-.172c0-.354-.047-.69-.14-1.007a2.487 2.487 0 00-.43-.844 1.944 1.944 0 00-.727-.578c-.291-.146-.638-.219-1.039-.219zm6.852 4.5l3.898-6.164h1.453V219h-1.453v-6.164L226.258 219h-1.438v-8.453h1.438v6.164zm11.117-6.164V219h-1.453v-8.453h1.453zm2.836 0v1.172h-7.07v-1.172h7.07zm3.891 7.578l2.351-7.578H248l-3.391 9.758a5.423 5.423 0 01-.312.672 3.24 3.24 0 01-.485.695 2.284 2.284 0 01-.718.531c-.276.141-.607.211-.992.211-.115 0-.261-.016-.438-.047a4.119 4.119 0 01-.375-.078l-.008-1.172c.042.005.107.011.196.016a2.34 2.34 0 001.031-.117 1.27 1.27 0 00.578-.43c.161-.198.299-.471.414-.82l.602-1.641zm-1.727-7.578l2.195 6.562.375 1.524-1.039.531-3.109-8.617h1.578zm8.375 1.625v10.078h-1.453v-11.703h1.328l.125 1.625zm5.695 2.531v.164c0 .615-.073 1.185-.218 1.711-.146.521-.36.974-.641 1.36a2.917 2.917 0 01-1.024.898c-.406.213-.872.32-1.398.32-.536 0-1.01-.088-1.422-.265a2.809 2.809 0 01-1.047-.774 3.956 3.956 0 01-.687-1.219 7.055 7.055 0 01-.344-1.601v-.875c.063-.625.18-1.185.352-1.68.172-.495.398-.916.679-1.265a2.786 2.786 0 011.039-.805c.407-.188.875-.281 1.407-.281.531 0 1.002.104 1.414.312.411.203.757.495 1.039.875a4 4 0 01.633 1.367 6.61 6.61 0 01.218 1.758zm-1.453.164v-.164c0-.422-.044-.818-.133-1.187a2.98 2.98 0 00-.414-.985 1.974 1.974 0 00-.703-.672c-.286-.166-.627-.25-1.023-.25a2.25 2.25 0 00-.953.188 2.047 2.047 0 00-.68.508 2.692 2.692 0 00-.461.718 4.09 4.09 0 00-.258.829v2.023c.104.365.25.708.438 1.031.187.318.437.576.75.774.312.192.705.289 1.179.289.391 0 .727-.081 1.008-.242.287-.167.521-.394.703-.68.188-.287.326-.615.414-.985.089-.374.133-.773.133-1.195zm4.86 1.844l3.898-6.164h1.453V219h-1.453v-6.164L259.852 219h-1.438v-8.453h1.438v6.164zm11.179 2.445a4.155 4.155 0 01-1.601-.297 3.64 3.64 0 01-1.227-.851 3.796 3.796 0 01-.781-1.297 4.764 4.764 0 01-.274-1.641v-.328c0-.687.102-1.299.305-1.836.203-.541.479-1 .828-1.375a3.535 3.535 0 011.188-.851 3.403 3.403 0 011.375-.289c.604 0 1.125.104 1.562.312.443.208.805.5 1.086.875.281.37.49.807.625 1.313.136.5.203 1.047.203 1.64v.649h-6.312V214h4.867v-.109a3.622 3.622 0 00-.234-1.094 1.976 1.976 0 00-.625-.875c-.287-.229-.677-.344-1.172-.344a1.962 1.962 0 00-1.617.82 3.061 3.061 0 00-.461.993c-.11.39-.164.841-.164 1.351v.328c0 .401.054.779.164 1.133.114.349.278.656.492.922.219.266.482.474.789.625a2.41 2.41 0 001.062.227c.511 0 .943-.105 1.297-.313.354-.208.664-.487.93-.836l.875.695a4.041 4.041 0 01-.695.789c-.282.25-.628.454-1.039.61-.407.156-.888.234-1.446.234zm10.711-4.945v1.172h-4.469v-1.172h4.469zm-4.164-3.664V219h-1.445v-8.453h1.445zm5.336 0V219h-1.453v-8.453h1.453zm5.774 0V219h-1.454v-8.453h1.454zm2.835 0v1.172h-7.07v-1.172h7.07zm.711 4.32v-.179c0-.61.089-1.175.266-1.696.177-.526.432-.982.766-1.367a3.401 3.401 0 011.211-.906 3.754 3.754 0 011.593-.328c.594 0 1.128.109 1.602.328.479.213.885.515 1.219.906.338.385.596.841.773 1.367a5.24 5.24 0 01.266 1.696v.179c0 .61-.089 1.175-.266 1.695a4.069 4.069 0 01-.773 1.368 3.558 3.558 0 01-1.211.906c-.469.213-1 .32-1.594.32a3.867 3.867 0 01-1.602-.32 3.623 3.623 0 01-1.218-.906 4.123 4.123 0 01-.766-1.368 5.229 5.229 0 01-.266-1.695zm1.446-.179v.179c0 .422.049.821.148 1.195.099.37.248.698.445.985.204.286.456.513.758.68a2.21 2.21 0 001.055.242c.396 0 .742-.081 1.039-.242.302-.167.552-.394.75-.68.198-.287.346-.615.445-.985.104-.374.157-.773.157-1.195v-.179c0-.417-.053-.81-.157-1.18a3.036 3.036 0 00-.453-.992 2.156 2.156 0 00-.75-.688c-.297-.167-.646-.25-1.047-.25a2.13 2.13 0 00-1.047.25 2.266 2.266 0 00-.75.688 3.152 3.152 0 00-.445.992c-.099.37-.148.763-.148 1.18zm12.031.593h-2.773l-.016-1.156h2.266c.447 0 .82-.044 1.117-.133.302-.088.528-.221.679-.398a.977.977 0 00.227-.656 1.027 1.027 0 00-.516-.915 1.894 1.894 0 00-.64-.226 4.389 4.389 0 00-.883-.078h-1.852V219h-1.445v-8.453h3.297c.536 0 1.018.047 1.445.141.432.093.8.236 1.102.429.307.188.541.427.703.719a2.1 2.1 0 01.242 1.031 1.74 1.74 0 01-.617 1.336 2.505 2.505 0 01-.75.438 3.91 3.91 0 01-1.024.211l-.562.429zm0 3.719h-3.297l.719-1.172h2.578c.401 0 .734-.049 1-.148.266-.104.463-.25.594-.438.135-.193.203-.422.203-.687 0-.266-.068-.493-.203-.68a1.184 1.184 0 00-.594-.437c-.266-.105-.599-.157-1-.157h-2.195l.015-1.156h2.742l.524.437c.463.037.857.152 1.18.344.322.193.567.438.734.735.167.291.25.609.25.953 0 .396-.076.745-.227 1.047a1.984 1.984 0 01-.64.757 3.157 3.157 0 01-1.024.454 5.686 5.686 0 01-1.359.148zm5.211-.766c0-.244.075-.45.226-.617.157-.172.381-.258.672-.258.292 0 .513.086.664.258a.867.867 0 01.235.617c0 .24-.078.443-.235.61-.151.166-.372.25-.664.25-.291 0-.515-.084-.672-.25a.876.876 0 01-.226-.61z" fill="#494747"/><path d="M0 6a6 6 0 016-6h980a6 6 0 016 6v252a6 6 0 01-6 6H6a6 6 0 01-6-6V6z" fill="url(#paint0_linear_2_2483)"/><path d="M785.791 98.859a6 6 0 016.936-5l353.763 60.149a5.996 5.996 0 014.04 2.679l227.17 354.735c2.21 3.441.4 8.031-3.56 9.047L702.597 692.928c-4.171 1.071-8.079-2.471-7.422-6.727l90.616-587.342z" fill="url(#paint1_linear_2_2483)" fill-opacity=".3"/><g style="mix-blend-mode:multiply" filter="url(#filter0_d_2_2483)"><path d="M840.105 54.282a6 6 0 016.935-5l353.76 60.15a5.994 5.994 0 014.05 2.679l227.17 354.734c2.2 3.442.39 8.031-3.56 9.048L756.91 648.351c-4.171 1.072-8.079-2.47-7.422-6.726l90.617-587.343z" fill="url(#paint2_linear_2_2483)"/></g><g style="mix-blend-mode:multiply" filter="url(#filter1_d_2_2483)"><path d="M730.845 206.756a6 6 0 016.935-5l353.76 60.149a5.998 5.998 0 014.05 2.68l227.17 354.734c2.2 3.442.4 8.031-3.56 9.047L647.651 800.825c-4.171 1.071-8.079-2.47-7.423-6.726l90.617-587.343z" fill="url(#paint3_linear_2_2483)"/></g></g><defs><linearGradient id="paint0_linear_2_2483" x1="744" y1="264" x2="576.983" y2="-284.677" gradientUnits="userSpaceOnUse"><stop stop-color="#FDD5BF"/><stop offset="1" stop-color="#FFF8F2"/></linearGradient><linearGradient id="paint1_linear_2_2483" x1="652.855" y1="354.107" x2="1240.84" y2="474.094" gradientUnits="userSpaceOnUse"><stop stop-color="#E05206"/><stop offset="1" stop-color="#F98558"/></linearGradient><linearGradient id="paint2_linear_2_2483" x1="707.169" y1="309.531" x2="1295.15" y2="429.517" gradientUnits="userSpaceOnUse"><stop stop-color="#fff"/><stop offset="1" stop-color="#F98558"/></linearGradient><linearGradient id="paint3_linear_2_2483" x1="597.909" y1="462.005" x2="1185.89" y2="581.991" gradientUnits="userSpaceOnUse"><stop stop-color="#fff"/><stop offset="1" stop-color="#F98558"/></linearGradient><filter id="filter0_d_2_2483" x="711.416" y="25.196" width="739.553" height="655.348" filterUnits="userSpaceOnUse" color-interpolation-filters="sRGB"><feFlood flood-opacity="0" result="BackgroundImageFix"/><feColorMatrix in="SourceAlpha" values="0 0 0 0 0 0 0 0 0 0 0 0 0 0 0 0 0 0 127 0" result="hardAlpha"/><feOffset dx="-10" dy="4"/><feGaussianBlur stdDeviation="14"/><feComposite in2="hardAlpha" operator="out"/><feColorMatrix values="0 0 0 0 0 0 0 0 0 0 0 0 0 0 0 0 0 0 0.1 0"/><feBlend in2="BackgroundImageFix" result="effect1_dropShadow_2_2483"/><feBlend in="SourceGraphic" in2="effect1_dropShadow_2_2483" result="shape"/></filter><filter id="filter1_d_2_2483" x="602.156" y="177.67" width="739.553" height="655.348" filterUnits="userSpaceOnUse" color-interpolation-filters="sRGB"><feFlood flood-opacity="0" result="BackgroundImageFix"/><feColorMatrix in="SourceAlpha" values="0 0 0 0 0 0 0 0 0 0 0 0 0 0 0 0 0 0 127 0" result="hardAlpha"/><feOffset dx="-10" dy="4"/><feGaussianBlur stdDeviation="14"/><feComposite in2="hardAlpha" operator="out"/><feColorMatrix values="0 0 0 0 0 0 0 0 0 0 0 0 0 0 0 0 0 0 0.1 0"/><feBlend in2="BackgroundImageFix" result="effect1_dropShadow_2_2483"/><feBlend in="SourceGraphic" in2="effect1_dropShadow_2_2483" result="shape"/></filter><clipPath id="clip0_2_2483"><rect width="992" height="264" rx="6" fill="#fff"/></clipPath></defs></svg>