<svg width="375" height="143" fill="none" xmlns="http://www.w3.org/2000/svg"><path d="M186.042 86.157a6 6 0 018.511.82l79.429 97.888a6.001 6.001 0 011.273 4.684l-22.212 145.869c-.615 4.04-5 6.297-8.645 4.448L27.441 229.844c-3.84-1.948-4.44-7.188-1.138-9.952L186.042 86.157z" fill="url(#paint0_linear_96_16908)" fill-opacity=".3"/><g style="mix-blend-mode:multiply" filter="url(#filter0_d_96_16908)"><path d="M211.794 87.019a6 6 0 018.511.82l79.43 97.887a5.998 5.998 0 011.272 4.684l-22.211 145.87c-.615 4.039-5.001 6.296-8.646 4.448L53.193 230.705c-3.84-1.948-4.44-7.187-1.138-9.952L211.794 87.019z" fill="url(#paint1_linear_96_16908)"/></g><g style="mix-blend-mode:multiply" filter="url(#filter1_d_96_16908)"><path d="M144.789 102.59a6 6 0 018.511.82l79.429 97.888a6.001 6.001 0 011.273 4.684L211.79 351.851c-.615 4.04-5 6.297-8.645 4.448L-13.812 246.277c-3.84-1.948-4.44-7.188-1.138-9.952L144.789 102.59z" fill="url(#paint2_linear_96_16908)"/></g><defs><linearGradient id="paint0_linear_96_16908" x1="90.597" y1="121.841" x2="223.575" y2="297.202" gradientUnits="userSpaceOnUse"><stop stop-color="#E05206"/><stop offset="1" stop-color="#F98558"/></linearGradient><linearGradient id="paint1_linear_96_16908" x1="116.35" y1="122.702" x2="249.327" y2="298.064" gradientUnits="userSpaceOnUse"><stop stop-color="#fff"/><stop offset="1" stop-color="#F98558"/></linearGradient><linearGradient id="paint2_linear_96_16908" x1="49.344" y1="138.274" x2="182.322" y2="313.635" gradientUnits="userSpaceOnUse"><stop stop-color="#fff"/><stop offset="1" stop-color="#F98558"/></linearGradient><filter id="filter0_d_96_16908" x="11.906" y="61.619" width="307.169" height="311.762" filterUnits="userSpaceOnUse" color-interpolation-filters="sRGB"><feFlood flood-opacity="0" result="BackgroundImageFix"/><feColorMatrix in="SourceAlpha" values="0 0 0 0 0 0 0 0 0 0 0 0 0 0 0 0 0 0 127 0" result="hardAlpha"/><feOffset dx="-10" dy="4"/><feGaussianBlur stdDeviation="14"/><feComposite in2="hardAlpha" operator="out"/><feColorMatrix values="0 0 0 0 0 0 0 0 0 0 0 0 0 0 0 0 0 0 0.1 0"/><feBlend in2="BackgroundImageFix" result="effect1_dropShadow_96_16908"/><feBlend in="SourceGraphic" in2="effect1_dropShadow_96_16908" result="shape"/></filter><filter id="filter1_d_96_16908" x="-55.099" y="77.191" width="307.169" height="311.762" filterUnits="userSpaceOnUse" color-interpolation-filters="sRGB"><feFlood flood-opacity="0" result="BackgroundImageFix"/><feColorMatrix in="SourceAlpha" values="0 0 0 0 0 0 0 0 0 0 0 0 0 0 0 0 0 0 127 0" result="hardAlpha"/><feOffset dx="-10" dy="4"/><feGaussianBlur stdDeviation="14"/><feComposite in2="hardAlpha" operator="out"/><feColorMatrix values="0 0 0 0 0 0 0 0 0 0 0 0 0 0 0 0 0 0 0.1 0"/><feBlend in2="BackgroundImageFix" result="effect1_dropShadow_96_16908"/><feBlend in="SourceGraphic" in2="effect1_dropShadow_96_16908" result="shape"/></filter></defs></svg>