<svg width="24" height="24" fill="none" xmlns="http://www.w3.org/2000/svg"><path d="M12 24c6.627 0 12-5.373 12-12S18.627 0 12 0 0 5.373 0 12s5.373 12 12 12z" fill="#000" fill-opacity=".21"/><path d="M14.425 6h-4.85A3.58 3.58 0 006 9.575v4.85A3.58 3.58 0 009.575 18h4.85A3.578 3.578 0 0018 14.425v-4.85A3.58 3.58 0 0014.425 6zm2.369 8.425a2.368 2.368 0 01-2.369 2.369h-4.85a2.368 2.368 0 01-2.369-2.369v-4.85a2.368 2.368 0 012.369-2.369h4.85a2.368 2.368 0 012.369 2.369v4.85z" fill="#fff"/><path d="M12 8.897a3.104 3.104 0 10-.003 6.21A3.104 3.104 0 0012 8.896zm0 4.998a1.895 1.895 0 110-3.79 1.895 1.895 0 010 3.79zm3.121-4.23a.767.767 0 100-1.535.767.767 0 000 1.535z" fill="#fff"/></svg>