<svg width="24" height="24" fill="none" xmlns="http://www.w3.org/2000/svg"><path d="M12 24c6.627 0 12-5.373 12-12S18.627 0 12 0 0 5.373 0 12s5.373 12 12 12z" fill="#000" fill-opacity=".21"/><path d="M11.41 14.452c-.93-.096-1.769-.325-2.487-.887a3.156 3.156 0 01-.262-.215.745.745 0 01.843-1.216c.072.034.14.075.205.122a4.08 4.08 0 004.52.04c.131-.103.28-.18.441-.226a.69.69 0 01.79.315c.197.316.194.632-.048.881a3.62 3.62 0 01-1.315.851 6.147 6.147 0 01-1.492.334l.158.173c.691.695 1.385 1.385 2.073 2.083a.684.684 0 01.158.807.814.814 0 01-.768.473.74.74 0 01-.489-.243c-.523-.524-1.053-1.04-1.565-1.579-.148-.158-.22-.126-.35 0-.527.54-1.058 1.074-1.595 1.601a.671.671 0 01-.807.146.818.818 0 01-.474-.752.748.748 0 01.253-.505l2.053-2.053a.773.773 0 00.158-.15z" fill="#fff"/><path d="M11.976 12.074A3.038 3.038 0 1112.012 6a3.038 3.038 0 01-.036 6.075zm1.508-3.04a1.485 1.485 0 10-2.97.007 1.485 1.485 0 002.97-.006z" fill="#fff"/></svg>