<svg width="24" height="24" fill="none" xmlns="http://www.w3.org/2000/svg"><path d="M12 24c6.627 0 12-5.373 12-12S18.627 0 12 0 0 5.373 0 12s5.373 12 12 12z" fill="#494747"/><path d="M11.41 14.452c-.93-.096-1.769-.325-2.487-.887a3.156 3.156 0 01-.262-.215.745.745 0 01.843-1.216c.072.034.14.075.205.122a4.08 4.08 0 004.52.04c.13-.103.28-.18.441-.226a.69.69 0 01.79.315c.197.316.194.632-.048.881a3.62 3.62 0 01-1.315.851 6.146 6.146 0 01-1.492.334l.158.173c.691.695 1.384 1.385 2.073 2.083a.684.684 0 01.158.807.814.814 0 01-.768.473.74.74 0 01-.49-.243c-.522-.524-1.052-1.04-1.564-1.579-.148-.158-.22-.126-.35 0a104.24 104.24 0 01-1.595 1.601.671.671 0 01-.807.146.818.818 0 01-.474-.752.748.748 0 01.253-.505l2.053-2.053a.776.776 0 00.157-.15z" fill="#fff"/><path d="M11.976 12.074a3.038 3.038 0 11.036-6.076 3.038 3.038 0 01-.036 6.076zm1.508-3.04a1.487 1.487 0 10-2.973.008 1.487 1.487 0 002.973-.007z" fill="#fff"/></svg>