<svg width="24" height="24" fill="none" xmlns="http://www.w3.org/2000/svg"><path d="M12 24c6.627 0 12-5.373 12-12S18.627 0 12 0 0 5.373 0 12s5.373 12 12 12z" fill="#494747"/><path d="M17.534 15.43c-.28.039-1.647 0-1.718 0a1.344 1.344 0 01-.947-.378c-.289-.278-.55-.584-.826-.873a2.495 2.495 0 00-.27-.245c-.226-.172-.448-.132-.554.133a5.04 5.04 0 00-.17.88.474.474 0 01-.492.454c-.186.01-.372.014-.557.01a4.264 4.264 0 01-1.931-.474 5.283 5.283 0 01-1.65-1.443 17.459 17.459 0 01-1.828-3 50.69 50.69 0 01-.572-1.238.316.316 0 01.147-.41c.095-.037 1.849 0 1.877 0a.613.613 0 01.59.424 9.158 9.158 0 001.314 2.302c.077.094.167.177.267.245a.202.202 0 00.338-.103c.07-.228.11-.464.122-.702.01-.474 0-.79-.027-1.264a.614.614 0 00-.57-.649c-.14-.023-.158-.137-.062-.25.185-.236.44-.274.719-.288.42-.024.841 0 1.263 0h.091c.186 0 .37.018.552.055a.502.502 0 01.399.449c.021.119.03.24.028.361-.01.517-.036 1.033-.042 1.55a2.82 2.82 0 00.055.61c.062.275.25.345.442.144.24-.258.46-.533.659-.824.356-.53.65-1.1.874-1.698.122-.306.215-.374.545-.374h1.862c.11-.002.221.013.328.044a.284.284 0 01.196.367 3.088 3.088 0 01-.55 1.09c-.379.534-.776 1.057-1.165 1.578a1.9 1.9 0 00-.134.213c-.145.262-.134.41.076.632.337.347.7.674 1.024 1.031.24.26.457.54.648.838.24.386.093.74-.35.803z" fill="#fff"/></svg>