<svg width="24" height="24" fill="none" xmlns="http://www.w3.org/2000/svg"><path d="M12 24c6.627 0 12-5.373 12-12S18.627 0 12 0 0 5.373 0 12s5.373 12 12 12z" fill="#000" fill-opacity=".21"/><path d="M17.719 9.114c-.24-.746-1.034-1.186-1.772-1.289a37.393 37.393 0 00-7.907 0c-.731.103-1.525.55-1.765 1.289a14.99 14.99 0 000 5.774c.246.744 1.04 1.186 1.778 1.288 2.628.278 5.278.278 7.907 0 .731-.102 1.525-.55 1.765-1.288a14.99 14.99 0 00-.006-5.774zm-7.154 5.185V9.701l3.743 2.3c-1.261.774-2.486 1.53-3.743 2.298z" fill="#fff"/></svg>