<svg width="24" height="24" viewBox="0 0 24 24" fill="none" xmlns="http://www.w3.org/2000/svg">
<path d="M12 24C18.6274 24 24 18.6274 24 12C24 5.37258 18.6274 0 12 0C5.37258 0 0 5.37258 0 12C0 18.6274 5.37258 24 12 24Z" fill="black" fill-opacity="0.21"/>
<path d="M17.7189 9.11375C17.4789 8.36849 16.6847 7.92796 15.9474 7.82533C13.319 7.54585 10.6684 7.54585 8.03999 7.82533C7.30894 7.92796 6.51473 8.3748 6.27473 9.11375C5.90053 11.0203 5.90053 12.9814 6.27473 14.888C6.52104 15.6316 7.31525 16.0738 8.05262 16.1764C10.6811 16.4543 13.3315 16.4543 15.96 16.1764C16.691 16.0738 17.4853 15.6253 17.7253 14.888C18.0974 12.981 18.0952 11.0199 17.7189 9.11375ZM10.5647 14.299V9.70112L14.3084 12.0001C13.0468 12.7753 11.8216 13.5301 10.5647 14.299Z" fill="white"/>
</svg>
