<svg width="64" height="64" fill="none" xmlns="http://www.w3.org/2000/svg"><path d="M31.994 0c-3.526.023-6.939 1.265-9.61 3.498a15.036 15.036 0 00-5.103 8.661c-.812 4.208 5.709 5.477 6.576 1.318a8.311 8.311 0 018.344-6.607 8.338 8.338 0 016.06 2.86c.796.914 2.209-.32 1.411-1.233a10.217 10.217 0 00-7.426-3.501 10.184 10.184 0 00-10.224 8.098c-.382 1.83-3.253 1.253-2.9-.58a13.155 13.155 0 014.465-7.577C25.924 2.981 28.915 1.894 32 1.874c7.235 0 13.12 5.886 13.12 13.12V56.81a5.321 5.321 0 01-5.314 5.315H24.195a5.321 5.321 0 01-5.316-5.315V30.694a5.321 5.321 0 015.316-5.315H32c2.768 0 5.358-1.091 7.293-3.072a10.12 10.12 0 002.897-7.366 10.14 10.14 0 00-.149-1.508c-.209-1.194-2.056-.87-1.846.324.07.405.111.818.121 1.228a8.26 8.26 0 01-2.364 6.012A8.255 8.255 0 0132 23.505h-7.805c-3.965 0-7.19 3.226-7.19 7.19V56.81a7.198 7.198 0 007.19 7.19h15.611a7.198 7.198 0 007.19-7.19V14.995C46.996 6.727 40.27 0 31.994 0z" fill="#F1B08D"/><path d="M22.8 48.434a.937.937 0 00-.937.937v4.79a2.19 2.19 0 002.188 2.188h15.898a2.19 2.19 0 002.188-2.188V38.263a2.19 2.19 0 00-2.188-2.188H24.051a2.19 2.19 0 00-2.188 2.188v6.114c0 1.212 1.875 1.212 1.875 0v-6.114c0-.172.14-.313.313-.313h15.898c.172 0 .313.14.313.313V54.16c0 .173-.14.313-.313.313H24.051a.313.313 0 01-.313-.313v-4.79a.937.937 0 00-.937-.937z" fill="#F1B08D"/><path d="M27.125 40.03a.937.937 0 00-.937.937v10.49c0 1.212 1.875 1.212 1.875 0V47.15h7.875v4.307c0 1.212 1.874 1.212 1.874 0v-10.49c0-1.212-1.874-1.212-1.874 0v4.308h-7.875v-4.308a.937.937 0 00-.938-.937zm-1.788-7.844c-1.207 0-1.209 1.875 0 1.875 1.206 0 1.208-1.875 0-1.875zm4.443 0c-1.207 0-1.21 1.875 0 1.875 1.206 0 1.208-1.875 0-1.875zm4.441 0c-1.206 0-1.208 1.875 0 1.875 1.207 0 1.209-1.875 0-1.875zm4.442 0c-1.206 0-1.208 1.875 0 1.875 1.207 0 1.209-1.875 0-1.875z" fill="#F1B08D"/></svg>