<svg width="64" height="64" fill="none" xmlns="http://www.w3.org/2000/svg"><path d="M32 4c.968 0 1.935.05 2.898.148l.205-1.99a30.362 30.362 0 00-8.274.286l.343 1.97A28.276 28.276 0 0132 4zM15.587 9.312l-1.174-1.619A29.962 29.962 0 002 32a29.701 29.701 0 003.104 13.304l1.792-.888A27.72 27.72 0 014 32 27.961 27.961 0 0115.587 9.312zm17.379 50.672l.068 1.998c2.813-.093 5.6-.583 8.276-1.455l-.62-1.901a27.948 27.948 0 01-7.724 1.358zM14 31h2v23h-2V31zm6 0h2v23h-2V31zm6 0h2v23h-2V31z" fill="#F1B08D"/><path d="M61.434 32.965l-18.024-8.67a3.004 3.004 0 00-4.004 1.404L34 36.938V27a5.006 5.006 0 00-5-5h-4V6a4 4 0 10-8 0v16h-4a5.006 5.006 0 00-5 5v26a5.008 5.008 0 003.296 4.7 3 3 0 105.532.3h8.344a3 3 0 105.532-.3 5.017 5.017 0 003.17-3.591L47.997 60.9a1 1 0 001.334-.468L61.901 34.3a1 1 0 00-.468-1.335zM42.11 26c.15 0 .297.034.432.099l17.122 8.236-.867 1.802L41.676 27.9a1.002 1.002 0 01-.468-1.333v-.001a1 1 0 01.903-.567zM19 6a2 2 0 114 0v16h-4V6zm-4 53a1 1 0 11-2 0 1 1 0 012 0zm13 1a1 1 0 110-2 1 1 0 010 2zm1-4H13a3.003 3.003 0 01-3-3V27a3.003 3.003 0 013-3h4v5h2v-5h4v5h2v-5h4a3.003 3.003 0 013 3v14.096l-3.43 7.132a3 3 0 001.402 4.004l2.02.971A3.003 3.003 0 0129 56zm18.962 2.665L30.839 50.43a1 1 0 01-.467-1.334l9.61-19.981c.24.242.52.441.827.588l17.123 8.236-9.97 20.727z" fill="#F1B08D"/><path d="M48.053 35.406a7 7 0 103.274 9.343 7.008 7.008 0 00-3.274-9.343zm1.814 7.531l-1.792-.862c.4-1.106.597-2.275.58-3.45l-.005-.346a5.017 5.017 0 011.217 4.658zm-6.216 1.965l-.264.204-.005-.333a7.714 7.714 0 01.396-2.546l1.615.777a7.714 7.714 0 01-1.742 1.898zm.993-4.477a7.715 7.715 0 011.743-1.899l.263-.204.006.334a7.715 7.715 0 01-.396 2.546l-1.615-.777zm.383-3.71c.136 0 .272.007.409.018l-.273.212a9.72 9.72 0 00-2.333 2.607l-1.79-.862a5.017 5.017 0 013.987-1.975zm-4.858 3.776l1.794.863a9.718 9.718 0 00-.58 3.45l.005.35a5.01 5.01 0 01-1.218-4.663zm4.432 6.205l.274-.212a9.719 9.719 0 002.333-2.607l1.793.862a5.017 5.017 0 01-4.4 1.957zm-9.316 3.649l.866-1.802 9.01 4.33-.866 1.802-9.01-4.33zm9.922-34.552a3.125 3.125 0 00-4.414 0 1.123 1.123 0 01-1.586 0l-.25-.25a7.019 7.019 0 00-9.914 0 2.869 2.869 0 01-2.043.846v2a4.858 4.858 0 003.457-1.432 5.016 5.016 0 017.086 0l.25.25a3.125 3.125 0 004.414 0 1.122 1.122 0 011.586 0l1.843 1.843a20.167 20.167 0 0013.477 5.93c.43 1.667.705 3.37.821 5.088l1.996-.136a29.72 29.72 0 00-3.106-11.38l-1.788.897a27.894 27.894 0 011.465 3.49 18.176 18.176 0 01-11.45-5.303l-1.844-1.843z" fill="#F1B08D"/><path d="M36.479 6.853l16.656 10.18a2.992 2.992 0 003.686-.44l3.886-3.886a1 1 0 000-1.414l-2-2a1 1 0 00-1.262-.125L55 10.798l-4.566-3.044L52.8 4.6a1 1 0 00-.093-1.307l-1-1a1 1 0 00-1.154-.187l-5.51 2.754-1.85-1.11a4.993 4.993 0 00-6.108.751l-.792.792a1 1 0 00.186 1.56zm5.684-1.389l2.323 1.394a1 1 0 00.961.036l5.011-2.505L48.2 7.4a1.001 1.001 0 00.245 1.432l6 4a1 1 0 001.11 0l2.318-1.545.713.713-3.18 3.18a.997.997 0 01-1.228.146L38.608 5.81a2.995 2.995 0 013.556-.347z" fill="#F1B08D"/></svg>