<svg width="64" height="64" fill="none" xmlns="http://www.w3.org/2000/svg"><path d="M64 47.688v-1.876h-9.539a6.54 6.54 0 001.977-4.687 6.57 6.57 0 00-6.563-6.563H0v1.876h2.438v9.374H0v1.876h3.614a9.052 9.052 0 00-3.551 7.187c0 4.997 4.065 9.063 9.062 9.063H64v-1.876h-3.688V47.688H64zm-59.688-3.75H45.75v-1.876H4.312v-1.874H45.75v-1.876H4.312v-1.874h45.563a4.692 4.692 0 014.688 4.687 4.692 4.692 0 01-4.688 4.688H4.312v-1.876zm54.126 6.166H9.124v1.875h3.063v8.92l6.124-3.098 6.125 3.099v-8.921h34v3.541H33.75v1.875h24.688v4.667H9.124c-3.963 0-7.188-3.224-7.188-7.187a7.195 7.195 0 017.188-7.188h49.313v2.417zm-35.876 1.875v5.871l-4.25-2.15-4.25 2.15v-5.87h8.5zm4.84-43.424a8.1 8.1 0 014.325 1.228l.5.315.499-.315a8.097 8.097 0 014.323-1.228c4.164 0 8.615 2.436 8.615 9.271 0 1.29-.163 2.623-.484 3.962l1.824.436c.354-1.482.535-2.961.535-4.398 0-3.45-1.064-6.323-3.077-8.31-1.853-1.829-4.485-2.836-7.413-2.836-1.584 0-3.122.363-4.5 1.054a11.867 11.867 0 00-7.06-7.026l-.64 1.762a9.985 9.985 0 015.342 4.598 10.159 10.159 0 00-2.789-.387c-3.42 0-6.339 1.329-8.218 3.742l1.48 1.152c1.516-1.947 3.909-3.02 6.738-3.02zm0 24.514c.67 0 1.368-.161 2.078-.478a6.68 6.68 0 012.746-.588c.95 0 1.874.198 2.745.588.71.317 1.408.478 2.078.478 3.838 0 7.53-3.516 9.404-8.956l-1.772-.611c-1.586 4.6-4.653 7.691-7.632 7.691-.41 0-.839-.102-1.312-.314a8.553 8.553 0 00-3.511-.751 8.55 8.55 0 00-3.512.75c-.474.212-.903.315-1.312.315-4.772 0-8.614-7.312-8.614-13.367 0-1.839.335-3.463.995-4.828l-1.688-.817c-.784 1.622-1.182 3.521-1.182 5.645 0 3.524 1.073 7.238 2.943 10.193 2.062 3.256 4.742 5.05 7.546 5.05zm10.72-30.307c3.481-1.631 8.45-.598 10.534-.043-.486 1.05-1.4 2.828-2.688 4.507l1.488 1.141c2.151-2.803 3.308-5.788 3.356-5.914l.349-.91-.921-.313c-.314-.107-7.739-2.59-12.913-.167a9.262 9.262 0 00-3.09 2.361l1.418 1.226a7.393 7.393 0 012.467-1.888zM23.524.181A11.969 11.969 0 0021.5 0l-.008 1.875c.573.002 1.147.054 1.705.152l.327-1.846z" fill="#F1B08D"/><path d="M30 55.52h1.875v1.875H30V55.52zm-3.75 0h1.875v1.875H26.25V55.52zm21.375-17.207H49.5v1.874h-1.875v-1.874zm0 3.75H49.5v1.874h-1.875v-1.874zM20.663 17.826h1.875c0-2.234.618-3.808 1.837-4.678l-1.09-1.526c-1.74 1.243-2.622 3.33-2.622 6.204zm5.103-5.318a6.32 6.32 0 011.615-.203l-.005-1.875a8.202 8.202 0 00-2.097.267l.487 1.81zm11.336 14.934l.112 1.872c.726-.044 1.47-.368 2.211-.964l-1.173-1.462c-.421.338-.83.535-1.15.554zm6.686-9.616h-1.875c0 3.307-1.313 6.233-2.542 7.868l1.5 1.126c1.799-2.396 2.917-5.842 2.917-8.994z" fill="#F1B08D"/></svg>