<svg width="64" height="64" fill="none" xmlns="http://www.w3.org/2000/svg"><g clip-path="url(#clip0_115_322)" fill="#F1B08D"><path d="M54.4 10.667a3.2 3.2 0 100-6.4 3.2 3.2 0 000 6.4zm0-4.267a1.067 1.067 0 110 2.133 1.067 1.067 0 010-2.133zm0 26.667a3.2 3.2 0 100-6.4 3.2 3.2 0 000 6.4zm0-4.267a1.067 1.067 0 110 2.133 1.067 1.067 0 010-2.133zm0 26.667a3.2 3.2 0 100-6.4 3.2 3.2 0 000 6.4zm0-4.267a1.067 1.067 0 110 2.133 1.067 1.067 0 010-2.133z"/><path d="M41.6 10.667h3.263a9.6 9.6 0 100-2.134H41.6a3.2 3.2 0 00-3.2 3.2v19.2h-3.2V17.067a4.267 4.267 0 10-8.533 0v1.421L14.72 23.467H8.533A8.533 8.533 0 007.467 40.46v6.473a4.267 4.267 0 108.533 0v-5.866l10.667 4.444v1.422a4.267 4.267 0 108.533 0V33.067h3.2v19.2a3.2 3.2 0 003.2 3.2h3.263a9.6 9.6 0 100-2.134H41.6c-.59 0-1.067-.477-1.067-1.066v-19.2h4.33a9.6 9.6 0 100-2.134h-4.33v-19.2c0-.589.478-1.066 1.067-1.066zm10.04 5.866a3.182 3.182 0 015.52 0 7.378 7.378 0 01-5.52 0zm2.76-14.4A7.458 7.458 0 0159 15.467a5.3 5.3 0 00-9.2 0 7.458 7.458 0 014.6-13.334zM2.133 32a6.406 6.406 0 016.4-6.4h5.334v12.8H8.533a6.406 6.406 0 01-6.4-6.4zm9.6 17.067A2.133 2.133 0 019.6 46.933v-6.4h4.267v6.4a2.133 2.133 0 01-2.134 2.134zM16 38.755v-13.51L26.667 20.8v22.4L16 38.755zm17.067 8.178a2.133 2.133 0 01-4.267 0V17.067a2.133 2.133 0 114.267 0v29.866zm18.574 14.4a3.182 3.182 0 015.519 0 7.378 7.378 0 01-5.52 0zm2.759-14.4a7.458 7.458 0 014.602 13.334 5.303 5.303 0 00-9.204 0A7.458 7.458 0 0154.4 46.933zm-2.76-8a3.182 3.182 0 015.52 0 7.378 7.378 0 01-5.52 0zm2.76-14.4a7.458 7.458 0 014.602 13.334 5.303 5.303 0 00-9.204 0A7.458 7.458 0 0154.4 24.533z"/></g><defs><clipPath id="clip0_115_322"><path fill="#fff" d="M0 0h64v64H0z"/></clipPath></defs></svg>