<svg width="64" height="64" fill="none" xmlns="http://www.w3.org/2000/svg"><g clip-path="url(#clip0_115_1797)" fill="#F1B08D"><path d="M44.8 32.006c0-11.193-9.073-20.267-20.266-20.267-11.193 0-20.266 9.074-20.266 20.267 0 11.192 9.073 20.266 20.266 20.266 11.188-.012 20.254-9.079 20.266-20.266zM33.002 48.028a.92.92 0 00-.113-.023H19.2v-3.2h9.158l-1.38 1.38 1.509 1.508 2.887-2.887h5.99a18.26 18.26 0 01-4.363 3.222zM6.401 32.006a18.133 18.133 0 1132.764 10.666h-5.653l5.646-5.646-1.509-1.508-7.157 7.154H23.91l14.179-14.179-1.508-1.508-15.688 15.687h-2.758c-.59 0-1.067.478-1.067 1.067v4.772A18.143 18.143 0 016.401 32.006z"/><path d="M62.933 42.672h-16.31A24.533 24.533 0 1020.267 56.16v.379H60.8c.59 0 1.067-.478 1.067-1.067v-5.333h1.066c.59 0 1.067-.478 1.067-1.067V43.74c0-.59-.478-1.067-1.067-1.067zM2.134 32.006c0-12.371 10.029-22.4 22.4-22.4 12.371 0 22.4 10.029 22.4 22.4 0 12.37-10.029 22.4-22.4 22.4-12.365-.015-22.386-10.035-22.4-22.4zm57.6 22.4H34.52a24.579 24.579 0 003.88-2.176v.042h2.133V50.58c.17-.146.341-.29.508-.441h1.625v2.133H44.8V50.14h2.134v2.133h2.133V50.14H51.2v2.133h2.133V50.14h2.134v2.133H57.6V50.14h2.133v4.266zm2.133-6.4H43.109a24.75 24.75 0 002.346-3.2h16.412v3.2z"/><path d="M14.18 40.85l19.2-19.199 1.509 1.509-19.2 19.2-1.509-1.51zm-3.2-6.398l16-16 1.508 1.508-16 16-1.508-1.508zm-1.066-8.534l8.533-8.533 1.509 1.508-8.534 8.534-1.508-1.51zM51.2 7.473h2.133v2.133H51.2V7.473zm0 6.4h2.133v2.133H51.2v-2.133zm-3.2-3.2h2.133v2.133H48v-2.133zm6.4 0h2.133v2.133H54.4v-2.133zm1.067 10.667H57.6v2.133h-2.133v-2.134zm0 4.266H57.6v2.133h-2.133v-2.133z"/><path d="M53.334 23.473h2.133v2.133h-2.133v-2.134zm4.266 0h2.133v2.133H57.6v-2.134z"/></g><defs><clipPath id="clip0_115_1797"><path fill="#fff" d="M0 0h64v64H0z"/></clipPath></defs></svg>