<svg width="64" height="64" fill="none" xmlns="http://www.w3.org/2000/svg"><path d="M44.396 46.264l-.662-.29.104-.389a2.446 2.446 0 00-.73-2.464l-1.865-1.677a1.542 1.542 0 00-1.032-.395h-2.149v-1.307c1.282-.73 2.42-1.7 3.35-2.864a.938.938 0 10-1.465-1.17 9.816 9.816 0 01-4.39 3.128l-1.508.535a6.501 6.501 0 01-4.36-.01l-1.409-.506a9.853 9.853 0 01-6.504-9.25v-8.21c0-1.928.918-3.774 2.456-4.938l2.725-2.062 4.717 2.59a22.767 22.767 0 0010.174 2.784l.252.008v9.795c0 .987-.15 1.967-.443 2.912a.938.938 0 101.791.556c.35-1.125.527-2.292.527-3.468v-.65a4.5 4.5 0 003.653-4.413c0-.983-.318-1.893-.856-2.634v-5.431c0-2.593-.938-5.03-2.652-6.944l2.068-3.407a1.385 1.385 0 00-.566-1.954l-3.465-1.726a22.8 22.8 0 00-17.308-1.28.938.938 0 00.58 1.783c.782-.254 1.572-.46 2.366-.621a4.933 4.933 0 00.581 6.142 21.39 21.39 0 00-5.911 1.914l-2.897-4.773 2.311-1.15a.938.938 0 00-.835-1.68l-2.791 1.39a1.385 1.385 0 00-.566 1.955L19.815 9.6a10.353 10.353 0 00-2.561 6.844v4.968c0 .08.01.156.03.23a4.473 4.473 0 00-1.037 2.867c0 1.05.363 2.017.97 2.782l-.362 2.738a6.463 6.463 0 01-1.33 3.153 14.732 14.732 0 00-2.977 6.836.937.937 0 101.853.289 12.857 12.857 0 012.598-5.964 8.337 8.337 0 001.715-4.069l.218-1.653c.307.136.63.238.968.302v.682a11.74 11.74 0 006.038 10.24v1.204H23.94c-.382 0-.748.14-1.033.396l-1.864 1.676a2.446 2.446 0 00-.73 2.464l.088.329-.797.35a14.576 14.576 0 00-3.697 2.338A12.738 12.738 0 0114.39 44.2a.939.939 0 00-1.854.279c.295 1.957.967 3.8 1.997 5.483a14.595 14.595 0 00-3.663 9.67v3.43a.937.937 0 101.875 0v-3.43c0-.286.011-.57.03-.853H16a8.406 8.406 0 00-.12 4.51.938.938 0 101.82-.453 6.529 6.529 0 011.188-5.613l.193-.247a.937.937 0 10-1.48-1.151l-.193.248a8.596 8.596 0 00-.57.83h-3.795a12.726 12.726 0 017.315-8.923l.535-.234 2.52 9.39a3.199 3.199 0 004.297 2.13L30.81 58h.328v5.062a.937.937 0 101.876 0V58h.329l3.1 1.267a3.193 3.193 0 002.63-.096 3.199 3.199 0 001.667-2.035l2.503-9.331.4.175a12.726 12.726 0 017.315 8.924h-3.644a8.58 8.58 0 00-.57-.832l-.192-.247a.938.938 0 00-1.48 1.151l.192.247a6.528 6.528 0 011.188 5.613.937.937 0 101.82.452 8.406 8.406 0 00-.12-4.51h3.073c.019.284.03.568.03.854v3.43a.937.937 0 101.875 0v-3.43a14.6 14.6 0 00-8.733-13.368zm-.422-19.277V22.03a2.622 2.622 0 011.779 2.478c0 1.15-.746 2.126-1.779 2.478zm.333-21.409l-2.897 4.773a21.4 21.4 0 00-5.912-1.914 4.932 4.932 0 00.576-6.15c1.8.364 3.562.966 5.247 1.805l2.986 1.486zm-9.292-.575a3.08 3.08 0 01-3.078 3.077 3.08 3.08 0 01-3.077-3.077 3.08 3.08 0 013.077-3.078 3.08 3.08 0 013.078 3.078zm-14.166 6.3l.332.548a1.214 1.214 0 001.605.442 19.502 19.502 0 0118.302 0 1.213 1.213 0 001.605-.442l.399-.657a8.468 8.468 0 011.805 5.25v3.931a4.459 4.459 0 00-.923-.28v-.836c0-.727-.569-1.316-1.296-1.34l-.77-.024a20.883 20.883 0 01-9.332-2.554l-4.738-2.6a1.839 1.839 0 00-1.994.145L23.1 14.962a8.117 8.117 0 00-3.087 5.112c-.306.05-.602.132-.884.24v-3.87c0-1.881.606-3.666 1.72-5.141zm-2.727 13.206c0-1.15.746-2.127 1.778-2.478v4.956a2.622 2.622 0 01-1.778-2.478zm20.86 18.415l-.368.803-.552-.242v-.56h.92zm-9.927-1.798a8.36 8.36 0 005.62.012l1.508-.535a.03.03 0 00.004-.001v3.495c0 .372.22.71.561.859l1.084.475-4.907 10.694h-1.7l-4.931-10.749.958-.42a.94.94 0 00.56-.859V40.68l1.243.446zm-3.117 1.798v.56l-.426.188-.343-.748h.768zM27 57.531a1.305 1.305 0 01-1.088-.04 1.305 1.305 0 01-.69-.84l-3.098-11.552a.58.58 0 01.173-.584l1.09-.979 5.978 13.03L27 57.53zM42.027 45.1l-3.099 11.55c-.1.372-.344.67-.69.842a1.305 1.305 0 01-1.087.04l-2.365-.967 5.979-13.03 1.09.98a.58.58 0 01.172.584z" fill="#F1B08D"/><path d="M31 3.93v.208h-.209a.937.937 0 100 1.875H31v.209a.937.937 0 101.875 0v-.209h.209a.937.937 0 100-1.875h-.21V3.93a.937.937 0 10-1.874 0z" fill="#F1B08D"/></svg>