<svg width="64" height="64" fill="none" xmlns="http://www.w3.org/2000/svg"><path d="M33.955 43.05l-.006-.074a.999.999 0 00-1.704-.635l-.763.764a3.514 3.514 0 01-4.963 0l-.623-.623a5.516 5.516 0 00-7.791 0l-.623.622a3.513 3.513 0 01-4.962 0 5.523 5.523 0 00-5.803-1.262 1 1 0 00-.65.845A13.27 13.27 0 006 44a14 14 0 1028 0c0-.332-.023-.646-.045-.95zM20 56A12.013 12.013 0 018.01 43.555a3.511 3.511 0 013.094.964 5.516 5.516 0 007.792 0l.622-.623a3.514 3.514 0 014.963 0l.623.623a5.52 5.52 0 006.827.77A12.018 12.018 0 0120 56z" fill="#F1B08D"/><path d="M38 44a17.806 17.806 0 00-3.921-11.216A18.109 18.109 0 0025 26.706v-2.878A3 3 0 0024 18h-8a3 3 0 00-1 5.828v2.878a18.109 18.109 0 00-9.079 6.078A17.806 17.806 0 002.002 44c0 9.925 8.074 18 18 18 9.924 0 18-8.075 18-18zM16 20h8a1 1 0 010 2h-8a1 1 0 010-2zm4 40A16.018 16.018 0 014 44a15.825 15.825 0 013.485-9.968 16.076 16.076 0 018.75-5.585 1 1 0 00.765-.972V24h6v3.475a1 1 0 00.766.972 16.077 16.077 0 018.75 5.585A15.824 15.824 0 0136 44a16.018 16.018 0 01-16 16z" fill="#F1B08D"/><path d="M12 48h2v2h-2v-2zm6 4h2v2h-2v-2zm3-6h2v2h-2v-2zm4 3h2v2h-2v-2z" fill="#F1B08D"/><path d="M54 2H10a5.006 5.006 0 00-5 5v21h2V7a3.004 3.004 0 013-3h44a3.003 3.003 0 013 3v50a3.003 3.003 0 01-3 3H32v2h22a5.006 5.006 0 005-5V7a5.006 5.006 0 00-5-5z" fill="#F1B08D"/><path d="M41 34h13v2H41v-2zm0 4h13v2H41v-2zm0 4h11v2H41v-2zm7-12h6v2h-6v-2zm-4 0h2v2h-2v-2zM34 14v2.382l-3.447 1.724A1.001 1.001 0 0030 19v5a1 1 0 00.553.894L34 26.618V29h2v-2.382l3-1.5 3.553 1.776a1 1 0 00.894 0L47.236 25H50v-2h-2v-3.382L51.236 18H54v-2h-2v-4a1 1 0 00-.553-.894L48 9.382V7h-2v2.382L42.764 11H40v2h2v3.382l-3 1.5-3-1.5V14h-2zm12 9.382l-3 1.5-3-1.5v-3.764l3-1.5 3 1.5v3.764zm-2-10.764l3-1.5 3 1.5v3.764l-3 1.5-3-1.5v-3.764zm-6 10.764l-3 1.5-3-1.5v-3.764l3-1.5 3 1.5v3.764zM40 57h14v-2h-2v-5h-2v5h-2v-7h-2v7h-2v-3h-2v3h-2v2zM10 7v10h2v-2h11v-2H12v-2h15V9H12V7h-2z" fill="#F1B08D"/><path d="M25 13h2v2h-2v-2zm4-4h2v2h-2V9zM16.307 32.578l-.614-1.903a13.96 13.96 0 00-6.729 4.709l1.576 1.232a11.969 11.969 0 015.767-4.038zm-6.956 5.884l-1.774-.925c-.36.692-.662 1.413-.902 2.156l1.903.614c.206-.635.464-1.252.773-1.845z" fill="#F1B08D"/></svg>