<svg width="64" height="64" fill="none" xmlns="http://www.w3.org/2000/svg"><path d="M48 9.587V8h-5.587a11.746 11.746 0 00-9.466 4.813A11.76 11.76 0 0021.587 4H16v1.587a11.76 11.76 0 0011.747 11.746h2.92V28h2.666v-6.293l21.014 5.253L32 35.907 8.787 28.08l18.266-5.413L26.28 20 4 26.667v2.666l28 9.414L57.333 28.64v7.787L32 46.573 4 36.787V50.28l28 9.813 28-11.44V45.76L32 57.24 6.667 48.387v-7.84L32 49.427 60 38.24V25.627l-19.867-4.96A11.76 11.76 0 0048 9.587zm-5.587 1.08h2.92a9.093 9.093 0 01-9.013 8H33.4a9.093 9.093 0 019.013-8zm-14.666 4a9.093 9.093 0 01-9.014-8h2.854a9.094 9.094 0 019.08 8h-2.92z" fill="#F1B08D"/></svg>