<svg width="24" height="25" viewBox="0 0 24 25" fill="none" xmlns="http://www.w3.org/2000/svg">
<path d="M9.00001 5.0435C9.13162 5.04274 9.26208 5.06796 9.38392 5.11773C9.50576 5.16749 9.61657 5.24082 9.71001 5.3335L15.71 11.3335C15.8963 11.5209 16.0008 11.7743 16.0008 12.0385C16.0008 12.3027 15.8963 12.5561 15.71 12.7435L9.71001 18.7435C9.51871 18.9073 9.27264 18.9929 9.02096 18.9832C8.76928 18.9735 8.53055 18.8691 8.35245 18.6911C8.17436 18.513 8.07002 18.2742 8.0603 18.0225C8.05058 17.7709 8.13619 17.5248 8.30002 17.3335L13.59 12.0435L8.30002 6.7535C8.15959 6.61422 8.06362 6.43644 8.02424 6.24263C7.98485 6.04882 8.00382 5.84768 8.07875 5.66464C8.15367 5.48161 8.28119 5.32491 8.44517 5.21434C8.60916 5.10378 8.80224 5.04433 9.00001 5.0435Z" fill="#363636"/>
</svg>
