<svg width="24" height="24" viewBox="0 0 24 24" fill="none" xmlns="http://www.w3.org/2000/svg">
<path d="M18.999 8.99996C18.9998 9.13156 18.9746 9.26203 18.9248 9.38386C18.875 9.5057 18.8017 9.61652 18.709 9.70996L12.709 15.7099C12.5217 15.8962 12.2682 16.0007 12.004 16.0007C11.7399 16.0007 11.4864 15.8962 11.299 15.7099L5.29905 9.70996C5.13522 9.51866 5.04962 9.27258 5.05934 9.02091C5.06906 8.76923 5.17339 8.53049 5.35149 8.3524C5.52958 8.1743 5.76832 8.06997 6.02 8.06025C6.27167 8.05053 6.51775 8.13614 6.70905 8.29996L11.999 13.5899L17.289 8.29996C17.4283 8.15954 17.6061 8.06357 17.7999 8.02418C17.9937 7.9848 18.1949 8.00377 18.3779 8.07869C18.5609 8.15362 18.7176 8.28113 18.8282 8.44512C18.9388 8.6091 18.9982 8.80219 18.999 8.99996Z" fill="#494747"/>
</svg>
