<svg width="24" height="24" fill="none" xmlns="http://www.w3.org/2000/svg"><path d="M17.355 20.646L10.738 3.53a.82.82 0 00-.77-.53H7.411a.828.828 0 00-.77.53L.028 20.646a.414.414 0 00.385.563h2.61a.419.419 0 00.39-.265l1.378-3.609a.414.414 0 01.385-.265h7.027c.171 0 .326.105.389.265l1.378 3.609c.061.16.214.264.385.265h2.611a.417.417 0 00.389-.563zm-6.468-6.472H6.492a.434.434 0 01-.406-.592l2.198-5.748a.433.433 0 01.81 0l2.203 5.748a.438.438 0 01-.41.592zm13.085 6.472l-3.356-8.836a.828.828 0 00-.774-.534h-1.2a.827.827 0 00-.774.534l-1.506 3.965 1.001 2.599a.385.385 0 01.215-.062h3.328c.17 0 .322.103.385.26l.951 2.376c.063.157.216.26.385.26h.96a.414.414 0 00.385-.562zm-3.737-3.99h-1.982a.209.209 0 01-.194-.29l.989-2.474a.207.207 0 01.389 0l.993 2.474a.21.21 0 01-.195.29z" fill="#494747" fill-opacity=".8"/></svg>