<svg width="20" height="24" fill="none" xmlns="http://www.w3.org/2000/svg"><path d="M19.131 22.036c.29.37.869.159.869-.317V.505a.49.49 0 00-.648-.477L6.367 4.661a.512.512 0 00-.22.794l12.984 16.581z" fill="url(#paint0_linear_159_7475)" fill-opacity=".8"/><path d="M16.534 23.993c.457.074.749-.49.435-.84L5.914 10.782a.48.48 0 00-.789.104L.058 20.64a.507.507 0 00.355.737l16.12 2.616z" fill="url(#paint1_linear_159_7475)" fill-opacity=".8"/><defs><linearGradient id="paint0_linear_159_7475" x1="14.54" y1="20.954" x2="16.928" y2="2.117" gradientUnits="userSpaceOnUse"><stop stop-color="#fff"/><stop offset="1" stop-color="#fff"/></linearGradient><linearGradient id="paint1_linear_159_7475" x1="11.012" y1="10.896" x2="3.748" y2="14.935" gradientUnits="userSpaceOnUse"><stop stop-color="#fff"/><stop offset="1" stop-color="#fff"/></linearGradient></defs></svg>