<svg width="81" height="81" fill="none" xmlns="http://www.w3.org/2000/svg"><g clip-path="url(#clip0_115_834)" fill="#fff"><path d="M58.216 51.89H22.785a2.833 2.833 0 01-2.647-1.76 2.71 2.71 0 01.644-3.012l11.865-11.506a2.898 2.898 0 014.005 0l7.28 7.06a.985.985 0 001.36 0l3.167-3.073a2.9 2.9 0 014.005 0l7.752 7.52a2.709 2.709 0 01.644 3.012 2.833 2.833 0 01-2.644 1.76zM34.649 36.702a.976.976 0 00-.68.273L22.102 48.481a.825.825 0 00-.206.936.923.923 0 00.888.575h35.43a.922.922 0 00.887-.575.825.825 0 00-.206-.936l-7.752-7.52a.986.986 0 00-1.362 0l-3.168 3.073a2.898 2.898 0 01-4.005 0l-7.277-7.06a.976.976 0 00-.683-.273zm18.507-.632a3.48 3.48 0 110-6.96 3.48 3.48 0 010 6.96zm0-5.062a1.583 1.583 0 100 3.165 1.583 1.583 0 000-3.165zm9.924 31.089a107.973 107.973 0 00-22.58-2.295c-7.479-.028-14.94.72-22.266 2.228l-.397-1.856a110.296 110.296 0 0122.663-2.27c7.722-.03 15.426.753 22.984 2.338l-.405 1.855zM81 70.875h-1.9a3.586 3.586 0 00-.94-2.265l1.463-1.21A5.417 5.417 0 0181 70.875zm-5.019-4.128a20.775 20.775 0 00-2.653-1.445l.796-1.724c1.003.456 1.971.985 2.898 1.582l-1.04 1.587zm-5.505-2.599a49.032 49.032 0 00-2.957-.944l.523-1.825a51.01 51.01 0 013.071.98l-.637 1.79zM1.898 70.875H0A5.417 5.417 0 011.375 67.4l1.464 1.21a3.586 3.586 0 00-.94 2.265zm3.12-4.128l-1.04-1.588a22.644 22.644 0 012.898-1.582l.796 1.724c-.919.417-1.805.9-2.654 1.446zm5.507-2.599l-.637-1.788a51.43 51.43 0 013.071-.981l.523 1.825c-1.04.298-2.035.615-2.957.944z"/><path d="M66.129 81a.95.95 0 01-.95-.95V44.298a.95.95 0 01.714-.92c8.764-2.252 13.209-4.817 13.209-7.623a.95.95 0 011.898 0v35.121c0 4.084-5.198 7.67-14.635 10.095a.943.943 0 01-.236.03zm.95-35.97v33.783c7.45-2.088 12.023-5.088 12.023-7.938V39.688c-2.131 2.014-6.087 3.762-12.024 5.342z"/><path d="M81 35.754h-1.898c0-2.665-4.08-5.498-10.911-7.58-7.397-2.253-17.23-3.494-27.691-3.494-10.46 0-20.294 1.24-27.69 3.494-6.832 2.082-10.912 4.915-10.912 7.58H0c0-8.12 20.592-12.973 40.5-12.973S81 27.634 81 35.754z"/><path d="M14.871 81c-.08 0-.16-.01-.236-.03C5.198 78.544 0 74.96 0 70.875V35.754a.95.95 0 011.898 0c0 2.839 4.691 5.608 13.21 7.797a.95.95 0 01.712.92v35.58a.95.95 0 01-.949.949zM1.898 39.744v31.131c0 2.85 4.574 5.85 12.024 7.938v-33.61c-5.888-1.57-9.874-3.376-12.024-5.46zM50.783 4.43a4.276 4.276 0 00-4.271 4.27v5.38a4.272 4.272 0 008.543 0V8.7a4.276 4.276 0 00-4.272-4.271zm2.373 9.65a2.373 2.373 0 01-4.746 0V8.701a2.373 2.373 0 114.746 0v5.38zM40.658 9.809a4.243 4.243 0 00-2.373.722V8.227a1.9 1.9 0 011.899-1.899h.949a1.903 1.903 0 011.79 1.266l1.79-.633a3.804 3.804 0 00-3.58-2.531h-.95a3.8 3.8 0 00-3.796 3.797v6.328h.028a4.271 4.271 0 104.243-4.746zm0 6.644a2.374 2.374 0 110-4.747 2.374 2.374 0 010 4.747zm-6.17-7.989a4.04 4.04 0 00-4.034-4.034h-.712a3.8 3.8 0 00-3.797 3.797h1.899a1.9 1.9 0 011.898-1.899h.712a2.138 2.138 0 012.136 2.136c0 1.257-1.073 1.82-2.136 1.82h-1.186v1.898h1.186a2.136 2.136 0 010 4.271h-.712a1.9 1.9 0 01-1.898-1.898v-.475h-1.899v.475a3.801 3.801 0 003.797 3.797h.712a4.033 4.033 0 002.685-7.043 3.554 3.554 0 001.35-2.845zm22.465-3.401a2.531 2.531 0 110-5.063 2.531 2.531 0 010 5.063zm0-3.165a.633.633 0 100 1.265.633.633 0 000-1.265z"/></g><defs><clipPath id="clip0_115_834"><path fill="#fff" d="M0 0h81v81H0z"/></clipPath></defs></svg>