<svg width="34" height="34" fill="none" xmlns="http://www.w3.org/2000/svg"><g clip-path="url(#clip0_188_3415)"><path fill-rule="evenodd" clip-rule="evenodd" d="M8.712 0H20.08l9.634 10.042v19.532A4.422 4.422 0 0125.296 34H8.712a4.423 4.423 0 01-4.426-4.426V4.426A4.423 4.423 0 018.712 0z" fill="#EA5D0E"/><path opacity=".302" fill-rule="evenodd" clip-rule="evenodd" d="M20.071 0v9.966h9.643L20.07 0z" fill="#fff"/><path d="M9.205 25.368v-6.21h2.642c.654 0 1.173.178 1.564.544.39.356.586.84.586 1.444 0 .603-.196 1.087-.586 1.444-.391.366-.91.544-1.564.544h-1.053v2.234H9.205zm1.589-3.585h.875c.238 0 .425-.05.552-.17a.584.584 0 00.195-.467.584.584 0 00-.195-.467c-.127-.12-.314-.17-.552-.17h-.875v1.274zm3.857 3.585v-6.21h2.2c.434 0 .841.06 1.224.187.382.127.73.306 1.036.552.306.238.552.56.73.969.17.407.264.875.264 1.401 0 .519-.093.986-.263 1.394a2.44 2.44 0 01-.73.968 3.288 3.288 0 01-1.037.552c-.383.128-.79.187-1.224.187h-2.2zm1.555-1.35h.458c.247 0 .476-.026.688-.085.204-.06.4-.153.587-.28a1.26 1.26 0 00.424-.544c.102-.238.153-.519.153-.842 0-.33-.05-.611-.152-.85a1.26 1.26 0 00-.425-.543 2.061 2.061 0 00-.587-.28 2.545 2.545 0 00-.688-.085h-.458v3.509zm4.698 1.35v-6.21h4.418v1.35h-2.83v.995h2.26v1.342h-2.26v2.523h-1.588z" fill="#fff"/></g><defs><clipPath id="clip0_188_3415"><path fill="#fff" d="M0 0h34v34H0z"/></clipPath></defs></svg>