<svg width="24" height="24" fill="none" xmlns="http://www.w3.org/2000/svg"><path fill-rule="evenodd" clip-rule="evenodd" d="M11.547 1.062c-.362.09-.633.245-.906.517-.28.28-.45.588-.529.96-.068.322-.067 6.965 0 7.281a1.957 1.957 0 001.49 1.49c.146.031.784.049 1.772.049h1.544l.581.773c.32.425.634.807.697.848.155.102.515.102.67 0 .063-.041.377-.423.697-.848l.581-.773h1.544c.971 0 1.628-.018 1.771-.048a1.972 1.972 0 001.49-1.491c.068-.322.067-6.965 0-7.28a1.954 1.954 0 00-1.49-1.492c-.343-.072-9.62-.06-9.912.014zm9.819 1.314c.11.056.2.147.256.257.085.165.087.247.087 3.547 0 3.3-.002 3.38-.087 3.547a.593.593 0 01-.256.256c-.162.082-.25.086-1.922.086-1.583 0-1.768.008-1.903.076-.101.05-.288.257-.567.625-.229.302-.428.55-.443.55-.015 0-.214-.248-.443-.55-.279-.368-.466-.575-.567-.625-.136-.068-.32-.076-1.906-.076-1.74 0-1.758 0-1.927-.096a.69.69 0 01-.253-.256c-.078-.153-.082-.304-.08-3.546.002-3.807-.018-3.572.325-3.78l.167-.1h4.675c4.6-.001 4.677 0 4.844.085zM2.48 4.456a1.842 1.842 0 00-.905.518 1.827 1.827 0 00-.536 1.004c-.08.413-.028 2.51.085 3.348.475 3.53 2.006 6.624 4.518 9.128 2.466 2.459 5.676 4.012 9.192 4.447.738.092 2.833.134 3.189.064a1.953 1.953 0 001.535-1.53c.035-.177.046-.94.037-2.498-.013-2.188-.016-2.245-.102-2.361-.187-.251-.215-.259-2.34-.641-3.966-.714-3.674-.674-3.889-.542-.071.043-.418.419-.77.834l-.64.755-.262-.131c-1.699-.858-3.468-2.608-4.38-4.332l-.193-.365.753-.64c.415-.352.79-.7.835-.774a.64.64 0 00.082-.28c0-.08-.222-1.385-.494-2.9-.516-2.875-.513-2.863-.768-3.054-.116-.087-.169-.089-2.425-.096-1.738-.006-2.36.005-2.522.046zm4.082 1.326c.013.053.196 1.064.408 2.246.299 1.671.373 2.16.332 2.196l-.767.654c-.899.763-.94.81-.94 1.09 0 .18.047.307.274.76a11.853 11.853 0 002.264 3.142c.94.94 1.944 1.664 3.142 2.263.602.302.848.348 1.072.199.062-.041.407-.423.767-.849l.683-.804c.022-.024 3.996.66 4.42.762l.097.023v1.87c0 1.79-.004 1.878-.086 2.04a.594.594 0 01-.267.262c-.175.089-.216.091-1.342.069-1.211-.024-1.817-.083-2.77-.268-1.844-.36-3.68-1.137-5.31-2.248-.744-.507-1.277-.956-2.043-1.724-.82-.82-1.22-1.308-1.828-2.222a14.275 14.275 0 01-2.206-5.69c-.124-.784-.175-1.525-.173-2.505.002-.987.026-1.08.324-1.26l.168-.102H6.54l.023.096zm7.112 1.14a.626.626 0 00-.344.568c0 .247.13.462.344.57a.62.62 0 00.902-.57c0-.346-.288-.644-.623-.644a.754.754 0 00-.279.075zm2.579 0a.626.626 0 00-.345.568c0 .247.13.462.345.57a.62.62 0 00.9-.57c0-.346-.287-.644-.622-.644a.754.754 0 00-.278.075zm2.578 0a.626.626 0 00-.345.568c0 .247.13.462.345.57a.62.62 0 00.901-.57c0-.346-.288-.644-.623-.644a.754.754 0 00-.278.075z" fill="#EA5D0E"/></svg>