<svg width="16" height="16" fill="none" xmlns="http://www.w3.org/2000/svg"><path d="M11.57 13.764L7.159 2.354A.547.547 0 006.645 2H4.94a.552.552 0 00-.513.353L.018 13.763a.276.276 0 00.257.376h1.741a.28.28 0 00.26-.176l.918-2.406a.276.276 0 01.257-.177h4.684a.28.28 0 01.26.177l.918 2.406a.275.275 0 00.257.176h1.74a.278.278 0 00.26-.375zM7.258 9.449h-2.93a.29.29 0 01-.27-.394l1.464-3.833a.288.288 0 01.541 0l1.468 3.833a.292.292 0 01-.273.394zm8.723 4.315l-2.237-5.89a.552.552 0 00-.516-.356h-.8a.552.552 0 00-.516.355l-1.004 2.644.667 1.732a.257.257 0 01.144-.041h2.218c.113 0 .215.069.257.174l.634 1.583a.276.276 0 00.257.174h.64a.276.276 0 00.256-.375zm-2.49-2.66h-1.322a.14.14 0 01-.13-.193l.66-1.65a.138.138 0 01.259 0l.662 1.65a.14.14 0 01-.13.193z" fill="#fff"/></svg>