<svg width="16" height="16" viewBox="0 0 16 16" fill="none" xmlns="http://www.w3.org/2000/svg">
<path d="M14.613 8.25416C14.6632 8.13212 14.6761 7.99792 14.65 7.86856C14.6239 7.7392 14.56 7.6205 14.4663 7.5275L10.4663 3.52749C10.3388 3.41827 10.1748 3.3612 10.007 3.36768C9.83919 3.37417 9.68003 3.44372 9.5613 3.56245C9.44257 3.68118 9.37302 3.84034 9.36654 4.00812C9.36006 4.17591 9.41713 4.33996 9.52634 4.46749L12.393 7.33416H1.99967C1.82286 7.33416 1.65329 7.4044 1.52827 7.52943C1.40325 7.65445 1.33301 7.82402 1.33301 8.00083C1.33301 8.17764 1.40325 8.34721 1.52827 8.47223C1.65329 8.59726 1.82286 8.6675 1.99967 8.6675H12.393L9.53301 11.5275C9.46322 11.5873 9.40654 11.6608 9.36653 11.7435C9.32651 11.8262 9.30402 11.9163 9.30048 12.0081C9.29693 12.0999 9.3124 12.1915 9.34592 12.2771C9.37943 12.3626 9.43027 12.4403 9.49524 12.5053C9.56021 12.5702 9.63791 12.6211 9.72346 12.6546C9.80901 12.6881 9.90057 12.7036 9.99238 12.7C10.0842 12.6965 10.1743 12.674 10.257 12.634C10.3397 12.594 10.4132 12.5373 10.473 12.4675L14.473 8.4675C14.533 8.40606 14.5805 8.33363 14.613 8.25416Z" fill="#494747"/>
</svg>
