<svg width="12" height="12" viewBox="0 0 12 12" fill="none" xmlns="http://www.w3.org/2000/svg">
<path d="M11.0263 1.23661C10.9502 1.0539 10.8215 0.897908 10.6566 0.788394C10.4917 0.67888 10.298 0.62077 10.1 0.621425L1.61475 0.621423C1.36364 0.640851 1.1291 0.75432 0.958017 0.939156C0.786929 1.12399 0.691889 1.36658 0.691889 1.61844C0.69189 1.87031 0.786929 2.1129 0.958017 2.29773C1.12911 2.48257 1.36364 2.59604 1.61475 2.61546L7.69588 2.61547L0.914719 9.39662C0.727182 9.58416 0.621825 9.83851 0.621825 10.1037C0.621826 10.3689 0.727183 10.6233 0.914719 10.8108C1.10226 10.9984 1.35661 11.1037 1.62183 11.1037C1.88704 11.1037 2.1414 10.9984 2.32893 10.8108L9.11009 4.02968L9.11009 10.0967C9.09946 10.2341 9.11735 10.3722 9.16263 10.5024C9.20792 10.6325 9.27962 10.7519 9.37324 10.8531C9.46686 10.9542 9.58038 11.0349 9.70667 11.0901C9.83296 11.1453 9.96929 11.1738 10.1071 11.1738C10.2449 11.1738 10.3813 11.1453 10.5076 11.0901C10.6338 11.0349 10.7474 10.9542 10.841 10.8531C10.9346 10.7519 11.0063 10.6325 11.0516 10.5024C11.0969 10.3722 11.1148 10.2341 11.1041 10.0967L11.1041 1.61138C11.1026 1.48261 11.0762 1.35536 11.0263 1.23661Z" fill="#494747"/>
</svg>
