<svg width="24" height="24" viewBox="0 0 24 24" fill="none" xmlns="http://www.w3.org/2000/svg">
<path d="M17.0263 7.23661C16.9502 7.0539 16.8215 6.89791 16.6566 6.78839C16.4917 6.67888 16.298 6.62077 16.1 6.62143L7.61475 6.62142C7.36364 6.64085 7.1291 6.75432 6.95802 6.93916C6.78693 7.12399 6.69189 7.36658 6.69189 7.61844C6.69189 7.87031 6.78693 8.1129 6.95802 8.29773C7.12911 8.48257 7.36364 8.59604 7.61475 8.61546L13.6959 8.61547L6.91472 15.3966C6.72718 15.5842 6.62183 15.8385 6.62183 16.1037C6.62183 16.3689 6.72718 16.6233 6.91472 16.8108C7.10226 16.9984 7.35661 17.1037 7.62183 17.1037C7.88704 17.1037 8.1414 16.9984 8.32893 16.8108L15.1101 10.0297L15.1101 16.0967C15.0995 16.2341 15.1173 16.3722 15.1626 16.5024C15.2079 16.6325 15.2796 16.7519 15.3732 16.8531C15.4669 16.9542 15.5804 17.0349 15.7067 17.0901C15.833 17.1453 15.9693 17.1738 16.1071 17.1738C16.2449 17.1738 16.3813 17.1453 16.5076 17.0901C16.6338 17.0349 16.7474 16.9542 16.841 16.8531C16.9346 16.7519 17.0063 16.6325 17.0516 16.5024C17.0969 16.3722 17.1148 16.2341 17.1041 16.0967L17.1041 7.61138C17.1026 7.48261 17.0762 7.35536 17.0263 7.23661Z" fill="#494747"/>
</svg>
