<svg width="24" height="24" viewBox="0 0 24 24" fill="none" xmlns="http://www.w3.org/2000/svg">
<path d="M12 24C18.6274 24 24 18.6274 24 12C24 5.37258 18.6274 0 12 0C5.37258 0 0 5.37258 0 12C0 18.6274 5.37258 24 12 24Z" fill="white" fill-opacity="0.21"/>
<path d="M11.4096 14.4521C10.4796 14.3558 9.64115 14.1269 8.92273 13.5648C8.83158 13.4979 8.74409 13.4263 8.66062 13.35C8.52472 13.2289 8.43783 13.0623 8.41635 12.8816C8.39486 12.7008 8.44026 12.5185 8.54399 12.3689C8.64772 12.2193 8.8026 12.1129 8.97941 12.0696C9.15623 12.0264 9.34275 12.0494 9.50378 12.1342C9.57585 12.1683 9.64457 12.209 9.70905 12.2558C10.3746 12.7075 11.1588 12.9524 11.9631 12.9597C12.7674 12.967 13.5559 12.7364 14.2296 12.2969C14.36 12.1927 14.5097 12.1155 14.6701 12.0695C14.8181 12.0264 14.9762 12.0341 15.1193 12.0913C15.2624 12.1486 15.3822 12.2521 15.4596 12.3853C15.657 12.7011 15.6538 13.0169 15.4122 13.2663C15.0409 13.6423 14.5921 13.9328 14.097 14.1174C13.6154 14.2901 13.1141 14.4021 12.6048 14.4506C12.6822 14.5342 12.7185 14.5753 12.7627 14.6242C13.4543 15.319 14.1475 16.009 14.8359 16.7069C14.9462 16.8061 15.0212 16.9384 15.0497 17.0839C15.0782 17.2295 15.0585 17.3803 14.9938 17.5137C14.9267 17.6595 14.8181 17.7822 14.6816 17.8664C14.5451 17.9507 14.3868 17.9928 14.2264 17.9874C14.0382 17.9717 13.8631 17.8848 13.737 17.7443C13.2143 17.22 12.6838 16.7037 12.1722 16.1653C12.0238 16.0074 11.9527 16.039 11.8217 16.1653C11.2954 16.7053 10.7638 17.239 10.2269 17.7664C10.1274 17.8763 9.99426 17.9502 9.84828 17.9765C9.70231 18.0028 9.55173 17.98 9.4201 17.9116C9.27712 17.8453 9.15635 17.7391 9.07232 17.6058C8.98828 17.4724 8.94456 17.3176 8.94641 17.16C8.96139 16.9651 9.05207 16.7837 9.19905 16.6548C9.88221 15.9727 10.5664 15.2885 11.2517 14.6021C11.3022 14.5706 11.3433 14.5264 11.4096 14.4521Z" fill="white"/>
<path d="M11.9763 12.0743C11.3746 12.0708 10.7875 11.8887 10.2895 11.5511C9.79141 11.2135 9.40481 10.7356 9.17871 10.178C8.9526 9.62041 8.89717 9.00822 9.01945 8.41908C9.14172 7.82993 9.4362 7.29037 9.86553 6.8688C10.2949 6.44724 10.8397 6.16266 11.431 6.05115C12.0223 5.93965 12.6333 6.00625 13.1867 6.24249C13.7401 6.47874 14.2109 6.874 14.5393 7.37814C14.8678 7.88229 15.0391 8.47262 15.0316 9.07428C15.0212 9.87627 14.6942 10.6417 14.1219 11.2036C13.5496 11.7655 12.7784 12.0785 11.9763 12.0743ZM13.4842 9.0348C13.4836 8.74067 13.3957 8.45335 13.2316 8.20923C13.0676 7.96511 12.8347 7.77517 12.5626 7.66348C12.2905 7.5518 11.9914 7.52338 11.7032 7.58184C11.4149 7.6403 11.1505 7.783 10.9434 7.99186C10.7363 8.20073 10.5958 8.46636 10.5398 8.75511C10.4838 9.04386 10.5148 9.34273 10.6288 9.61387C10.7428 9.885 10.9347 10.1162 11.1802 10.2782C11.4257 10.4402 11.7138 10.5256 12.0079 10.5237C12.2027 10.5231 12.3954 10.4841 12.5751 10.4089C12.7547 10.3337 12.9178 10.2238 13.0549 10.0855C13.192 9.94719 13.3005 9.7832 13.3742 9.60291C13.4479 9.42261 13.4853 9.22956 13.4842 9.0348Z" fill="white"/>
</svg>
