<svg width="178" height="62" fill="none" xmlns="http://www.w3.org/2000/svg"><g clip-path="url(#clip0_2_1181)"><path d="M20.094 0c4.26 0 5.598 3.026 6.72 6.047l11.873 32.21c.09.251.03.664-.361.814-.393.147-6.144 2.362-6.462 2.48a.617.617 0 01-.79-.37c-.12-.31-2.507-6.856-2.775-7.587H11.894c-.258.73-2.674 7.29-2.782 7.587-.11.302-.452.506-.792.37-.34-.133-6.113-2.348-6.457-2.48a.64.64 0 01-.367-.814c.407-1.124 11.308-30.668 11.864-32.21C14.442 3.071 15.826 0 20.093 0zM.62 53.724a.625.625 0 00-.62.631v7.018c0 .346.275.626.62.626h38.932c.352 0 .627-.28.627-.626v-7.018a.627.627 0 00-.627-.63H.62zm19.436-43.92l-5.545 16.495h11.18L20.129 9.804h-.072zm83.205 27.047c-.817.272-1.355.339-1.997.339-1.326 0-2.061-.52-2.061-1.867 0-1.404.934-1.873 2.767-1.873.448 0 .889.064 1.095.135v1.005c0 1.084.059 1.796.196 2.26zm4.714 1.608c-.979-1.473-1.235-2.341-1.235-4.198V30.49c0-2.03-.24-2.763-.781-3.503-.754-1.048-2.011-1.504-4.321-1.504-1.636 0-3.223.176-4.76.565l.555 2.68c1.04-.145 2.129-.268 2.897-.268 2.454 0 2.735.35 2.735 2.174v.681a7.188 7.188 0 00-1.87-.249c-3.694 0-5.646 1.79-5.646 4.755 0 2.78 2.086 4.295 4.626 4.295.948 0 1.939-.173 2.724-.49.474-.204.68-.325 1.293-.72.369.532 1.109 1.075 1.41 1.177l2.373-1.624zm36.542-1.608c-.821.272-1.35.339-1.996.339-1.332 0-2.076-.52-2.076-1.867 0-1.404.946-1.873 2.784-1.873.448 0 .891.064 1.092.135v1.005c0 1.084.058 1.796.196 2.26zm4.719 1.608c-.986-1.473-1.237-2.341-1.237-4.198V30.49c0-2.03-.245-2.763-.791-3.503-.744-1.048-2.003-1.504-4.321-1.504-1.633 0-3.23.176-4.767.565l.548 2.68c1.042-.145 2.134-.268 2.924-.268 2.439 0 2.729.35 2.729 2.174v.681a7.176 7.176 0 00-1.879-.249c-3.699 0-5.658 1.79-5.658 4.755 0 2.78 2.09 4.295 4.643 4.295.96 0 1.941-.173 2.719-.49.482-.204.68-.325 1.293-.72.374.532 1.113 1.075 1.418 1.177l2.379-1.624zM178 39.8s-2.025-4.276-2.521-5.249c-.558-1.095-1.075-1.852-2.215-2.125v-.061c.764-.145 1.372-.603 2.038-2.002.629-1.364.816-1.658 1.187-1.983.364-.322.862-.206.862-.206l.187-2.521c-.529-.071-1.116-.074-1.722-.04-1.005.059-1.525.346-2.02.84-.388.376-.651.94-.977 1.588-.345.707-.618 1.276-.977 1.995-.357.737-.524 1.07-1.484 1.07h-.625V19.937h-3.699V39.8h3.699v-5.71l.505-.01c1.061 0 1.247.264 1.808 1.371.656 1.321 1.913 4.35 1.913 4.35H178zm-104.204 0h4.269l-6.457-19.53a7.833 7.833 0 00-2.419-.366c-.979 0-1.328.128-2.094.365L60.26 39.801h4.097s.553-1.712 1.204-3.835h7.077c.632 2.12 1.157 3.835 1.157 3.835zm-7.195-7.11l1.367-4.53c.47-1.58 1.183-4.09 1.183-4.09h.117s.661 2.6 1.092 4.061c.163.581 1.293 4.559 1.293 4.559h-5.052zm47.676-2.235a2.36 2.36 0 00-2.366 2.348 2.357 2.357 0 002.366 2.35 2.353 2.353 0 002.363-2.35 2.357 2.357 0 00-2.363-2.348zM83.133 19.938h-3.709v19.86h3.71v-19.86zm73.681 8.702c2.049.043 2.303.462 2.303 2.165v8.996h3.675V30.49c0-2.03-.239-2.763-.785-3.503-.754-1.048-2.236-1.504-4.743-1.504-2.48 0-4.061.261-6.093.861v13.457h3.713v-10.99c.975-.14 1.147-.171 1.93-.171zm-64.509-9.055c-2.317 0-3.58.455-4.321 1.501-.546.742-.788 1.492-.788 3.527v1.731h-1.841v2.97h1.841V39.8h3.677l-.01-10.488h3.666v-2.969h-3.665l.01-1.591c0-1.822.28-2.175 2.736-2.175.266 0 .565.014.883.038l.58-2.853a21.406 21.406 0 00-2.768-.178zm29.506.185a127.27 127.27 0 015.851-.178c.324 0 .659.002.994.019 3.479 0 5.473 2.509 5.473 5.455 0 2.004-.927 3.334-3.098 4.126 2.555.56 3.893 2.536 3.893 4.953 0 1.773-.505 3.182-1.432 4.143-1.202 1.172-3.021 1.828-5.444 1.828-2.155 0-4.86-.066-6.237-.147v-20.2zm5.851 3.254c-.613 0-1.371.011-2.123.038v4.77h2.126c.843 0 1.52-.233 1.982-.682.441-.422.671-1.02.671-1.729 0-1.525-.834-2.388-2.383-2.397h-.273zm.077 13.668h.16c1.932 0 3.115-1.018 3.13-3.067-.02-.735-.304-1.413-.814-1.904-.558-.555-1.348-.845-2.275-.845h-2.401v5.794c.677.015 1.424.017 2.2.022z" fill="#ee2a23"/></g><defs><clipPath id="clip0_2_1181"><path fill="#fff" d="M0 0h178v62H0z"/></clipPath></defs></svg>