<svg width="153" height="46" fill="none" xmlns="http://www.w3.org/2000/svg"><g clip-path="url(#clip0_2_759)"><path d="M37.661 12.051c-.409.402-.409 1.005 0 1.306.41.402 1.024.402 1.33 0 .41-.402.41-1.004 0-1.306-.408-.401-1.023-.401-1.33 0z" fill="#fff"/><path d="M47.077 11.45h-4.094l-1.023 1.205c-.205.2-.102.3.102.401l1.33.603 3.787-1.708c.307-.1.205-.502-.102-.502zM31.828 31.134h-5.015c-1.33.803-1.74 1.004-3.48 1.707-.102 0-.204.201-.102.302l4.503 12.353h2.559l-4.094-11.35c2.661 0 9.109-.702 12.588-6.226-1.126 1.607-3.684 3.214-6.959 3.214zm7.164-17.777c-.41.401-1.023.401-1.33 0-.41-.402-.41-1.005 0-1.306.409-.402 1.023-.402 1.33 0-.819-.804-2.15-.804-2.866 0-.716.803-.818 2.009 0 2.812.82.804 2.15.804 2.866 0 .716-.803.819-2.009 0-2.812a1.04 1.04 0 010 1.306zm-9.927 22.497l3.48 9.642h2.558l-3.684-10.144c-.614.201-1.433.301-2.354.502zm3.48-12.052c.306-.402.511-.804.818-1.306-.102-.1-.205 0-.307.1-5.22 5.424-10.234 6.127-14.123 6.127h-5.936c-.204 0-.307-.2-.204-.401 4.605-6.227 9.62-11.149 13.406-14.262l-9.927 8.135c-.818.603-1.74 1.004-2.968 1.004H.82c-.307 0-.205.302-.205.503.819 2.61 3.275 5.021 7.369 5.021l-2.968 2.913c-.103.1-.103.402.204.402h11.156c7.982 0 12.997-3.415 16.17-8.236z" fill="#00995f"/><path d="M143.892 45.498H153v-27.62h-9.108v10.144h-8.597V17.878h-9.108v27.62h9.108V35.052h8.597v10.446zM36.126 14.865c-.818-.804-.818-2.01 0-2.813.82-.803 2.15-.803 2.866 0 .716.804.819 2.01 0 2.813-.819.803-2.15.803-2.866 0zm2.559 13.056c3.48-5.524 4.708-14.262 4.708-14.262l-1.33-.602c-.206-.1-.206-.201-.103-.402l1.023-1.205c-.614-1.205-2.865-3.214-6.14-3.214-1.945 0-3.685.502-5.22 1.506 0 0-2.251 1.507-5.424 4.219-3.786 3.214-8.801 8.035-13.406 14.262-.103.2 0 .402.204.402h5.936c3.89 0 8.904-.704 14.123-6.127.102-.1.205-.1.307-.1.102.1.103.2.103.3-.82 2.01-2.866 5.927-6.653 8.337h5.015c3.377 0 5.833-1.507 6.857-3.114zm-5.117 6.63l3.889 10.846H48.51c-2.252-6.729-4.708-12.956-7.062-18.68-1.842 3.916-3.582 5.825-7.88 7.833zM0 45.497h11.155l3.787-11.55H4.094C2.764 37.362 1.433 41.179 0 45.498zM15.044 20.69l5.629-4.52c1.228-3.214 2.456-6.428 3.684-9.14a197.652 197.652 0 011.842 4.42c3.07-2.511 5.015-4.018 7.574-4.72C32.237 3.414 31.112 1.003 30.6 0H18.114C17.091 2.21 13.1 10.345 8.392 21.293h4.503c.921 0 1.637-.1 2.15-.603zm68.978 21.694l.614 3.013h7.369v-27.52h-9.109v19.184c-.818.904-2.353 1.908-3.786 1.908-2.559 0-3.89-1.406-3.89-4.017V17.878h-9.108V37.06c-.818.904-2.558 1.908-4.093 1.908-2.354 0-3.685-1.406-3.685-4.017V17.878h-9.108v18.28c0 6.628 2.968 9.942 9.108 9.942 4.401 0 7.062-1.607 9.109-3.716 1.433 2.511 3.991 3.716 7.778 3.716 4.4-.1 6.857-1.607 8.801-3.716zm28.963-5.423c-.819.904-2.15 1.908-4.401 1.908-2.456 0-3.787-2.21-3.787-6.528 0-5.324 1.433-7.935 4.401-7.935 1.74 0 2.559.1 3.787.402V36.96zM105.411 46h.307c4.094 0 6.857-1.406 8.392-3.616l.512 3.013h7.471V18.983c-2.968-.904-6.448-1.708-12.793-1.708-9.108 0-14.02 5.424-14.02 15.467 0 9.24 3.48 13.258 10.13 13.258z" fill="#dd0007"/></g><defs><clipPath id="clip0_2_759"><path fill="#fff" d="M0 0h153v46H0z"/></clipPath></defs></svg>