<svg width="137" height="49" fill="none" xmlns="http://www.w3.org/2000/svg"><path fill-rule="evenodd" clip-rule="evenodd" d="M119.193.378c-13.457 2.984-17.172 21.22-5.986 29.379 6.054 4.414 13.715 4.066 19.674-.895 1.066-.886 4.119-5.094 4.119-5.675 0-.122-1.701-.857-3.78-1.634-3.309-1.238-3.811-1.356-4.035-.947-1.101 2.01-3.587 3.643-5.992 3.934-3.454.418-7.239-2.184-8.227-5.656-1.17-4.114.782-8.367 4.587-9.992 1.588-.678 4.607-.568 6.164.225 1.355.69 2.515 1.68 3.252 2.776l.434.644 3.726-1.195c2.05-.658 3.768-1.232 3.818-1.277.352-.311-1.82-3.583-3.513-5.295-3.971-4.01-8.985-5.557-14.241-4.392zm-91.788.944c-.155.445-2.759 7.509-5.785 15.697-3.026 8.188-5.502 15.038-5.502 15.222 0 .235 1.318.334 4.437.334h4.438l.767-2.353.766-2.353h12.57l.766 2.353.767 2.353h18.087l2.658-5.442 2.658-5.441h4.167l.079 5.368.078 5.368 3.958.082 3.957.082V.477l-9.57.092-9.57.091-1.63.819c-2.09 1.048-3.873 2.869-4.819 4.917-.655 1.42-.746 1.994-.746 4.706 0 2.535.11 3.333.615 4.448.816 1.803 2.386 3.54 3.985 4.406.715.388 1.3.816 1.3.951 0 .261-5.673 10.779-6.016 11.155-.111.121-2.843-6.927-6.069-15.664L37.885.513H27.687l-.282.809zm53.471 15.23v16.04l3.957-.082 3.958-.082.144-4.877.144-4.877.863-1.058c.475-.582.936-1.068 1.025-1.08.088-.011 2.017 2.693 4.286 6.01l4.125 6.03h4.852c2.669 0 4.852-.044 4.852-.096 0-.053-2.848-3.858-6.329-8.457-3.48-4.599-6.33-8.453-6.332-8.566-.002-.112 2.56-3.355 5.692-7.206 3.132-3.852 5.795-7.168 5.917-7.37.175-.289-.829-.368-4.667-.368h-4.89l-4.697 6.47-4.697 6.471L89 6.984l-.077-6.47h-8.048v16.038zm-12.664-5.45v3.53l-3.526-.006c-2.869-.006-3.755-.113-4.76-.58-2.177-1.01-2.684-3.745-.992-5.356 1.101-1.048 1.2-1.068 5.465-1.094l3.813-.023v3.53zM34.8 14.412a818.25 818.25 0 001.968 6.03c.103.283-.799.367-3.926.367-2.233 0-4.062-.1-4.063-.22-.005-.42 3.889-11.835 4.038-11.837.082-.002.974 2.545 1.983 5.66zM0 40.664v8.09h18.865l.884-2.427.884-2.427-7.87-.078-7.87-.079V32.575H0v8.09zm80.876 2.648v5.441h2.015V44.93h1.28c.705 0 1.945-.145 2.757-.323 1.175-.258 1.587-.511 2.027-1.25 1.094-1.833.445-4.312-1.325-5.068-.626-.267-2.022-.418-3.867-.418h-2.887v5.442zm10.937 0v5.441l1.08-.006c1.05-.006 1.151-.109 3.813-3.847l2.734-3.84.08 3.846.08 3.847h1.999V37.87h-1.091c-1.063 0-1.16.095-3.814 3.75l-2.722 3.75-.08-3.75-.081-3.75h-1.998v5.442zm14.247-4.979c-1.949 1.04-2.335 1.874-1.127 2.436.65.303.853.253 1.605-.394 1.443-1.24 3.802-.906 5.053.717.782 1.014.454 1.19-2.221 1.19h-2.591v1.765h2.591c2.336 0 2.59.054 2.59.549 0 .851-1.056 2.02-2.164 2.394-1.203.406-2.431.176-3.455-.648-.623-.5-.875-.55-1.453-.28-.866.403-.874.655-.047 1.45 2.114 2.03 5.426 1.978 7.699-.121 2.794-2.58 2.114-7.39-1.266-8.958-1.462-.679-4.035-.728-5.214-.1zm12.394-.096c-.06.203-.261 1.757-.448 3.453-.375 3.414-.811 4.781-1.707 5.353-.372.237-.597.69-.597 1.199 0 .74.074.8.791.629 2.108-.5 2.8-1.686 3.417-5.854.216-1.456.394-2.812.395-3.015.001-.256.569-.367 1.873-.367h1.87v9.119h2.015V37.87h-3.751c-2.75 0-3.779.098-3.858.367zm9.912.515c0 .874.016.883 1.583.883h1.583v9.119h2.302v-9.12h1.583c1.567 0 1.583-.008 1.583-.882v-.882h-8.634v.882zM86.92 40.223c.317.324.576.853.576 1.177 0 1.15-1.001 1.764-2.878 1.764H82.89v-3.529h1.727c1.343 0 1.854.13 2.302.588z" fill="#ed2824"/></svg>