<svg width="141" height="69" fill="none" xmlns="http://www.w3.org/2000/svg"><g clip-path="url(#clip0_2_979)"><path d="M0 68.99h68.31V0H0v68.99zM138.958.012H72.7v68.99H141V.011h-2.042z" fill="#0055A5"/><path d="M76.793 64.865h60.103V4.145H76.793v60.72zM6.255 37.809v14.384h2.348v-4.177c.459.403.964.645 1.505.645.776 0 1.414-.413 1.915-1.238.562-.918.842-2.273.842-4.047 0-1.237-.225-2.35-.663-3.299l-.077-.155-.077-.129-.051-.128-.077-.104-.077-.128-.102-.129-.077-.103-.076-.103-.103-.103-.076-.103-.103-.104-.101-.077-.103-.103L11 38.53l-.102-.077-.102-.078-.127-.05-.102-.078-.102-.051-.128-.052-.127-.052-.128-.052-.127-.05-.127-.026-.128-.026-.127-.026-.153-.05h-.127l-.153-.026h-.127l-.154-.026H6.255v-.001zm2.22 2.036h.23c.592 0 1.052.346 1.377 1.006.327.66.486 1.68.486 3.093 0 .763-.093 1.366-.307 1.778-.204.413-.47.619-.765.619-.286 0-.52-.195-.714-.568-.194-.36-.307-.88-.307-1.572v-4.356zm53.017-2.735l-.194.195s-4.91 5.176-5.277 5.568V37.8h-2.296v14.414h2.296v-5.918c.061-.072 3.01-3.228 3.348-3.588.02.525.337 9.506.337 9.506h2.347l-.561-15.105zm-11.198.196l-.01.02-.021.01-.02.032-.032.03-.04.041-.041.042-.052.051-.05.053-.061.061-.062.073-.072.072-.07.072-.072.082-.082.082-.092.093-.183.196-.194.206-.204.217-.214.227-.225.237-.235.237-.234.247-.235.258-.48.505-.234.247-.235.238-.224.237-.214.237-.214.217-.194.207-.184.195-.092.093-.081.093-.082.082-.072.083-.07.072-.062.073-.061.062-.061.062-.051.051-.04.042-.042.041-.03.041-.032.02-.02.032v-5.073H42.71v14.415h2.307v-5.919c.061-.071 3.012-3.227 3.348-3.588.02.526.337 9.507.337 9.507h2.337l-.561-15.108-.184.197zM36.941 48.637l-.143-.175-.122-.175-.123-.196-.102-.196-.102-.206-.092-.206-.092-.216-.071-.217-.062-.237-.06-.227-.052-.247-.041-.247-.031-.259-.02-.258-.011-.268-.01-.268c0-1.515.367-2.722 1.081-3.609.787-.97 1.93-1.453 3.42-1.453h.112V37.46h-.112c-2.327 0-4.114.722-5.328 2.175-1.103 1.31-1.664 3.135-1.664 5.424 0 2.206.613 4.03 1.807 5.402 1.266 1.444 3.012 2.186 5.216 2.186h.112v-2.525h-.112c-1.447-.001-2.59-.496-3.398-1.486zM18.48 37.446c-1.236 0-2.221.706-2.936 2.088-.694 1.361-1.046 3.17-1.046 5.387 0 2.29.332 4.14.995 5.49.674 1.382 1.68 2.088 2.986 2.088 1.338 0 2.394-.747 3.14-2.19.693-1.352 1.045-3.176 1.045-5.414 0-2.207-.357-4.012-1.072-5.362l-.077-.129-.076-.128-.052-.129-.102-.103-.051-.103-.103-.103-.076-.103-.077-.103-.077-.104-.102-.103-.077-.077-.102-.078-.076-.077-.102-.078-.077-.077-.102-.078-.103-.052-.102-.051-.102-.051-.102-.051-.102-.052-.102-.052-.102-.026-.127-.052-.102-.025-.128-.026-.102-.026h-.102l-.127-.025-.128-.026h-.253v.001zm0 2.32c.652 0 1.133.47 1.428 1.418.286.855.409 2.103.409 3.712 0 1.556-.143 2.85-.46 3.84l-.05.103-.026.078-.025.077-.026.078-.025.077-.05.078-.026.078-.052.051-.025.078-.051.052-.026.078-.025.051-.05.052-.052.05-.025.052-.051.025-.025.052-.052.05-.05.026-.052.052-.051.025-.052.026-.025.025-.052.026h-.05l-.052.025-.051.026h-.051l-.052.026h-.179c-.562 0-.985-.485-1.302-1.444-.327-1-.485-2.284-.485-3.79 0-1.535.158-2.804.485-3.763.298-.916.732-1.39 1.303-1.39zm9.612 8.869l-.061-.082-.072-.093-.133-.175-.112-.196-.112-.195-.103-.207-.091-.206-.082-.216-.081-.217-.062-.237-.06-.227-.042-.247-.04-.247-.03-.259-.021-.258-.02-.268v-.268c0-1.515.356-2.722 1.081-3.609.776-.969 1.92-1.453 3.41-1.453h.122v-2.516h-.122c-2.318 0-4.114.722-5.318 2.175-1.113 1.31-1.663 3.135-1.663 5.424 0 2.206.601 4.03 1.806 5.403 1.255 1.443 3.01 2.186 5.216 2.186h.112V50.12h-.111c-1.462-.001-2.605-.496-3.41-1.486zM6.277 16.662v14.486h2.645V19.064h3.266v12.084h2.634V16.662H6.277zm16.643-.378c-1.4 0-2.523.711-3.318 2.114-.786 1.372-1.174 3.187-1.174 5.413 0 2.299.367 4.181 1.123 5.542.765 1.393 1.898 2.088 3.368 2.088 1.5 0 2.684-.727 3.521-2.19.787-1.362 1.2-3.202 1.2-5.44 0-2.227-.429-4.053-1.225-5.413l-.077-.128-.076-.13-.077-.128-.102-.103-.077-.129-.102-.103-.077-.103-.102-.103-.102-.103-.077-.078-.102-.103-.102-.077-.102-.078-.102-.077-.127-.078-.102-.052-.103-.077-.102-.052-.127-.052-.102-.051-.128-.052-.127-.052-.102-.026-.127-.052-.128-.026-.127-.025-.128-.026-.127-.025H23.2l-.127-.026h-.154v.001zm.025 2.45c.715 0 1.22.463 1.557 1.391.306.846.459 2.078.459 3.687 0 1.536-.18 2.82-.536 3.79-.347.948-.826 1.39-1.48 1.39h-.23l-.051-.025-.052-.025h-.051l-.052-.026-.05-.026-.052-.025-.051-.026-.052-.025-.051-.052-.05-.026-.052-.05-.052-.026-.025-.052-.052-.052-.05-.052-.026-.052-.052-.052-.051-.077-.025-.052-.052-.052-.025-.077-.05-.078-.026-.052-.025-.103-.052-.078-.025-.077-.026-.078-.051-.077c-.357-1-.536-2.269-.536-3.764 0-1.536.18-2.789.536-3.738.341-.915.816-1.364 1.46-1.364zm19.071-2.072v2.402h2.194v12.084h2.644V19.064h2.225v-2.402h-7.063zm-5.789 5.041h-1.439c-.592 0-1.04-.134-1.317-.402-.204-.186-.296-.444-.296-.774V16.66H30.53v4.135c0 .949.378 1.763 1.113 2.402.724.63 1.623.949 2.654.949h1.928v7h2.645V16.66h-2.645v5.043h.001zm16.294-5.031l-.485 14.487h2.629s.245-6.77.255-7.09h3.291l.766 7.09h2.654l-1.225-10.595v-.386l-.026-.129v-.128l-.025-.103v-.13l-.025-.102-.026-.129-.025-.103-.025-.103-.026-.103-.025-.103-.051-.103-.026-.104-.025-.103-.051-.103-.052-.077-.051-.103-.026-.078-.051-.103-.051-.078-.077-.077-.052-.103-.051-.052-.077-.103-.051-.052-.077-.078-.077-.077-.077-.052-.051-.078-.102-.077c-.663-.527-1.562-.774-2.705-.774h-3.9v.002zm2.527 2.397h.944c.683 0 1.143.222 1.429.644.235.35.393 1.02.485 1.959h-2.935v-.412l.025-.077v-1.031l.026-.103V19.3l.025-.052v-.179z" fill="#fff"/><path d="M93.39 22.3l.092.217.113.206.112.216.133.227.071.103.082.113.072.114.081.114.092.113.091.114.092.113.102.114.112.123.112.114.113.124.123.124.133.123.132.124.143.124.153.133.153.124.163.134.164.133.173.145.194.134.184.145.204.133.204.144c.5.351 1.072 1.084.644 2.104-.429 1.031-1.225 2.475-.746 3.042.48.567 2.174.855 3.563.299 0 0 .297.886.807 1.453 0 0-.245.484-1.041.237 0 0 .296.732-.113 1.516 0 0-.928-.165-1.338-1.031 0 0-.367.68-1.112.917 0 0-.612-.32-.48-1.556 0 0-.448 1.103-1.837 1.289 0 0-.796-1.02.245-2.392 0 0-.755.67-2.103.35 0 0-.224-.7 1.012-1.67 0 0-1.389-.062-1.92-1.237 0 0 .582-.732 2.022-.568 0 0-1.337-.3-1.634-1.908 0 0 .96-.618 2.491.371 0 0-.265-.515-.908-1.03-.644-.493-1.42-1.927-1.144-4.03zm5.575 16.242l-.041-.051-.03-.051-.041-.052-.03-.052-.031-.052-.032-.05-.03-.042-.03-.051-.03-.052-.031-.052-.02-.051-.032-.051-.02-.042-.031-.05-.02-.053-.02-.052c.244 1.96.326 3.28 1.367 4.548 0 0 .643-.846.225-2.908a2.113 2.113 0 01-.562-.268s.245.836.092 1.68c0 0-.378-.28-.653-2.248zm-1.817-.207l-.01-.01-.01-.02-.01-.02-.02-.01-.01-.021-.02-.02-.011-.022-.02-.02-.011-.02-.02-.031-.031-.041-.03-.052-.041-.052-.03-.052-.032-.05-.04-.052-.03-.052-.031-.041-.031-.051-.01-.03-.01-.021-.02-.02-.01-.022c-.092 1.135-.389 4.125.612 5.064 0 0 .673-.506.918-4.867-.142.247-.398.505-.52.649 0 0 .163 1.382-.327 2.36-.002 0-.492-.383-.195-2.476zm-2.358 2.29l.071-.093.071-.113.072-.124.072-.134.061-.134.061-.144.052-.155.061-.155.051-.165.051-.165.041-.165.04-.174.082-.341.03-.165.041-.165.031-.165.021-.154.031-.154.02-.155.02-.145.021-.134.02-.123.01-.114.011-.113.01-.093.01-.041V36.8l.01-.041v-.062l.01-.02v-.083c.113-.073.235-.165.348-.258.051-.042.092-.073.143-.124 0 .113 0 .227.01.34-.123 1.815-.266 3.692-.827 4.63-.551.918-1.562 1.392-1.562 1.392-.949-1.712.194-4 1.153-5.598a2.75 2.75 0 00.368-.155c-.348 1.225-.981 2.679-.716 3.803zm-2.358-5.249v.144l.01.03v.063l.01.01v.05l.01.021v.03l.011.012v.03l.01.01v.031l.01.011c.01.02.02.072.041.124-.796.773-1.388 1.536-2.562 3.185-1.184 1.66-3.052 1.722-3.052 1.722.184-1.34.541-2.403 1.54-3.537.992-1.144 2.278-2.186 3.217-2.877.245.114.56.186.96.135.02 0 .06-.01.092-.01-.123.164-.205.33-.245.484-.715.413-2.777 1.474-3.614 3.176 0 .002 1.306-.41 3.562-2.844zm-1.481-1.661l.082-.154a.828.828 0 01.082-.123c-.776.299-3.512 1.34-4.4 1.803-.878.465-2.164 1.517-2.859 3.661 0 0 1.849.165 3.38-1.113 1.52-1.268 3.296-3.052 4.053-3.619a.987.987 0 01-.174-.196s-2.062 1.847-4.247 2.64c0 0 .47-.845 1.327-1.474 1.052-.755 1.838-1.002 2.756-1.425zm-1.561-1.268l.01-.02.01-.03.01-.031.01-.02.01-.031.01-.032.011-.01v-.011l.01-.01.01-.022c-.908.196-3.164.464-4.174.774-1.011.31-2.829 1.062-3.91 3.146 0 0 1.592.494 4.583-.928 3.001-1.423 3.94-1.723 4.512-1.877a2.07 2.07 0 01-.95-.289c-1.194.536-2.786 1.176-4.378 1.217 0 0 .785-.557 1.602-.908a20.612 20.612 0 012.624-.918zm.071-1.505l.05.03.051.021.051.02.061.032.05.01.051.02.051.021.052.011.051.02.061.012.052.01.061.01.03.012h.03l.031.01h.061l.041.011h.03l.032.01c-.204.135-.399.31-.583.537-1.061.31-2.858.64-5.828.856-2.97.227-4.553-.33-4.553-.33 1.031-.639 2.685-1.289 3.798-1.505 1.123-.217 4.053-.186 5.328-.371.02.02.184.144.44.3-1.093.102-3.39.205-4.584.803 0-.003 2.196.296 5.085-.55zm-.225-1.722l.03-.02.031-.011.03-.021.03-.01.032-.02.03-.011.03-.021.042-.02.03-.011.031-.021.04-.01.042-.021.03-.02.04-.01.042-.021.04-.011c-1.5-.454-3.563-1.196-6.665-1.402-2.277-.155-3.93-.021-4.777.206 0 0 2.072 1.475 4.45 2 2.369.516 4.297.186 5.696.196.102-.145.205-.29.368-.454-1.643.01-4.39-.413-5.37-.742.001.001 2.39-.514 5.748.455zm.001-1.783v.022l.01.01v.02l.01.02v.031l.01.032.01.03.02.042.01.032.021.051.02.042.02.04.021.053.031.052.03.052.03.052.041.05.031.063.041.052.051.052.05.062.052.052.05.061.062.052.061.052.071.052.072.061.082.042.07.052.092.05.093.042c-2.114-.928-6.279-1.464-8.504-2.413-3.021-1.258-3.573-2.846-3.573-2.846 2.614-.072 4.726.578 6.35 1.084 1.919.587 4.818 1.68 5.828 2.144-.378.01-.796.114-1.144.361-1.418-.546-2.082-.783-3.378-1.154-1.01-.29-1.766-.341-2.4-.403 0 0 .9.598 2.37 1.072 1.462.47 2.095.552 3.289.78zm-.164-2.329l.01.01.01.021.01.02.011.012.01.02.01.02.01.022.02.02.01.02.01.021.02.03.01.021.031.052.041.042.03.05.031.042.01.031.02.021.01.02.02.021.012.02.02.022.01.02.011.02.01.012.01.02.01.01.011.021c-3.338-.567-7.013-3.113-8.146-4.701-1.133-1.578-.807-3.94-.807-3.94 1.103.228 3.491 2.31 4.104 2.94.622.618 2.5 2.464 3.797 3.495l.398 1.175a131.33 131.33 0 00-3.246-2.525c-.633-.485-1.582-1.155-2.511-1.485 0 0 .857 1.134 1.562 1.69.807.65 1.623 1.208 2.296 1.579.605.327.91.524 2.125 1.11z" fill="#0055A5"/><path d="M98.484 34.551l.02-.02.021-.021.01-.011.02-.02.02-.021.021-.01.01-.02.021-.011.01-.021.021-.02.01-.011.02-.021.01-.01.021-.021.011-.011.02-.02c.154.206.663.856.92 1.505.193.547.398 1.299.5 1.721.102.444.398 1.33.592 1.64 0 0-.817.113-1.42-.609-.592-.69-.786-1.391-.888-2.113-.072-.565-.04-1.349.03-1.875zm-1.286.105l.02.02.01.021.02.011.01.02.01.021.02.01.01.01.01.02.02.01.01.01.01.011.01.021.021.01.01.01h.01l.01.011.011.01.01.01.01.01h.01v.012h.01l.01.01h.01v.01h.011v.01h.01v.01l.123.052.112-.031c.102-.042.194-.083.276-.113.123.32.163.485.204.773.03.372.112.96-.03 1.444-.173.588-.521.939-.715 1.175 0 0-.53-.598-.683-1.082a2.79 2.79 0 01-.02-1.711c.114-.33.287-.63.43-.805zm-1.826.05l.05-.01h.051l.041-.012.05-.01.092-.02.092-.02.093-.031.091-.02.082-.032.081-.03.071-.042.072-.03.082-.042.061-.031.071-.041.061-.041.062-.042.061-.041c.072.186.174.454.102.814a2.062 2.062 0 01-.705 1.083c-.55.444-1.276.856-2.092.722.002 0-.182-.609 1.43-2.124zm-.612-1.021l.01.053v.051l.01.042.01.052.01.04.01.042.011.052.01.041.02.042.011.031.01.041.02.042.01.03.021.032.01.03.01.032.021.03.01.032.01.02.021.021.01.03.01.021.011.011.01.02.01.021.01.01.01.01.01.012.01.01v.011h.011v.01c-.194.228-.878 1.413-2.307 1.217 0 0-.388-.814.562-1.454.642-.447.958-.53 1.397-.684zm.12-1.021l-.07.02-.071.021-.082.011-.081.01-.082.011-.082.011h-.091l-.092.01h-.092l-.102-.01h-.092l-.05-.01h-.05l-.062-.011h-.05l-.051-.01-.052-.012-.05-.01-.062-.011-.05-.01-.062-.021-.163-.031-.051-.165c-.725.609-1.602.711-1.899 1.258 0 0 .368.68 1.316.557.95-.114 1.665-.557 2.175-1.206.007-.093.047-.268.099-.402zm-1.643-.845l.02-.042.032-.04.02-.042.02-.052.031-.041.02-.052.03-.052.021-.051.031-.052.03-.062.02-.03.021-.021.01-.032.021-.031.02-.03.021-.021.02-.032.02-.03.032-.03.02-.031.031-.032.02-.02a4.676 4.676 0 00-1.929.02c-.878.165-1.776.372-2.225 1.712 0 0 .56.495 1.592.279.858-.175 1.613-.557 2.051-1.185zm-.377-1.465l-.04-.041-.041-.03-.041-.042-.041-.041-.031-.042-.041-.052-.04-.04-.031-.042-.04-.052-.031-.052-.04-.052-.032-.052-.031-.062-.03-.052-.03-.062-.031-.062-.072-.164c-.755-.31-1.551-.475-2.327-.186-.776.299-.98.64-1.174.928 0 0 .857.732 1.848.763.99.022 1.898-.267 2.296-.565zm.235-1.576l.02-.011.03-.01.021-.01h.03l.02-.01.032-.011.02-.011.031-.01h.031l.03-.012.03-.01h.021l.03-.011.031-.01h.031l.03-.011a2.772 2.772 0 01-.827-1.444c-.347.082-1.184.082-1.54-.052-.368-.144-1.083-.155-1.644.227 0 0 .183.98 1.449 1.32 1.195.323 1.634.24 2.124.076zm-.46-1.928l.164-.114c.02-.01.306-.186.796-.217-.408-.319-1.388-1.144-2.073-1.526-.745-.422-1.99-1-2.633-1.083 0 0 .602 1.577 1.286 2.217.725.661 1.225.909 2.46.723zm1.276-.734l-.05-.073-.05-.082-.062-.083-.052-.082-.04-.093-.051-.093-.05-.093-.041-.103-.041-.103-.051-.103-.04-.103-.032-.114-.04-.113-.042-.114-.03-.124-.03-.114c-.153-.536-.48-1.835-.674-2.186-.193-.34-.898-1.515-2.266-1.887 0 0-.358 1.536.327 2.773.59 1.055 1.805 2.168 3.315 2.89zm7.605 7.199l.041.031.03.03.031.032.031.02.031.032.03.02.031.032.03.02.031.021.041.032.02.01.021.01.02.012.021.02.02.011.02.01.032.01.02.021.02.011.031.01.03.021.02.011s.44.846-.091 1.856a25.374 25.374 0 00-1.184 2.64s-.286-.042-.602-1.64c-.214-1.072-.48-1.35-.765-1.711.306.154.551.196.582.196l.204.051.102-.206a2.18 2.18 0 00.234-1c0-.103 0-.196-.01-.28.49.021.755-.236.857-.36.01-.02.021-.02.021-.03l.05.057z" fill="#0055A5"/><path d="M89.88 21.107v.486l.03.381c-.817-1.042-1.787-2.299-2.705-3.464-.633-.794-1.164-1.268-1.767-1.66.51 1.473 1.409 2.65 2.042 3.227.633.587 1.551 1.577 2.45 2.186l.081.289c.072.279.174.556.317.825.224.37.49.732.816 1.093a11.355 11.355 0 00-.857-.402L90 23.944c-2.46-1.309-4.91-4.052-5.89-5.949-.99-1.908-.582-4.114-.326-5.3 1.123.96 2.746 2.846 3.44 3.867.868 1.258 1.97 3.052 2.654 4.507v.038zm34.573 8.113l-.03-.02-.021-.011-.03-.021-.031-.01-.03-.02-.041-.011-.031-.021-.03-.02-.031-.011-.041-.021-.03-.01-.041-.021-.041-.02-.041-.01-.041-.021-.041-.011c1.511-.454 3.573-1.196 6.687-1.402 2.276-.155 3.909-.021 4.767.206 0 0-2.083 1.475-4.451 2-2.368.516-4.298.186-5.707.196a2.482 2.482 0 00-.357-.454c1.644.01 4.379-.413 5.37-.742-.001.001-2.39-.514-5.758.455zm.011-1.783v.022l-.01.01v.02l-.01.02-.011.031v.032l-.02.03-.01.042-.011.032-.02.051-.02.042-.021.04-.031.053-.02.052-.031.052-.031.052-.04.05-.041.063-.041.052-.041.052-.051.062-.051.052-.061.061-.061.052-.062.052-.061.052-.082.061-.071.042-.081.052-.082.05-.091.042c2.112-.928 6.267-1.464 8.513-2.413 3.012-1.258 3.563-2.846 3.563-2.846-2.613-.072-4.737.578-6.359 1.084-1.91.587-4.808 1.68-5.829 2.144.388.01.807.114 1.154.361 1.419-.546 2.082-.783 3.368-1.154 1.021-.29 1.766-.341 2.399-.403 0 0-.888.598-2.358 1.072-1.472.47-2.105.552-3.288.78zm.163-2.33v.01l-.011.021-.01.021-.01.01-.02.021-.01.021-.011.02-.01.021-.02.02-.011.022-.03.051-.031.052-.041.042-.03.05-.031.042-.01.031-.02.021-.01.02-.02.021-.011.02-.02.022-.01.02-.011.02-.01.011-.01.021-.021.01-.01.021c3.338-.567 7.013-3.113 8.146-4.701 1.144-1.578.817-3.94.817-3.94-1.103.228-3.491 2.31-4.113 2.94-.613.618-2.491 2.464-3.787 3.495l-.399 1.175c1.103-.896 2.42-1.897 3.236-2.526.643-.484 1.572-1.154 2.522-1.484 0 0-.868 1.134-1.563 1.69a16.68 16.68 0 01-2.307 1.579c-.592.326-.908.523-2.113 1.11zm-.807-4v.486l-.031.381c.807-1.041 1.776-2.299 2.695-3.464.643-.794 1.173-1.268 1.766-1.66-.501 1.473-1.399 2.65-2.032 3.227-.633.587-1.552 1.577-2.45 2.186l-.082.289a4.334 4.334 0 01-.326.825c-.214.37-.49.732-.807 1.093a9.78 9.78 0 01.857-.402l.276-.124c2.461-1.309 4.911-4.052 5.89-5.949 1.011-1.908.592-4.114.326-5.3-1.122.96-2.735 2.846-3.429 3.867-.868 1.258-1.97 3.052-2.654 4.507v.038h.001zM93.034 36.14l-.102.103-.102.103-.113.114-.112.123-.122.124-.123.134-.122.144-.123.144-.132.155-.132.155-.123.165-.132.165-.123.175-.132.185-.122.186-.123.185-.112.197-.112.195-.112.196-.102.207-.102.206-.082.217-.082.206-.081.227-.062.216-.06.217-.042.227-.04.227-.021.226-.01.237-.01.227.02.237s1.981-.629 2.808-2.103c.816-1.464 1.317-2.403 1.664-2.733-.225.032-.45.032-.654 0l-.183-.03c-.51.928-1.511 2.454-2.41 2.98 0 0-.224-1.237 2.42-3.733a2.52 2.52 0 01.164-.34c-.245.092-.51.133-.828.124m27.241-13.83l-.102.217-.112.206-.112.216-.132.227-.072.103-.071.113-.082.114-.082.114-.081.113-.093.114-.102.113-.102.114-.102.123-.112.114-.112.124-.123.124-.133.123-.132.124-.143.124-.153.133-.153.124-.163.134-.163.133-.173.145-.184.134-.194.145-.204.133-.204.144c-.51.351-1.072 1.084-.644 2.104.429 1.031 1.225 2.475.745 3.042-.479.567-2.184.855-3.573.299 0 0-.295.886-.796 1.453 0 0 .245.484 1.041.237 0 0-.296.732.112 1.516 0 0 .93-.165 1.327-1.031 0 0 .368.68 1.113.917 0 0 .622-.32.48-1.556 0 0 .449 1.103 1.847 1.289 0 0 .796-1.02-.245-2.392 0 0 .745.67 2.103.35 0 0 .214-.7-1.011-1.67 0 0 1.388-.062 1.919-1.237 0 0-.592-.732-2.031-.568 0 0 1.338-.3 1.633-1.908 0 0-.959-.618-2.481.371 0 0 .266-.515.909-1.03.633-.493 1.409-1.927 1.143-4.03zm-5.572 16.242l.04-.051.031-.051.031-.052.04-.052.032-.052.03-.05.03-.042.031-.051.03-.052.021-.052.031-.051.02-.051.03-.042.021-.05.02-.053.021-.052c-.235 1.96-.317 3.28-1.368 4.548 0 0-.633-.846-.225-2.908.184-.052.368-.133.562-.268 0 0-.234.836-.092 1.68 0 0 .378-.28.664-2.248zm1.807-.207l.021-.01.01-.02.01-.02.011-.01.02-.021.01-.02.02-.022.011-.02.02-.02.01-.031.041-.041.03-.052.031-.052.041-.052.03-.05.031-.052.03-.052.031-.041.031-.051.02-.03.01-.021.01-.02.011-.022c.092 1.135.388 4.125-.603 5.064 0 0-.683-.506-.918-4.867.143.247.398.505.51.649 0 0-.163 1.382.327 2.36 0 0 .5-.383.194-2.476zm2.368 2.29l-.082-.093-.071-.113-.072-.124-.061-.134-.071-.134-.051-.144-.061-.155-.051-.155-.051-.165-.051-.165-.041-.165-.052-.174-.071-.341-.04-.165-.032-.165-.03-.165-.02-.154-.03-.154-.021-.155-.02-.145-.021-.134-.02-.123-.011-.114-.009-.113-.011-.093-.01-.041V36.8l-.01-.041v-.062l-.01-.02v-.083a2.695 2.695 0 01-.347-.258c-.052-.042-.102-.073-.143-.124 0 .113 0 .227-.021.34.133 1.815.276 3.692.837 4.63.552.918 1.563 1.392 1.563 1.392.949-1.712-.194-4-1.164-5.598a2.731 2.731 0 01-.358-.155c.336 1.225.969 2.679.714 3.803zm2.357-5.249v.144l-.01.03v.062l-.01.01v.041l-.011.01v.041l-.01.01v.032l-.01.01v.041l-.01.011c-.011.02-.02.072-.041.124.796.773 1.388 1.536 2.562 3.185 1.173 1.66 3.053 1.722 3.053 1.722-.184-1.34-.552-2.403-1.552-3.537-.991-1.144-2.276-2.186-3.205-2.877a1.714 1.714 0 01-.96.135c-.041 0-.061-.01-.091-.01.122.164.204.33.245.484.704.413 2.776 1.474 3.613 3.176 0 .002-1.306-.41-3.563-2.844zm1.481-1.661l-.081-.154a.882.882 0 00-.082-.123c.766.299 3.501 1.34 4.389 1.803.889.465 2.164 1.517 2.859 3.661 0 0-1.848.165-3.369-1.113-1.521-1.268-3.297-3.052-4.063-3.619a.805.805 0 00.184-.196s2.062 1.847 4.247 2.64c0 0-.47-.845-1.338-1.474-1.041-.755-1.828-1.002-2.746-1.425zm1.561-1.267l-.01-.02-.01-.031-.011-.031-.02-.02-.01-.031-.01-.031-.01-.021-.011-.03c.898.195 3.165.463 4.175.773 1 .31 2.828 1.062 3.91 3.145 0 0-1.593.495-4.594-.928-2.99-1.422-3.929-1.722-4.501-1.876.459-.032.786-.186.949-.289 1.195.536 2.786 1.176 4.38 1.217 0 0-.787-.557-1.613-.907a19.727 19.727 0 00-2.614-.92zm-.071-1.506l-.05.03-.052.021-.061.02-.052.032-.05.01-.052.02-.05.021-.051.011-.051.02-.062.012-.05.01-.062.01-.061.012-.03.01h-.072l-.03.011h-.031l-.041.01c.204.135.408.31.592.537 1.052.31 2.849.64 5.819.856 2.97.227 4.552-.33 4.552-.33-1.031-.639-2.684-1.289-3.797-1.505-1.112-.217-4.042-.186-5.329-.371-.02.02-.163.144-.428.3 1.082.102 3.389.205 4.573.803-.001-.003-2.185.296-5.074-.55z" fill="#0055A5"/><path d="M115.204 34.551l-.031-.041-.02-.011-.02-.02-.021-.021-.01-.01-.02-.02-.011-.011-.02-.021-.01-.02-.02-.011-.011-.021-.02-.01-.011-.021-.02-.011-.01-.02c-.163.206-.674.856-.929 1.505a19.268 19.268 0 00-.49 1.721c-.112.444-.409 1.33-.592 1.64 0 0 .806.113 1.408-.609.592-.69.807-1.391.889-2.113a7.608 7.608 0 00-.031-1.875zm1.287.105l-.01.02-.02.021-.011.011-.01.02-.02.021-.011.01-.01.01-.02.02-.011.01-.009.01-.011.011-.02.021-.01.01-.011.01h-.01l-.01.011-.01.01-.01.01-.01.01h-.011l-.01.012h-.01l-.01.01-.01.01h-.011v.01h-.02v.01l-.102.052-.123-.031a2.584 2.584 0 00-.276-.113c-.112.32-.163.485-.194.773-.041.372-.112.96.031 1.444.173.588.51.939.704 1.175 0 0 .541-.598.683-1.082.164-.505.225-1.103.021-1.711a2.332 2.332 0 00-.428-.805zm1.837.05l-.05-.01h-.051l-.051-.012-.051-.01-.092-.02-.092-.02-.091-.031-.082-.02-.082-.032-.081-.03-.082-.042-.071-.03-.071-.042-.072-.031-.061-.041-.072-.041-.061-.042-.051-.041c-.071.186-.184.454-.102.814.082.371.337.794.704 1.083.541.444 1.276.856 2.082.722 0 0 .193-.609-1.42-2.124zm.613-1.021l-.01.053-.011.051-.009.042v.052l-.011.04-.01.042-.02.052-.011.041-.01.042-.01.031-.021.041-.009.042-.011.03-.021.032-.01.03-.021.032-.009.03-.011.032-.02.02-.01.021-.011.03-.01.021-.02.011-.011.02-.009.021-.011.01v.01l-.01.012-.01.01v.011h-.01v.01c.183.228.878 1.413 2.307 1.217 0 0 .378-.814-.572-1.454-.643-.447-.949-.53-1.388-.684zm-.132-1.021l.071.02.081.021.082.011.082.01.081.011.082.011h.091l.092.01h.091l.102-.01h.093l.102-.01.051-.011h.061l.051-.01.051-.012.051-.01.061-.011.051-.01.051-.021.164-.031.061-.165c.724.609 1.602.711 1.899 1.258 0 0-.368.68-1.317.557-.949-.114-1.664-.557-2.174-1.206a3.206 3.206 0 00-.111-.402zm1.654-.845l-.011-.021-.01-.02-.031-.042-.02-.041-.021-.052-.03-.041-.02-.052-.031-.052-.031-.051-.02-.052-.03-.062-.021-.03-.02-.021-.011-.032-.02-.031-.021-.03-.02-.021-.02-.032-.021-.03-.031-.03-.02-.031-.03-.032-.021-.02a4.674 4.674 0 011.929.02c.878.165 1.776.372 2.225 1.712 0 0-.571.495-1.592.279-.858-.175-1.623-.557-2.051-1.185zm.367-1.465l.041-.041.041-.03.041-.042.04-.041.041-.042.041-.052.031-.04.041-.042.03-.052.041-.052.031-.052.03-.052.031-.062.03-.052.031-.062.031-.062.071-.164c.765-.31 1.551-.475 2.327-.186.776.299.98.64 1.174.928 0 0-.858.732-1.838.763-.99.022-1.908-.267-2.306-.565zm-.225-1.576l-.051-.021-.03-.01h-.021l-.031-.01-.02-.011-.03-.011-.031-.01h-.031l-.02-.012-.03-.01h-.031l-.03-.011-.032-.01h-.03l-.031-.011c.347-.299.663-.753.827-1.444.368.082 1.185.082 1.552-.052.368-.144 1.082-.155 1.643.227 0 0-.184.98-1.459 1.32-1.185.323-1.634.24-2.114.076zm.449-1.928l-.163-.114c-.021-.01-.306-.186-.787-.217.409-.319 1.379-1.144 2.062-1.526.756-.422 2.001-1 2.634-1.083 0 0-.592 1.577-1.286 2.217-.715.661-1.214.909-2.46.723zm-1.276-.734l.062-.073.051-.082.051-.083.051-.082.051-.093.05-.093.052-.093.041-.103.04-.103.051-.103.041-.103.041-.114.03-.113.041-.114.031-.124.041-.114c.132-.536.469-1.835.663-2.186.193-.34.898-1.515 2.266-1.887 0 0 .358 1.536-.327 2.773-.601 1.055-1.816 2.168-3.327 2.89zm-7.595 7.199l-.041.031-.031.03-.03.032-.031.02-.03.032-.031.02-.031.032-.03.02-.041.021-.04.032-.011.01-.02.01-.021.012-.02.02-.031.011-.02.01-.02.01-.021.021-.03.011-.02.01-.031.021-.031.011s-.428.846.092 1.856a25.75 25.75 0 011.194 2.64s.286-.042.602-1.64c.214-1.072.49-1.35.766-1.711a2.03 2.03 0 01-.582.196l-.204.051-.102-.206a2.084 2.084 0 01-.245-1c0-.103.011-.196.02-.28-.49.021-.765-.236-.857-.36-.011-.02-.011-.02-.031-.03l-.041.057z" fill="#0055A5"/><path d="M120.667 36.14l.102.103.102.103.112.114.112.123.122.124.112.134.133.144.123.144.133.155.122.155.133.165.133.165.122.175.123.185.133.186.112.185.122.197.112.195.112.196.102.207.091.206.093.217.081.206.071.227.071.216.052.217.051.227.04.227.021.226.01.237v.227l-.01.237s-1.991-.629-2.807-2.103c-.817-1.464-1.317-2.403-1.663-2.733.213.032.438.032.653 0l.184-.03c.51.928 1.501 2.454 2.399 2.98 0 0 .234-1.237-2.409-3.733a1.934 1.934 0 00-.173-.34c.245.092.52.133.837.124m-15.343-19.91v-.02l.01-.02.01-.011.01-.021.021-.01.02-.021.02-.011.031-.02.031-.011.03-.021.041-.01.041-.012.04-.02.051-.01.051-.01.051-.011.052-.011.05-.01.061-.01.062-.011.061-.011.071-.01.061-.01h.071l.072-.012.071-.01h.153l.071-.011h.235c.858 0 1.552.154 1.552.34 0 .175-.694.33-1.552.33-.855.005-1.549-.15-1.549-.324zm-5.277 1.803v-.011l.009-.01v-.01l.01-.012.011-.01.02-.01h.01l.02-.01.021-.012.02-.01h.021l.031-.011.03-.01.02-.012h.041l.031-.01h.03l.041-.01.041-.01h.03l.041-.011h.092l.04-.011h.093l.05-.011h.255c.541 0 1.001.082 1.001.186 0 .103-.46.174-1.001.174-.559.006-1.008-.066-1.008-.17zm7.136-1.083v.072l-.01.012v.02l-.011.011v.02l-.01.011v.011l-.01.01-.01.021-.011.011-.009.01-.011.011-.01.011-.011.011-.009.01-.011.011-.01.011-.01.01h-.01l-.021.01-.01.01h-.01l-.02.011h-.031l-.01.01h-.052a.31.31 0 01-.306-.319c0-.155.143-.3.306-.3a.3.3 0 01.307.294zm-1.971-1.05l-.05-.124-.041-.113-.051-.104-.041-.112-.041-.104-.04-.113-.052-.103-.03-.093-.041-.103-.041-.093-.03-.093-.041-.093-.031-.093-.03-.082-.03-.083-.031-.082-.031-.083-.02-.072-.02-.072-.031-.073-.021-.062-.02-.062-.01-.062-.02-.061-.011-.052-.01-.051-.01-.052-.01-.042-.01-.04v-.105c.01-.186.225-.32.429-.382.214-.062.388-.082.53.02.266.217.521 1.887.602 2.59a2.36 2.36 0 00-.716.247zm.95-.27l.02-.011h.071l.052-.011h.152l.102-.01c-.092-.67-.316-1.774-.449-2.217-.133-.444-.306-.753-.592-.836 0 0 .225.609.347 1.238.123.63.205 1.248.297 1.846zm-1.645 2.228l.062-.011.05-.02.051-.021.051-.02.051-.022.061-.03.051-.021.051-.032.051-.031.041-.03.051-.032.051-.031.041-.031.05-.031.041-.03.041-.042.041-.031.031-.03.041-.032.031-.02.03-.031.031-.03.03-.022.031-.03.021-.02.02-.011.01-.021.02-.02.01-.01h.011v-.011c-.917.135-1.153.754-1.153.754z" fill="#0055A5"/><path d="M105.344 17.797l-.081.041-.072.032-.071.041-.082.031-.072.032-.071.03-.082.02-.071.031-.072.021-.071.01-.071.021-.071.021-.062.01-.071.01-.061.011-.061.011h-.062l-.05.01h-.051l-.051.012h-.327c.173-.32.337-.62.827-.97.5-.361 1.307-.453 1.623-.412-.073.245-.399.76-.767.987zm-.176.422c-.592.279-2.429.31-3.42.361h-.638l-.077-.025h-.102l-.076-.026h-.077l-.077-.026-.077-.025h-.076l-.077-.026h-.077l-.077-.025h-.05l-.077-.026-.051-.026h-.05l-.051-.025-.05-.026h-.077l-.026-.025h-.025l-.052-.026h-.025c.113 2.186 1.583 2.32 1.583 2.32-.021-.174 0-.464 0-.464.459.433 1.404.747 1.404.747-.011-.268-.102-.49-.102-.49.398.237.637.232.637.232-.041-.309-.229-.67-.229-.67.276.361.612.387.612.387.062-.175-.051-.618-.051-.618.143.175.408.639 1.225.825.837.174 1.199-.31 1.199-.31-.796.052-1.556-.721-1.556-.721.429-.165.587-.464.587-.464-.255-.217-.51-.232-.51-.232.468-.22.586-.596.586-.596zm-2.808.825v.077s-1.275.005-1.327.644c-.204-.134-.306-.38-.357-.67.001 0 .91.052 1.684-.051zm-2.803-.629l.01.093.01.083.01.093.01.082.01.093.02.082.021.083.02.082.02.083.021.082.02.072.032.073.02.072.031.073.03.061.031.062s-.581-.433-.724-.814c-.144-.383-.184-.63.408-.455zm-1.712.421c-.253.028-.486.133-.638.36-.297.444-.189 1.29.433 1.65 0 0 .935-.82 2.067-.026 0 0 .25-.149.842-.284v-.025h-.025v-.026l-.025-.025-.026-.026h-.025v-.025l-.025-.026-.026-.025-.025-.026-.025-.026-.026-.025h-.027l-.025-.052h-.025l-.025-.052h-.026l-.025-.026-.051-.025-.025-.026-.025-.025-.051-.026-.025-.026-.026-.025-.051-.026h-.028l-.05-.025-.026-.026c-.347-.154-1.061-.371-1.275-1.03a2.03 2.03 0 00-.69-.055zm.536.876c.133 0 .256.123.256.258v.05h-.026v.052h-.025v.051h-.025v.026h-.026v.025h-.05v.026h-.053l-.026.026h-.025c-.132 0-.23-.124-.23-.259 0-.132.097-.255.23-.255zm2.298.972l.01.01.011.01v.01h.01l.01.022.01.01.02.02.011.032.02.02.021.021.02.031.021.031.031.021.02.031.03.03.021.042.031.03.061.063.051.061.061.073.03.031.031.03.03.032.031.03.031.021.03.032.031.02.03.03s-1.531-.02-1.908 1.32c0 0-.521-.824-.143-1.35.408-.569.796-.65 1.337-.764z" fill="#0055A5"/><path d="M102.354 21.003l.01.01h.021l.009.012h.031l.021.01.02.011h.021l.03.01.02.01h.031l.021.011.031.011.05.01.052.02.061.01.02.011.031.011.02.01h.03l.021.011.02.011h.021l.02.01h.02l.021.012s0-.29-.01-.423c.153.03.327.083.49.103 0 0 .49 1.093.878 1.536 0 0 .02.258-.194.619 0 0-.285-.64-.775-1.176-.277-.292-.461-.447-1.042-.86zm-1.297-.226h.01l.021.011h.03l.02.01.031.01.031.011.04.011.031.01.041.02.041.01.041.011.051.02.041.012.051.02.041.02.05.021.102.042.102.041.103.041.091.041.051.032.051.02.041.021.051.03.04.021.041.02.041.031.03.02c.48.352.807.743.756 1.434 0 0-.379-.546-.807-.794-.335-.186-.948-.722-1.264-1.197zm.01-5.011h.031l.011.01h.05l.021.011h.031l.02.01h.021l.01.011h.02l.02.011.021.011.01.01.02.01.011.011.02.011.01.01.02.011.011.011.01.011.01.02.01.011.011.02.009.01v.022l.011.01v.032l.01.011v.032c0 .237-.368.804-.47 1.052-.102-.248-.459-.814-.459-1.052 0-.237.276-.31.418-.31h.082v-.007zm-.316 1.846l-.01-.04-.01-.031v-.042l-.01-.04-.011-.042-.01-.041-.01-.052v-.042l-.01-.052-.011-.05-.02-.104-.03-.103-.021-.114-.02-.103-.021-.051-.01-.052-.01-.041-.02-.052-.01-.041-.021-.042-.01-.04-.021-.042-.02-.041-.01-.03-.02-.032-.021-.032-.02-.02-.011-.02c-.204-.176-.49-.197-.622-.186a.268.268 0 00-.234.35c.062.196.694 1.155.775 1.268.142-.019.111-.019.479-.04zm.551 0l.01-.04.01-.031v-.042l.01-.04.011-.042.009-.041.011-.052.01-.042.01-.052.01-.05.021-.104.02-.103.02-.114.031-.103.01-.051.011-.052.02-.041.01-.052.021-.041.009-.042.021-.04.01-.042.021-.041.01-.03.02-.032.02-.032.021-.02.01-.02c.205-.176.48-.197.623-.186.143.01.286.155.234.35-.061.196-.694 1.155-.776 1.268-.141-.019-.121-.019-.478-.04zm.408-3.001h-.49v-.546h-.398v.546h-.49v.35h.49v.64h.398v-.64h.49v-.35zm-5.951 3.537v-.154l.01-.041v-.073l.01-.021v-.021c.03-.268.04-.505.01-.69-.358.134-.603.226-1.082 1.02 0 0 .776-.485 1.052-.02zm.674 1.267v-.02l.01-.032v-.073l.01-.03v-.03l.01-.042.011-.03v-.042l.01-.031.01-.041v-.042l.01-.04.01-.053.011-.041.02-.082.021-.094.03-.093.02-.092.032-.094.03-.093.031-.092.01-.041.02-.042c.204-.536.071-1.32-.163-1.783-.224-.464-.358-.897-.317-1.372 0 0-.459.155-.724.32-.041.557.276 1.104.429 1.413.174.372.142.846.102 1.144-.062.507.04 1.043.367 1.548zm.05-4.217v-.03h-.01v-.17l.01-.01v-.054l.01-.01v-.02l.01-.01s.724-.71 1.327-.835c.388-.083.622.093.745.185 0 0-.225-.02-.542.248-.326.258-.724.588-1.041.67-.294.078-.366.057-.509.036zm2.145-.885l.05.051.052.052.051.052.041.052.05.052.041.052.01.02.02.03.021.021.02.03.011.032.02.02.011.032.02.02.01.021.011.032.01.02.01.03.01.021.01.031.01.02v.032l.011.02v.074c-.01.258-.306.917-.47 1.165-.153.247-.377.577-.357.97.01.205.153.412.317.576 0 0-.889-.216-.99-.762-.102-.495.102-.846.245-1.124.132-.258.551-.856.643-1.104.102-.228.143-.414.112-.537zm5.184 6.227l.032.112.04.124.041.113.041.114.041.113.051.114.051.113.051.103.051.103.051.114.051.103.051.093.061.103.051.093.051.093.061.082c.266.422.429 1.124.409 1.361 0 0 .397-.897.193-1.526-.153-.495-.591-1.217-1.378-1.526zm.992.206h.081l.021.01h.112l.031.011h.061l.041.011h.03l.041.011h.031l.041.01.041.01.03.011.041.011h.03l.041.02.031.011.04.01.031.011.031.02.03.011.03.021.031.01c.368.248.715.774.848 1.414 0 0-.623-.103-.919-.413-.306-.303-.674-.767-.826-1.2zm-3.144 1.114h-.062l-.02.01h-.03l-.021.01h-.04l-.021.01-.041.01-.04.011h-.041l-.041.011-.041.01-.041.012-.02.01h-.021l-.02.011h-.02l-.01.01h-.041l-.01.011s.52.155.776.362c.214.185.408.474.5.948.133.67.521 1.392.633 1.609l.051-.01c-.082-.465.204-1.413.286-1.547 0 0-.419-.268-.602-.536-.145-.2-.38-.53-1.063-.953zm2.694 1.431l.02.031.011.032.02.04.021.042.02.032.01.04.021.053.031.041.02.041.02.052.041.093.041.094.011.05.02.053.021.062.009.052.021.052.01.05.01.063.011.052.01.061.01.062v.175l-.01.062v.052l-.01.062-.011.062-.02.061c-.184.65-.592.928-.858 1.475 0 0-.204-.99-.163-1.753.051-.777.326-1.065.663-1.344zm1.174.022v.01l.01.01v.012l.01.01v.01l.01.011.011.01v.02l.009.021.021.03.02.042.021.052.03.052.02.051.031.062.031.052.031.062.02.071.03.062.031.062.041.073.061.144.052.135.03.071.031.062.03.062.021.073.02.061.02.053.021.061.02.052.01.052.021.041c.102.465 0 .764-.205 1.041-.204.28-.551.589-.878 1.166 0 0-.367-.495-.418-.752-.04-.268.031-.887.112-1.145.082-.258.4-1.106.675-1.962zm.306 3.785l-.01.01h-.01v.01l-.01.011-.011.01-.01.021-.031.021-.02.03-.03.032-.031.041-.031.032-.03.04-.031.042-.041.052-.04.041-.031.051-.04.041-.082.104-.071.092-.041.052-.031.052-.041.052-.03.041-.03.051-.031.041-.031.042-.031.041-.03.041-.02.041-.021.031-.01.03-.01.021-.011.01v.012l-.009.01c-.092.258-.256.722-.041 1.052.234.33.724.856 1.163 1.083 0 0-.469-.752-.428-1.372.03-.401.336-.752.397-.99.05-.239.009-.651-.154-1.022zm-1.388-.475l.01.01.011.021.01.011.01.02.021.021.009.021.011.02.01.021.01.032.021.02.01.032.01.02.01.032.01.02.031.062.02.062.021.062.02.062.021.061.02.062v.042l.01.03.01.031v.073l.01.031c.021.35-.03.64-.224 1.165-.235.65-.613 1.382-.787 1.712 0 0-.337-.485-.521-.908 0 0 .521-.721.735-1.226.267-.602.369-1.158.471-1.622zm-.235-.289v.01l-.01.01v.063l-.01.041-.011.042-.01.062-.01.061-.021.073-.01.072-.02.082-.02.094-.031.092-.02.093-.031.103-.03.113-.041.103-.031.113-.041.124-.051.113-.04.124-.051.124-.051.123-.062.124-.061.124-.072.123-.061.124-.082.134-.072.124-.081.113-.082.123-.091.124c-.664.846-1.205 1.145-1.562 1.145-.541 0-1.082-.464-1.266-.98-.183-.515-.122-1.33.225-1.608 0 0 .327 1.01 1.01 1.051.786.042 1.786-.844 2.797-2.556z" fill="#0055A5"/><path d="M103.405 25.633l.009.031v.03l.011.032v.03l.02.062.01.073v.072l.011.072.01.073v.237l-.01.083-.011.082v.083l-.02.082-.01.083-.02.082c-.082.33-.286.763-.663 1.01-.338.207-1.114.26-1.42-.494 0-.002 1.429.112 2.083-1.723zm2.337 6.805l.021.04.02.053.03.052.021.05.031.053.03.052.041.052.03.052.072.103.071.103.082.103.071.103.072.103.04.041.031.052.03.052.031.051.03.042.031.05.021.042.02.052.02.041.021.042.01.04.011.042v.041l.01.032c-.021 1.051-.48 1.69-.582 2.041 0 0-.827-.67-.97-1.432-.081-.396.001-1.571.654-2.148zm-.929.741l.011-.03.01-.032.01-.03.021-.032.01-.04.021-.032.009-.04.021-.042.02-.041.021-.051.02-.042.021-.04.04-.094.052-.092.05-.103.051-.094.031-.041.021-.041.03-.041.031-.042.03-.041.03-.041.031-.041.03-.032.031-.031.031-.03.031-.032.03-.031s.46-1.34-.99-2.166c0 0-.602.795-.755 1.558-.164.753.633 1.206 1 1.887zm-1.816-3.402l-.052.062-.05.052-.041.062-.051.062-.051.051-.051.062-.061.062-.052.052-.05.052-.051.062-.031.02-.03.02-.02.032-.031.02-.021.021-.03.021-.021.02-.03.011-.02.021-.031.02-.021.01-.03.011s-.092.598-.031 1c.072.588.449 1.196.613 1.65 0 0 .632-.846.704-1.34.071-.496.061-.897.081-1.135 0-.002-.347-.579-.541-.98zm-1.684 2.888l-.021-.03-.02-.032-.021-.041-.02-.031-.031-.052-.02-.042-.031-.051-.031-.052-.03-.062-.031-.051-.03-.062-.03-.073-.031-.062-.031-.072-.04-.062-.031-.072-.062-.144-.061-.155-.051-.155-.021-.072-.03-.072-.02-.083-.021-.072-.01-.072-.021-.082-.01-.073-.011-.072v-.072l-.01-.073s.724.392 1.327.103c0 0 .072.97-.041 1.29-.091.27-.214.424-.509.651zm.163.206l.02-.01.011-.01.009-.021.021-.01.01-.011.021-.011.01-.02.021-.011.02-.021.01-.01.041-.042.031-.032.041-.04.041-.032.03-.041.041-.032.02-.02.01-.01.02-.02.021-.021.01-.011.01-.02.021-.011.01-.021.01-.01.011-.021s.479.886.561 1.145c0 0-.235.051-.5-.134a3.306 3.306 0 01-.582-.492zm2.214-.527l-.01.01v.011l-.01.02v.012l-.01.02-.011.01-.01.022-.01.02-.021.041-.02.042-.031.05-.03.042-.031.052-.031.062-.04.052-.031.062-.041.052-.041.062-.082.113-.081.124-.041.052-.041.062-.03.051-.041.052-.041.052-.031.052-.03.041-.041.041-.02.042-.031.03-.01.01-.01.022-.011.01-.009.011-.011.01-.01.011-.01.011-.01.01s.061.392.347.949c.286.567.683.959.898 1.155 0 0 .47-.836.613-1.197.163-.422.142-.845.071-1-.164-.366-.715-.892-.96-1.356zm1.154 2.826l.01.041.02.03.021.042.02.031.03.041.021.042.031.031.02.041.03.042.031.052.062.082.051.092.061.083.062.092.061.093.051.092.021.052.03.041.02.051.021.042.02.04.021.053.01.041.01.051.02.041v.042c.062.35.011.639-.081.886-.102.237-.408.712-.613 1.073 0 0-.704-.67-.857-1.144-.112-.362-.071-.866.102-1.196.163-.32.531-.66.694-1zm-1.991-.092l.021.041.02.042.021.03.02.041.02.042.021.03.05.073.052.082.051.073.061.072.05.072.052.072.05.073.051.071.021.03.02.042.02.031.021.042.02.03.021.03.01.042.021.031.009.032.011.04c.112.403.153.67-.041 1.156-.184.422-.388.67-.46.928 0 0-.571-.743-.673-1.052-.092-.32-.123-.825-.01-1.144.123-.33.327-.753.47-1.052zm2.808 2.846v.01h-.011v.01l-.01.01-.01.011-.01.01-.01.01-.01.02-.01.011-.021.02-.01.021-.021.021-.03.041-.031.052-.041.052-.041.051-.04.062-.041.062-.052.062-.04.073-.051.071-.041.072-.051.073-.04.072-.041.082-.041.072-.041.072-.041.083-.03.072-.031.071-.03.083-.021.072-.031.072-.009.062-.011.072-.01.03v.093c.03.795.551 1.31.622 1.805 0 0 .521-.587.715-.979.214-.453.388-.825.327-1.33-.062-.504-.195-.824-.705-1.33zm-1.807-.125l.01.02.02.032.021.031.02.03.021.031.02.041.02.042.021.04.031.042.02.041.021.051.03.042.02.05.021.053.041.103.02.062.02.052.021.052.02.05.01.063.02.051.011.052.01.051.01.062.01.052v.195l-.01.052-.01.04c-.123.465-.613 1.114-.776 1.403 0 0-.388-.804-.47-1.175-.08-.37-.009-.969.777-1.711zm9.82-19.776v-.011l-.011-.01v-.01l-.01-.012-.01-.01-.01-.01h-.021l-.02-.01-.02-.012-.021-.01h-.02l-.031-.011-.021-.01-.03-.012h-.03l-.041-.01h-.031l-.041-.01-.03-.01h-.041l-.041-.011h-.081l-.051-.011h-.092l-.041-.011h-.255c-.551 0-1 .082-1 .186 0 .103.449.174 1 .174.551.006 1-.066 1-.17zm-6.819-3.103l.01-.042.011-.052.01-.052.01-.052.021-.051.02-.052.021-.062.02-.062.02-.062.021-.062.05-.123.051-.134.051-.134.051-.124.052-.134.02-.062.03-.062.021-.062.01-.062.021-.052.02-.062.01-.052.01-.052.01-.052.01-.05v-.083a.595.595 0 00-.592-.598.595.595 0 00-.592.598c0 .422.52 1.391.581 1.845h.022v.003zm1.654.97l.05-.124.052-.113.04-.104.052-.112.041-.104.041-.113.04-.103.041-.093.041-.103.031-.093.041-.093.03-.093.041-.093.031-.082.03-.083.031-.082.021-.083.031-.072.02-.072.02-.073.021-.062.02-.062.021-.062.01-.061.02-.052.011-.051.009-.052v-.042l.011-.04v-.105c0-.186-.225-.32-.419-.382-.225-.062-.398-.082-.541.02-.266.217-.511 1.887-.613 2.59.266.051.429.092.725.247zm-.939-.27l-.031-.011h-.071l-.052-.011h-.153l-.05-.01h-.041c.082-.67.306-1.774.439-2.217.143-.444.306-.753.592-.836 0 0-.214.609-.336 1.238a32.181 32.181 0 00-.297 1.846zm.48 1.476h.01v.01h.01v.01h.011l.01.021.02.02.02.011.021.02.03.032.021.02.031.03.03.031.041.02.031.032.04.03.041.032.041.041.041.03.051.032.041.03.051.032.041.031.05.03.052.032.05.032.052.02.05.031.051.021.061.02.052.021.05.02.051.012c.001-.002-.234-.62-1.152-.754z" fill="#0055A5"/><path d="M107.58 16.808h.061l.041-.011h.123l.04.01h.102l.051.011h.051l.051.011.051.01h.061l.051.012.061.01.051.02.062.01.061.012.051.02.062.02.061.011.051.021.062.02.061.021.05.03.051.021.061.032.052.03.05.02.041.042.051.03c.5.351.664.65.837.97 0 0-.898.072-1.684-.392-.377-.228-.704-.744-.775-.991zm.957 1.411s.102.376.561.593c0 0-.25.015-.485.232 0 0 .152.298.561.463 0 0-.751.774-1.557.722 0 0 .373.485 1.2.31.827-.186 1.072-.65 1.225-.826 0 0-.102.443-.052.619 0 0 .352-.026.638-.387 0 0-.214.36-.256.67 0 0 .23.005.638-.232 0 0-.091.222-.102.49 0 0 .96-.314 1.429-.747v.333l-.025.026v.102s1.47-.134 1.582-2.32c0 0-.965.36-1.965.309-.978-.048-2.811-.08-3.392-.357zm2.781.825c.776.103 1.71.052 1.71.052v.05h-.025v.053l-.025.052v.052l-.026.025v.052l-.025.026v.05h-.025v.026l-.026.025v.026l-.025.025-.025.026v.026h-.026l-.025.025v.026h-.028l-.025.025v.026h-.025l-.026.025-.025.026c-.051-.64-1.327-.644-1.327-.644v-.075h-.001zm2.825-.629l-.01.093-.01.083-.011.093-.01.082-.02.093-.011.082-.02.083-.021.082-.02.083-.02.082-.031.072-.02.073-.03.072-.021.073-.031.061-.03.062s.582-.433.725-.814c.142-.383.173-.63-.409-.455zm1.234.421l-.052.026h-.051l-.051.025h-.051c-.214.66-.944.877-1.301 1.031-.378.186-.74.619-.74.619.592.134.868.284.868.284a1.676 1.676 0 012.067.025c.612-.361.74-1.207.433-1.65l-.05-.052-.026-.05-.025-.026-.051-.026-.026-.025-.05-.026-.026-.026-.05-.025-.051-.026-.025-.025h-.051l-.05-.026h-.052l-.025-.026h-.564v-.001zm-.077.876h.076v.026h.05v.025h.026l.025.026v.025h.025v.026h.026v.102l.025.026a.268.268 0 01-.256.258c-.132 0-.229-.124-.229-.258.002-.132.1-.256.232-.256zm-2.28.972h-.01v.01H113v.01l-.011.01-.009.022-.021.01-.01.02-.02.032-.021.02-.01.021-.03.031-.021.031-.02.021-.031.031-.021.03-.03.042-.02.03-.061.063-.062.061-.05.073-.031.031-.031.03-.031.032-.03.03-.03.021-.031.032-.03.02-.031.03s1.521-.02 1.909 1.32c0 0 .521-.824.143-1.35-.409-.569-.797-.65-1.339-.764z" fill="#0055A5"/><path d="M111.346 21.003h-.01v.01h-.031v.012h-.041l-.009.01-.021.011h-.031l-.02.01-.021.01h-.031l-.02.011-.03.011-.052.01-.061.02-.051.01-.03.011-.02.011-.031.01h-.021l-.03.011-.02.011h-.021l-.02.01h-.021l-.01.012s-.01-.29.01-.423c-.152.03-.337.083-.5.103 0 0-.48 1.093-.868 1.536 0 0-.02.258.194.619 0 0 .276-.64.776-1.176.276-.292.46-.447 1.041-.86zm1.297-.226h-.021l-.02.011h-.021l-.03.01-.031.01-.03.011-.031.011-.041.01-.041.02-.041.01-.04.011-.041.02-.052.012-.041.02-.051.02-.051.021-.102.042-.102.041-.091.041-.102.041-.051.032-.041.02-.051.021-.041.03-.041.021-.041.02-.041.031-.031.02c-.479.352-.806.743-.765 1.434 0 0 .388-.546.817-.794.336-.186.949-.722 1.266-1.197zm-.01-5.011h-.031l-.01.01h-.051l-.021.011h-.03l-.02.01h-.021l-.01.011h-.02l-.021.011-.02.011-.011.01-.02.01-.01.011-.02.011-.011.01-.02.011-.01.011-.011.011-.009.02-.011.011-.01.02-.01.01v.022l-.01.01v.032l-.011.011v.032c0 .237.368.804.47 1.052.102-.248.459-.814.459-1.052 0-.237-.276-.31-.429-.31h-.071v-.007zm.316 1.846l.01-.04v-.031l.01-.042.01-.04v-.042l.01-.041.011-.052.01-.042.01-.052.01-.05.02-.104.021-.103.02-.114.031-.103.01-.051.021-.052.01-.041.01-.052.02-.041.011-.042.02-.04.021-.042.01-.041.021-.03.02-.032.01-.032.02-.02.021-.02c.193-.176.48-.197.623-.186.143.01.286.155.234.35-.061.196-.694 1.155-.775 1.268-.143-.019-.123-.019-.48-.04zm-.562 0v-.04l-.009-.031-.011-.042-.01-.04v-.042l-.011-.041-.009-.052-.011-.042-.01-.052-.01-.05-.021-.104-.02-.103-.03-.114-.021-.103-.02-.051-.01-.052-.011-.041-.02-.052-.01-.041-.02-.042-.011-.04-.02-.042-.021-.041-.01-.03-.02-.032-.02-.032-.011-.02-.02-.02c-.194-.176-.47-.197-.623-.186a.268.268 0 00-.224.35c.05.196.683 1.155.776 1.268.142-.019.111-.019.468-.04zm-.397-3.001h.48v-.546h.408v.546h.49v.35h-.49v.64h-.408v-.64h-.48v-.35zm-5.911-3.248h.501v-.547h.388v.546h.499v.351h-.499v.64h-.388v-.64h-.501v-.35zm11.861 6.785v-.072l-.01-.04v-.125l-.01-.011v-.062a2.316 2.316 0 01-.021-.69c.358.134.603.226 1.082 1.02 0 0-.775-.485-1.041-.02z" fill="#0055A5"/><path d="M117.267 19.415l-.01-.02v-.074l-.01-.032v-.03l-.011-.03v-.042l-.009-.03v-.042l-.011-.031-.01-.041-.01-.042-.01-.04-.011-.053-.01-.041-.02-.082-.021-.094-.02-.093-.031-.092-.02-.094-.031-.093-.03-.092-.01-.041-.021-.042c-.193-.536-.082-1.32.153-1.783.234-.464.367-.897.317-1.372 0 0 .469.155.724.32.041.557-.276 1.104-.418 1.413-.184.372-.154.846-.102 1.144a2.31 2.31 0 01-.368 1.548zm-.051-4.217v-.208l-.01-.012v-.052l-.01-.01v-.022s-.735-.71-1.338-.835a.792.792 0 00-.724.185s.204-.02.531.248c.326.258.724.588 1.031.67.305.078.367.057.52.036zm-2.154-.885l-.051.051-.051.052-.041.052-.05.052-.041.052-.041.052-.02.02-.021.03-.02.021-.011.03-.02.032-.021.02-.01.032-.01.02-.02.021-.011.032-.01.02-.011.03-.009.021v.031l-.011.02-.01.032v.093c0 .258.306.917.459 1.165.154.247.399.577.368.97-.021.205-.153.412-.317.576 0 0 .888-.216.99-.762.102-.495-.112-.846-.256-1.124-.132-.258-.541-.856-.643-1.104-.09-.228-.141-.414-.111-.537zm-5.175 6.227l-.041.112-.041.124-.031.113-.05.114-.041.113-.041.114-.051.113-.051.103-.051.103-.051.114-.051.103-.061.093-.051.103-.051.093-.061.093-.051.082c-.276.422-.449 1.124-.408 1.361 0 0-.409-.897-.204-1.526.162-.495.591-1.217 1.387-1.526zm-1 .206h-.072l-.02.01h-.112l-.031.011h-.071l-.031.011h-.04l-.031.011h-.041l-.03.01-.041.01-.041.011-.03.011h-.041l-.041.02-.031.011-.03.01-.041.011-.03.02-.031.011-.031.021-.031.01c-.357.248-.714.774-.837 1.414 0 0 .613-.103.919-.413.295-.303.673-.767.816-1.2zm3.153 1.114h.071l.011.01h.03l.021.01h.04l.021.01h.02l.021.01.04.011h.041l.041.011.041.01.041.012.02.01h.021l.02.011h.02l.011.01h.03l.021.011s-.52.155-.787.362c-.214.185-.408.474-.49.948-.132.67-.52 1.392-.642 1.609l-.041-.01c.071-.465-.214-1.413-.286-1.547 0 0 .408-.268.602-.536.134-.2.379-.53 1.062-.953zm-2.694 1.431l-.021.031-.009.032-.021.04-.02.042-.021.032-.02.04-.02.053-.021.041-.02.041-.021.052-.041.093-.04.094-.021.05-.02.053-.021.062-.009.052-.021.052-.01.05-.01.063-.011.052-.01.061-.01.062v.289l.01.062.021.062.01.061c.193.65.612.928.877 1.475 0 0 .205-.99.153-1.753-.041-.777-.316-1.065-.653-1.344zm-2.491 1.805v-.03l.01-.042.021-.041.009-.052.031-.041.02-.053.031-.052.03-.051.031-.062.031-.051.04-.062.041-.062.041-.062.03-.062.082-.124.082-.123.04-.062.041-.073.031-.062.04-.061.031-.062.031-.062.03-.062.02-.051.021-.062.02-.052.011-.062.009-.051v-.093c-.05-.495-.694-.846-.857-.918h-.01c-.163.072-.816.423-.857.918-.041.495.827 1.412.847 1.783h.022v.002zm1.318-1.783l-.01.01v.022l-.011.01-.01.01v.011l-.01.01-.01.02-.011.021-.009.03-.021.042-.031.052-.02.052-.031.051-.02.062-.031.052-.03.062-.031.071-.03.062-.031.062-.031.073-.061.144-.061.135-.03.071-.021.062-.03.062-.02.073-.032.061-.02.053-.02.061-.01.052-.021.052-.01.041c-.102.465-.01.764.194 1.041.214.28.561.589.878 1.166 0 0 .377-.495.418-.752.041-.268-.02-.887-.112-1.145-.072-.26-.389-1.106-.664-1.962zm-1.318 4.587l.05-.052.052-.052.051-.051.04-.052.052-.052.041-.052.05-.052.041-.062.03-.051.041-.052.011-.03.02-.021.021-.032.009-.02.01-.03.021-.021.009-.02.01-.032.011-.02.01-.021.01-.021.01-.02c.072-.218.092-.527-.091-.764-.214-.279-.49-.598-.511-.855h-.02c-.01.258-.286.577-.511.855-.183.237-.163.546-.081.763.081.207.326.568.602.814h.012v.003zm1.011-.802l.01.01.01.01.01.011.011.01.01.021.02.021.021.03.03.032.031.041.03.032.031.04.041.042.03.052.041.041.041.051.03.041.082.104.071.092.041.052.041.052.031.052.03.041.041.051.031.041.03.042.021.041.03.041.021.041.02.031.02.03.011.021v.01l.01.012v.01c.102.258.255.722.041 1.052-.214.33-.725.856-1.164 1.083 0 0 .48-.752.429-1.372-.031-.401-.327-.752-.388-.99-.061-.239-.02-.651.154-1.022zm1.378-.475l-.01.01-.011.021-.01.011-.01.02-.01.021-.02.021-.011.02-.01.021-.01.032-.01.02-.021.032-.009.02-.011.032-.01.02-.031.062-.02.062-.021.062-.02.062-.021.061-.02.062-.01.042v.03l-.01.031v.032l-.01.041v.031c-.021.35.041.64.234 1.165.235.65.602 1.382.787 1.712 0 0 .326-.485.51-.908 0 0-.521-.721-.745-1.226-.256-.602-.358-1.158-.46-1.622zm.244-.289v.02l.01.032v.031l.011.041.009.042.011.062.01.061.011.073.02.072.02.082.021.094.02.092.03.093.031.103.031.113.03.103.041.113.041.124.04.113.051.124.051.124.051.123.061.124.062.124.061.123.071.124.072.134.081.124.082.113.082.123.091.124c.664.846 1.205 1.145 1.562 1.145.541 0 1.082-.464 1.266-.98.174-.515.123-1.33-.224-1.608 0 0-.327 1.01-1.021 1.051-.774.042-1.785-.844-2.786-2.556z" fill="#0055A5"/><path d="M110.295 25.633l-.01.031-.01.03v.032l-.011.03-.009.032v.031l-.011.073-.01.072-.01.072v.393l.01.082.01.083.011.082.02.083.02.082c.082.33.277.763.664 1.01.326.207 1.112.259 1.408-.494 0-.003-1.429.111-2.072-1.724zm-3.45 5.01l.041-.02.03-.021.041-.01.031-.021.04-.021.031-.02.021-.012.02-.02.021-.01.01-.012.021-.02.02-.01.02-.022.021-.01.02-.02.021-.021.01-.021.02-.02.02-.021.021-.03.02-.021.021-.032.02-.02.02-.031.021-.031.03-.042c.173-.278.347-.793.255-1.164-.123-.454-.377-.64-.52-.928-.112.113-.184.195-.338.288h-.009c-.143-.092-.225-.174-.347-.288-.153.288-.388.474-.511.928-.091.37.072.886.256 1.164.224.374.398.436.602.54zm0 2.835l.01-.041.021-.042.02-.052.02-.052.031-.052.031-.052.03-.05.041-.053.041-.062.04-.061.041-.053.041-.061.082-.124.091-.124.082-.123.041-.062.04-.062.041-.062.031-.052.031-.062.03-.062.03-.05.02-.063.021-.052.02-.052.011-.05v-.135c-.132-.711-.582-.568-.929-.857h-.01c-.347.29-.807.145-.93.857-.089.457.829 1.323.931 1.766zm1.103-1.04l-.01.04-.03.053-.021.052-.03.05-.03.053-.031.052-.03.052-.031.052-.071.103-.082.103-.071.103-.082.103-.071.103-.031.041-.041.052-.03.052-.031.051-.03.042-.021.05-.03.042-.02.052-.021.041-.01.042-.01.04-.011.042-.01.041v.032c.021 1.051.47 1.69.572 2.041 0 0 .837-.67.98-1.432.079-.396-.013-1.571-.666-2.148zm.939.741l-.011-.03-.01-.032-.01-.03-.021-.032-.009-.04-.021-.032-.011-.04-.02-.042-.02-.041-.021-.051-.02-.042-.021-.04-.04-.094-.051-.092-.051-.103-.051-.094-.03-.041-.031-.041-.031-.041-.03-.042-.031-.041-.03-.041-.031-.041-.03-.032-.031-.031-.031-.03-.03-.032-.041-.031s-.449-1.34 1.001-2.166c0 0 .602.795.766 1.558.161.753-.635 1.206-1.002 1.887zm1.816-3.402l.041.062.051.052.051.062.051.062.051.051.051.062.051.062.051.052.061.052.051.062.02.02.031.02.031.032.02.02.03.021.021.021.031.02.02.011.03.021.021.02.03.01.02.011s.093.598.041 1c-.071.588-.459 1.196-.612 1.65 0 0-.643-.846-.704-1.34-.082-.496-.071-.897-.092-1.135.001-.002.358-.579.552-.98zm1.674 2.888l.021-.03.02-.032.021-.041.03-.031.02-.052.031-.042.031-.051.02-.052.03-.062.031-.051.03-.062.041-.073.031-.062.031-.072.03-.062.031-.072.061-.144.061-.155.051-.155.03-.072.021-.072.02-.083.02-.072.021-.072.01-.082.01-.073.011-.072v-.145s-.715.392-1.307.103c0 0-.081.97.031 1.29.093.27.226.424.511.651zm-.163.206l-.011-.01-.009-.01-.021-.021-.01-.01-.02-.011-.011-.011-.02-.02-.01-.011-.02-.021-.021-.01-.01-.021-.021-.021-.041-.032-.04-.04-.031-.032-.04-.041-.031-.032-.02-.02-.021-.01-.01-.02-.021-.021-.02-.011-.01-.02-.01-.011-.021-.021-.01-.01-.01-.021s-.47.886-.551 1.145c0 0 .234.051.49-.134a3.1 3.1 0 00.581-.492zm-2.204-.527l.011.01v.011l.009.02v.012l.011.02.01.01v.022l.01.02.021.041.03.042.02.05.032.042.03.052.041.062.03.052.041.062.04.052.031.062.082.113.082.124.041.052.04.062.041.051.03.052.041.052.031.052.041.041.03.041.031.042.021.03.01.01.02.022.011.01.009.011.01.01v.011l.011.011.01.01s-.062.392-.337.949a4.275 4.275 0 01-.898 1.155s-.47-.836-.613-1.197c-.163-.422-.153-.845-.071-1 .153-.366.704-.892.96-1.356zm-3.155 6.404l.01-.032.011-.03.01-.03.01-.032.021-.02.009-.031.021-.032.02-.031.021-.03.02-.032.031-.041.021-.031.05-.062.051-.073.051-.072.062-.072.05-.082.051-.083.031-.04.02-.042.03-.041.021-.041.02-.042.021-.05.02-.042.021-.051c.102-.299.102-.66-.021-.908-.132-.278-.633-.98-.694-1.175-.061.196-.551.897-.694 1.175-.123.248-.123.608-.011.908.184.515.623.866.694 1.165h.022zm1.991-3.576l-.011.041-.02.03-.021.042-.02.031-.021.041-.03.042-.02.031-.031.041-.03.042-.031.052-.051.082-.061.092-.062.083-.061.092-.051.093-.051.092-.031.052-.02.041-.021.051-.03.042-.01.04-.02.053-.021.041-.01.051-.01.041-.011.042c-.061.35 0 .639.082.887.102.236.408.71.612 1.072 0 0 .704-.67.858-1.144.112-.362.082-.867-.092-1.196-.174-.32-.541-.66-.704-1zm2-.094l-.02.041-.02.042-.021.03-.02.041-.021.042-.02.03-.051.073-.051.082-.061.073-.051.072-.061.072-.051.072-.051.073-.051.071-.02.03-.021.042-.02.031-.021.042-.02.03-.021.03-.009.042-.011.031-.02.032-.01.04c-.113.403-.143.67.05 1.156.174.422.388.67.46.928 0 0 .572-.743.663-1.052.102-.32.133-.825.01-1.144-.113-.33-.317-.753-.46-1.052zm-4.001 9.392l.01-.042.009-.041.011-.042.02-.05.021-.052.02-.052.021-.062.03-.072.031-.061.03-.073.031-.072.03-.082.041-.083.03-.082.041-.083.031-.092.041-.083.041-.092.03-.103.031-.092.041-.103.031-.104.03-.103.031-.103.03-.103.021-.103.02-.114.021-.103.02-.114.011-.113.01-.103v-.113c.03-.598-.511-1.547-.807-1.897h-.021c-.296.35-.816 1.299-.806 1.897.042 1.184.787 2.318.818 2.69zm1.193-6.546v.01h.01v.01l.011.01.01.011.01.01.01.01.011.02.009.011.021.02.01.021.01.021.041.041.03.052.041.052.041.051.041.062.041.062.05.062.041.073.041.071.051.072.041.073.051.072.041.082.041.072.04.072.031.083.04.072.031.071.031.083.02.072.02.072.021.062.01.072v.123c-.021.795-.541 1.31-.623 1.805 0 0-.51-.587-.704-.979-.224-.453-.398-.825-.326-1.33.052-.504.185-.824.705-1.33zm1.808-.125l-.02.02-.011.032-.02.031-.02.03-.021.031-.02.041-.021.042-.03.04-.02.042-.021.041-.02.051-.03.042-.021.05-.02.053-.052.103-.02.062-.02.052-.021.052-.01.05-.02.063-.01.051-.02.052-.011.051-.01.062v.052l-.01.051v.092l.01.052v.052l.021.04c.112.465.602 1.114.765 1.403 0 0 .388-.804.479-1.175.082-.37.01-.969-.776-1.711z" fill="#0055A5"/><path d="M107.519 46.39l.01-.083.01-.083.011-.082.01-.083.02-.082.011-.073.02-.072.02-.072.032-.073.02-.072.02-.061.031-.072.031-.062.02-.062.061-.124.051-.114.061-.112.051-.104.051-.103.021-.052.02-.052.02-.05.021-.052.02-.041.01-.051.01-.041.011-.042c.102-.536.071-1.042-.348-1.66a15.8 15.8 0 01-.97 2.557c-.01.02-.02.03-.03.051 0-.02-.011-.031-.02-.051a14.806 14.806 0 01-.98-2.557c-.409.618-.449 1.123-.347 1.66.092.474.612 1.041.673 1.97.062.938-.98 1.288-.98 1.288.358.124.756.186 1.389-.422.112-.114.204-.227.265-.361.071.133.163.247.265.361.643.608 1.042.546 1.389.422 0 0-1.032-.35-.98-1.289zm-3.278-6.199l.011.031.02.041.01.032.011.04.02.042.02.041.01.041.021.042.03.082.041.083.041.093.031.082.04.094.021.04.01.042.02.03.02.042.01.041.011.031.02.042.01.031.011.03.009.021.011.03.01.021v.032l.011.01c.081.37-.032.824-.695 1.299 0 0-.428-.31-.601-.711-.164-.372-.062-.64.102-.825.163-.207.561-.651.714-.95zm1.409 1.383v.072l-.009.042v.073l-.011.05v.042l-.01.051-.01.052-.01.062-.01.062-.011.062-.009.062-.011.061-.01.062-.031.134-.03.134-.041.144-.02.062-.011.062-.03.071-.021.062-.02.062-.02.062-.031.062-.02.051-.031.052-.02.051c-.419.733-1.031 1.29-1.572 1.29-.49 0-.593-.3-.847-.423 0 0 .122-.64.683-.804.684-.216 1.735-1.041 2.163-1.825z" fill="#0055A5"/><path d="M103.865 42.915l-.02-.02-.021-.01-.041-.032-.02-.02-.021-.011-.031-.021-.02-.01-.02-.02-.021-.021-.01-.01-.01-.01-.01-.012-.011-.01-.02-.01-.011-.01-.01-.01-.01-.01-.01-.021-.02-.011-.011-.01-.01-.02s-.521.195-.97.494c-.429.3-.857.805-1.082 1.063 0 0 .643.165 1.062-.02 0 0 .152-.63.612-.908.113-.063.43-.166.736-.32zm-.552-.535l-.01-.01-.01-.021-.011-.011-.01-.02-.01-.021-.01-.02-.011-.022-.009-.02-.011-.02-.02-.021-.01-.032-.011-.02-.01-.021-.01-.03-.01-.031-.011-.02-.02-.031-.01-.032v-.03l-.01-.031-.01-.03-.01-.032-.011-.041v-.031l-.01-.03v-.083l-.01-.031v-.082l.01-.042v-.041s-.918.588-1.194.804c-.276.227-.847.825-.98 1.021 0 0 .694-.155 1.235-.33.582-.197.98-.465 1.194-.589zm-1.551.999l-.041.02-.051.01-.062.021-.05.02-.061.011-.062.021-.071.01-.061.02-.071.021-.072.01-.143.031-.143.042-.152.031-.143.03-.153.031-.143.031-.061.01-.071.02-.062.01-.071.021-.06.011-.052.01-.062.02-.05.011-.05.011-.042.02c-.47.145-.806.372-1.245.867 0 0 .674.185 1.041.31 0 0 .582-.403 1.215-.64.416-.164.61-.608 1.049-1.041zm-1.032 3.31l.021-.02.02-.021.021-.03.02-.022.011-.01.009-.02.01-.012.011-.01v-.02l.01-.012.01-.02.01-.01v-.02l.011-.01v-.041l.01-.01v-.125l-.01-.02v-.02l-.011-.032v-.02l-.01-.032c-.072-.196-.48-.423-.724-.536-.399-.196-1.5-.495-1.858-.608 0 0-.184.216-.275.444-.052.092.01.174.163.195.317.062 1.052-.082 1.235.041.194.124.123.299.123.465 0 0 .337-.206.551-.154.295.06.479.205.642.69zm-.98-1.549h.02l.01.011h.01l.021.01h.02l.021.01.02.011h.02l.021.01.03.01.021.01.031.011.03.011.031.01.03.02.031.011.031.01.041.02.03.011.041.021.03.02.041.011.04.021.031.02.041.021.041.02.041.021.03.021.041.03.041.021.041.02s.183-.07.276-.247c.091-.165.469-.732.816-.804 0 0-.296-.02-.469-.082 0 0-.347.092-.613.206a4.509 4.509 0 00-.938.505zm2.848-.71h-.01l-.021.01-.01.01h-.021l-.01.011h-.02l-.011.01h-.02l-.01.01h-.031l-.01.01h-.031l-.009.011h-.052l-.02.01h-.062l-.02.01h-.072s-.969.68-1.082 1.351c-.102.588.204.866.347.939.153.082.827.35 1.266-.557 0 0-.745.248-.96-.113-.193-.371.133-.907.338-1.052.276-.206.755-.35 1.051-.288 0-.001-.244-.228-.52-.372z" fill="#0055A5"/><path d="M96.238 52.213l.041-.186.05-.185.052-.196.02-.092.03-.093.031-.093.031-.103.031-.092.03-.093.041-.092.03-.093.041-.093.041-.093c.439-.939 1.521-3.444 3.766-3.877.204-.05-.245-.577-.449-.547-.204.021-.602.29-.776.403 0 0 0-.536-.01-.629 0-.092-.082-.133-.173-.133-.082.01-.633 0-.797.206-.52.598-1.378 2.207-1.868 3.403-.49 1.196-.827 1.567-1.348 1.381-.51-.185-.816-.783-1.724-.598-.306.062-.654.279-.93.588.082.145.174.33.593.33.418 0 1.234.175 1.674.485.451.316.92.43 1.573.492zm8.963-7.753l.011.073.01.071.02.073.02.072.021.072.031.072.02.062.03.073.031.072.031.072.03.073.041.061.031.072.041.073.03.072.041.071s-.674 3.186-3.154 3.423c0 0 .05-.66.776-1.154.735-.506 1.837-1.29 1.755-2.475 0 0-.204.041-.551.485-.347.444-1.123 1.732-2.307 1.742 0 0 .173-.608.704-.948.521-.351 1.195-.794 1.501-1.33.306-.526.623-.773.837-.876zm-1.174 11.61l1.511 2.134 1.143-2.051-.408-.743c-.296.546-.623 1.125-.796 1.454-.132-.206-.511-.742-1.01-1.454l-.44.66z" fill="#0055A5"/><path d="M103.65 54.267l-.275-.392-.286-.402-.286-.402-.286-.402-.286-.403-.276-.392-.132-.185-.133-.186-.132-.185-.123-.175-.122-.176-.113-.165-.112-.165-.113-.154-.102-.144-.102-.135-.091-.134-.082-.113-.082-.113-.071-.104-.062-.093-.05-.082-.052-.062-.041-.062-.03-.041-.02-.03.571-.413-1.796-.691.03 1.97.612-.444 3.614 5.134.429-.66zM91.278 42.624l.04-.04.052-.042.04-.03.052-.031.05-.02.051-.021.05-.011.052-.01.052-.01h.06l.052.01h.062l.06.02.062.01.061.02.062.02.06.032.073.03.06.032.073.031.061.042.072.04.07.052.062.041.072.051.071.052.071.061.072.052.071.061.061.062.071.062.071.062c.756.701 1.235 1.423.797 1.918-.409.444-1.205.062-1.95-.64-.765-.7-1.234-1.422-.796-1.906z" fill="#0055A5"/><path d="M92.502 51.286l-.01-.01-.01-.01-.01-.01h-.01v-.01h-.01v-.011h-.01v-.011h-.01c-.399-.36-.633-.907-.633-1.505 0-1.155.928-2.093 2.062-2.093 1.143 0 2.072.938 2.072 2.093 0 .155-.03.402-.03.402.09-.175.438-.97.5-1.114a2.639 2.639 0 00-2.542-1.949c-1.042 0-1.93.609-2.369 1.496.164-1.052.684-2 1.051-2.351.44-.422 1.194-.557 1.194-.557-.5.073-1.132-.227-1.868-.897-.684-.639-1.03-1.196-1.062-1.66.041.66.03 1.021-.153 1.568-.255.722-.939 2.062-.694 3.578.133.836.725 2.073 1.736 3.083.204.227.285.567.317.742 0 0 1.47 0 1.827.03 0 0 .347-.03.327-.257 0-.217-.194-.268-.357-.268-.185-.001-.92.01-1.308-.28zm8.147.505l-.173.062-.184.062-.173.052-.173.052-.184.05-.174.052-.173.041-.173.041-.184.042-.173.031-.173.03-.173.031-.338.062-.346.052a8.632 8.632 0 01-1.695.103c.01.092.01.206-.04.299 0 0 .101.123.101.278a8.95 8.95 0 001.725-.112c.98-.156 2.011-.351 3.042-.743l-.339-.485zm1.551-.071l.234-.134.234-.144.235-.155.234-.165.225-.174.234-.186.225-.196.234-.206.225-.216.214-.237.224-.236.214-.258.225-.28.214-.278.204-.3.112-.154.102-.165.193-.33c-.296.134-.683.041-.683.041-.021.031-.071.113-.102.145-1.021 1.537-2.164 2.516-3.339 3.155l.342.474zm-8.289.536h-.101l-.032-.01h-.336l-.071.01h-.082l-.072.01h-.082l-.07.011h-.072l-.042.01h-.03l-.032.01h-.03c-.367.051-.776.134-.827.33-.03.196.091.402.276.69.122.175.388.083.53.021.154-.062 1.012-.515 1.144-.67.132-.144.184-.36-.072-.412zm.869.578l-.011-.01-.01-.011h-.01l-.01-.01h-.01l-.011-.01-.01-.01h-.02l-.011-.011h-.02l-.011-.01h-.02l-.01-.01h-.041l-.01-.01h-.041l-.02-.011h-.144l-.02.01h-.021l-.02.01h-.021l-.02.01h-.02c-.235.093-1.072.599-1.133.826-.052.237.06.361.193.412.132.051.286.103.408.113.205.01.409-.113.521-.247.102-.134.49-.608.552-.722.05-.093.091-.258 0-.31zm.102.515l-.01.01-.01.021-.02.011-.01.02-.02.021-.02.02-.01.021-.021.021-.02.02-.021.031-.02.02-.02.022-.031.05-.04.053-.021.02-.02.032-.021.02-.02.02-.011.021-.02.021-.021.02-.01.021-.021.02-.01.022-.011.01-.01.02-.01.012v.01h-.01v.01l-.011.01c-.04.062.02.175.122.155.113-.01.684-.072 1.021-.298.327-.227.551-.66.327-.825-.235-.168-.582-.085-.97.338zm.184-1.269h-.022l-.02-.01h-.031l-.02-.01h-.021l-.02-.01h-.041l-.03-.01h-.021l-.02-.01h-.082l-.02-.01h-.141l-.021.01h-.02l-.02.01h-.021v.01h-.02l-.011.01-.01.01h-.01v.01h-.01v.01c-.123.186-.041.372.306.537.337.165.969.3 1.092.123.121-.175-.042-.473-.766-.67zm14.382-11.889l-.011.031-.02.041-.01.032-.01.04-.02.042-.011.041-.02.041-.021.042-.03.082-.041.083-.031.093-.041.082-.04.094-.021.04-.011.042-.02.03-.02.042-.01.041-.021.031-.01.042-.01.031-.011.03-.009.021-.011.03-.01.021-.01.032v.01c-.071.37.031.824.694 1.299 0 0 .439-.31.602-.711.163-.372.061-.64-.092-.825-.173-.207-.561-.651-.724-.95zm-1.409 1.383l.01.02v.125l.01.042v.05l.01.042.011.051v.052l.01.062.01.062.01.062.011.062.02.061.011.062.03.134.031.134.03.144.021.062.02.062.02.071.021.062.031.062.02.062.021.062.031.051.03.052.02.051c.419.733 1.021 1.29 1.572 1.29.49 0 .603-.3.837-.423 0 0-.122-.64-.684-.804-.683-.216-1.735-1.041-2.164-1.825z" fill="#0055A5"/><path d="M109.826 42.915l.03-.02.021-.01.041-.032.02-.02.02-.011.021-.021.02-.01.021-.02.02-.021.01-.01.011-.01.009-.012.021-.01.01-.01.01-.01.011-.01.01-.01.01-.021.021-.011.009-.01.01-.02s.531.195.97.494c.429.3.858.805 1.092 1.063 0 0-.653.165-1.071-.02 0 0-.153-.63-.613-.908-.101-.063-.428-.166-.734-.32zm.551-.535l.01-.01.01-.021.01-.011.011-.02.01-.021.009-.02.011-.022.02-.02.01-.02.011-.021.01-.032.01-.02.021-.021.009-.03.011-.031.01-.02.01-.031.01-.032.011-.03.01-.031.01-.03.01-.032v-.041l.011-.031v-.03l.01-.042v-.072l.01-.042v-.04l-.01-.042v-.041s.918.588 1.193.804c.266.227.848.825.971 1.021 0 0-.695-.155-1.225-.33-.582-.197-.99-.465-1.204-.589zm1.552.999l.05.02.051.01.051.021.062.02.061.011.061.021.061.01.072.02.062.021.071.01.143.031.153.042.143.031.153.03.143.031.143.031.071.01.072.02.061.01.062.021.061.011.061.01.052.02.05.011.051.011.051.02c.459.145.797.372 1.246.867 0 0-.685.185-1.042.31 0 0-.581-.403-1.224-.64-.419-.164-.614-.608-1.052-1.041zm1.03 3.31l-.02-.02-.021-.021-.02-.03-.02-.022-.01-.01-.011-.02-.01-.012-.01-.01v-.02l-.01-.012-.011-.02-.009-.01v-.02l-.011-.01v-.041l-.01-.01v-.125l.01-.02v-.02l.011-.032.009-.02v-.032c.082-.196.481-.423.725-.536.408-.196 1.51-.495 1.868-.608 0 0 .173.216.276.444.031.092-.02.174-.173.195-.306.062-1.052-.082-1.225.041-.193.124-.132.299-.132.465 0 0-.337-.206-.551-.154-.298.06-.471.205-.645.69zm.99-1.549h-.019l-.011.011h-.02l-.01.01h-.021l-.02.01-.02.011h-.021l-.031.01-.02.01-.031.01-.02.011-.03.011-.031.01-.03.02-.041.011-.031.01-.031.02-.04.011-.031.021-.04.02-.031.011-.041.021-.041.02-.041.021-.03.02-.041.021-.041.021-.041.03-.04.021-.041.02s-.184-.07-.276-.247c-.092-.165-.47-.732-.806-.804 0 0 .286-.02.459-.082 0 0 .357.092.612.206.254.092.57.257.948.505zm-2.847-.71h.01l.01.01h.01l.011.01h.01l.01.011h.021l.009.01h.021l.01.01h.031l.009.01h.031l.021.011h.041l.02.01h.061l.021.01h.072s.98.68 1.091 1.351c.092.588-.204.866-.357.939-.143.082-.817.35-1.266-.557 0 0 .745.248.96-.113.204-.371-.123-.907-.338-1.052-.265-.206-.755-.35-1.041-.288.002-.001.236-.228.522-.372z" fill="#0055A5"/><path d="M117.461 52.213l-.051-.186-.041-.185-.051-.196-.03-.092-.031-.093-.02-.093-.031-.103-.031-.092-.04-.093-.031-.092-.04-.093-.041-.093-.041-.093c-.429-.939-1.511-3.444-3.757-3.877-.214-.05.236-.577.44-.547.204.021.602.29.786.403v-.629c.01-.092.092-.133.173-.133.092.01.633 0 .807.206.51.598 1.379 2.207 1.858 3.403.5 1.196.837 1.567 1.347 1.381.511-.185.817-.783 1.725-.598.317.062.663.279.929.588-.071.145-.163.33-.592.33-.419 0-1.225.175-1.674.485-.451.316-.92.43-1.563.492zm-8.962-7.753l-.02.073-.01.071-.021.073-.02.072-.021.072-.02.072-.03.062-.031.073-.021.072-.04.072-.031.073-.031.061-.041.072-.031.073-.081.144s.683 3.186 3.164 3.423c0 0-.05-.66-.786-1.154-.735-.506-1.828-1.29-1.745-2.475 0 0 .183.041.54.485.347.444 1.123 1.732 2.318 1.742 0 0-.173-.608-.704-.949-.531-.35-1.194-.793-1.5-1.33-.307-.526-.634-.773-.838-.876zm-1.644 3.095l.01.04.021.052.02.051.031.051.03.062.041.062.031.073.051.071.041.072.04.073.051.072.051.082.051.082.061.083.112.155.113.165.112.154.061.083.061.072.051.073.061.072.051.072.051.062.051.062.051.062.051.052.051.041.04.052.041.03c.399.382 1.399 1.393 1.94 1.898 0 0-1.521-.381-2.378-1.165 0 0-.603.35-1.041.35h-.031c-.439 0-1.051-.35-1.051-.35-.847.784-2.368 1.165-2.368 1.165.531-.505 1.531-1.516 1.94-1.897.408-.372 1.347-1.712 1.49-2.134h.011z" fill="#0055A5"/><path d="M106.855 51.09h.061l.03-.01h.092l.062-.01.061-.011.051-.021.061-.01.051-.021.061-.01.051-.02.041-.021.051-.01.021-.011.02-.01.021-.01.02-.01.02-.011h.021l.02-.011.021-.01c-.184.371-.521.98-.837 1.217h-.01c-.327-.237-.664-.846-.848-1.217.184.083.5.217.837.217h.021z" fill="#0055A5"/><path d="M108.152 58.204l5.941-8.413.602.443.041-1.97-1.796.69.561.413c-.286.424-4.726 6.702-5.288 7.496l-2.684-4.929-.337.505-2.389 3.66-.603-.402v1.939l1.817-.722-.612-.422c.337-.495 1.622-2.475 2.062-3.135l2.685 4.847z" fill="#0055A5"/><path d="M109.243 54.895l-.153-.227-.081-.113-.071-.114-.071-.103-.072-.113-.071-.104-.062-.103-.071-.103-.061-.092-.031-.041-.03-.052-.02-.042-.031-.04-.031-.042-.02-.041-.03-.041-.021-.032-.02-.041-.031-.032-.021-.03-.02-.03c-.143.277-.449.834-.786 1.443l-.429-.763 1.163-2.104.327.505 1.194 1.815-.45.64zm1.225.546l.419.66.602-.402.01 1.938-1.817-.721.601-.423c-.061-.092-.152-.237-.276-.423l.461-.629zm11.955-12.817l-.041-.04-.051-.042-.041-.03-.051-.031-.051-.02-.051-.021-.051-.011-.051-.01-.051-.01h-.061l-.051.01h-.061l-.061.02-.062.01-.061.02-.061.02-.072.032-.061.03-.061.032-.071.031-.062.042-.071.04-.072.052-.071.041-.061.051-.071.052-.072.061-.071.052-.071.061-.072.062-.071.062-.071.062c-.766.701-1.235 1.423-.786 1.918.408.444 1.184.062 1.949-.64.754-.7 1.233-1.422.795-1.906z" fill="#0055A5"/><path d="M121.187 51.286l.01-.01h.011v-.01h.01v-.01h.01v-.01h.01l.011-.011h.009v-.011h.011c.398-.36.622-.907.622-1.505a2.077 2.077 0 00-2.072-2.093c-1.133 0-2.062.938-2.062 2.093 0 .155.03.402.03.402-.082-.175-.429-.97-.5-1.114a2.635 2.635 0 012.532-1.949c1.051 0 1.95.609 2.378 1.496-.163-1.052-.683-2-1.051-2.351-.439-.422-1.184-.557-1.184-.557.49.073 1.133-.227 1.858-.897.684-.639 1.041-1.196 1.062-1.66-.041.66-.021 1.021.163 1.568.256.722.929 2.062.694 3.578-.132.836-.735 2.073-1.735 3.083-.214.227-.296.567-.317.742 0 0-1.48 0-1.817.03 0 0-.358-.03-.347-.257 0-.217.204-.268.368-.268.183-.001.908.01 1.296-.28zm-9.697.432l-.235-.134-.234-.144-.234-.155-.225-.164-.234-.175-.235-.186-.224-.195-.225-.207-.224-.216-.225-.236-.225-.237-.214-.258-.214-.28-.214-.278-.213-.3-.103-.154-.111-.165-.194-.33c.306.134.684.041.684.041.031.031.071.114.091.145 1.041 1.537 2.184 2.516 3.348 3.145l-.34.483zm1.551.073l.173.062.184.062.173.052.184.052.174.05.173.052.184.041.173.041.174.042.173.031.173.03.173.031.347.062.337.052a8.721 8.721 0 001.694.103c0 .092 0 .206.041.299 0 0-.092.123-.092.278a9.117 9.117 0 01-1.735-.112c-.98-.156-2.011-.351-3.052-.743l.349-.485zm6.737.465h.113l.03-.01h.327l.082.01h.072l.081.01h.071l.082.011h.071l.031.01h.041l.03.01h.03c.358.051.766.134.817.33.041.196-.091.402-.276.69-.112.175-.378.083-.531.021-.152-.062-1-.515-1.143-.67-.132-.144-.183-.36.072-.412zm-.857.578l.011-.01v-.011h.01l.02-.01h.011l.009-.01.011-.01h.01l.02-.011h.011l.02-.01h.011l.02-.01h.03l.021-.01h.031l.02-.011h.143l.021.01h.02l.02.01h.021l.02.01h.021c.234.093 1.072.599 1.132.826.052.237-.061.361-.183.412a1.826 1.826 0 01-.419.113.646.646 0 01-.511-.247c-.112-.134-.499-.608-.551-.722-.061-.093-.091-.258 0-.31zm-.112.515l.01.01.02.021.011.011.009.02.021.021.02.02.011.021.02.021.021.02.02.031.021.02.02.022.041.05.041.053.04.052.011.02.021.02.02.021.02.021.01.02.021.021.01.02.021.022.009.01.011.02.01.012.01.01v.01l.01.01c.03.062-.03.175-.132.155-.113-.01-.684-.072-1.011-.298-.337-.227-.551-.66-.327-.825.225-.168.582-.085.96.338zm-.184-1.269h.031l.01-.01h.031l.02-.01h.021l.02-.01h.041l.031-.01h.02l.03-.01h.072l.021-.01h.142l.02.01h.021l.02.01h.02l.011.01h.021v.01h.009l.011.01.01.01.01.01c.112.186.031.372-.306.537-.337.165-.98.3-1.102.123-.124-.175.05-.473.765-.67z" fill="#0055A5"/></g><defs><clipPath id="clip0_2_979"><path fill="#fff" d="M0 0h141v69H0z"/></clipPath></defs></svg>