<svg width="992" height="264" viewBox="0 0 992 264" fill="none" xmlns="http://www.w3.org/2000/svg">
<g clip-path="url(#clip0_2_2483)">
<path d="M100.566 161L97.55 151.14H82.47L79.454 161H70L84.616 119.414H95.346L110.02 161H100.566ZM92.446 134.146C92.2527 133.489 92.0013 132.657 91.692 131.652C91.3827 130.647 91.0733 129.622 90.764 128.578C90.4547 127.534 90.2033 126.625 90.01 125.852C89.8167 126.625 89.546 127.592 89.198 128.752C88.8887 129.873 88.5793 130.956 88.27 132C87.9993 133.005 87.7867 133.721 87.632 134.146L84.674 143.774H95.462L92.446 134.146ZM112.655 142.034C112.655 137.355 113.235 133.392 114.395 130.144C115.555 126.857 117.392 124.247 119.905 122.314C122.418 120.342 125.705 119.008 129.765 118.312C131.814 117.964 133.883 117.674 135.971 117.442C138.098 117.171 140.282 116.901 142.525 116.63L143.511 124.17C142.544 124.286 141.481 124.421 140.321 124.576C139.161 124.692 137.982 124.827 136.783 124.982C135.623 125.098 134.502 125.233 133.419 125.388C132.336 125.543 131.35 125.678 130.461 125.794C129.03 126.026 127.774 126.355 126.691 126.78C125.608 127.167 124.7 127.727 123.965 128.462C123.23 129.197 122.65 130.202 122.225 131.478C121.838 132.715 121.587 134.32 121.471 136.292H121.877C122.341 135.557 122.979 134.823 123.791 134.088C124.642 133.353 125.686 132.735 126.923 132.232C128.16 131.729 129.572 131.478 131.157 131.478C133.67 131.478 135.855 132 137.711 133.044C139.567 134.088 140.998 135.635 142.003 137.684C143.008 139.733 143.511 142.285 143.511 145.34C143.511 148.936 142.854 151.933 141.539 154.33C140.224 156.727 138.407 158.545 136.087 159.782C133.767 160.981 131.08 161.58 128.025 161.58C125.705 161.58 123.598 161.155 121.703 160.304C119.808 159.453 118.184 158.197 116.831 156.534C115.478 154.871 114.434 152.822 113.699 150.386C113.003 147.95 112.655 145.166 112.655 142.034ZM128.547 154.562C129.784 154.562 130.848 154.291 131.737 153.75C132.665 153.209 133.38 152.319 133.883 151.082C134.424 149.845 134.695 148.182 134.695 146.094C134.695 143.581 134.27 141.589 133.419 140.12C132.607 138.612 131.176 137.858 129.127 137.858C127.89 137.858 126.73 138.167 125.647 138.786C124.603 139.366 123.714 140.043 122.979 140.816C122.244 141.551 121.742 142.189 121.471 142.73C121.471 144.238 121.587 145.707 121.819 147.138C122.051 148.53 122.438 149.787 122.979 150.908C123.52 152.029 124.236 152.919 125.125 153.576C126.053 154.233 127.194 154.562 128.547 154.562ZM159.001 141.86C159.001 142.517 158.962 143.329 158.885 144.296C158.846 145.263 158.788 146.249 158.711 147.254C158.672 148.259 158.614 149.149 158.537 149.922C158.46 150.695 158.402 151.237 158.363 151.546L172.979 129.332H183.361V161H175.009V148.356C175.009 147.312 175.048 146.171 175.125 144.934C175.202 143.658 175.28 142.479 175.357 141.396C175.473 140.275 175.55 139.424 175.589 138.844L161.031 161H150.649V129.332H159.001V141.86ZM218.609 135.828H208.227V161H199.585V135.828H189.203V129.332H218.609V135.828ZM219.928 129.332H229.382L235.356 147.138C235.549 147.718 235.704 148.298 235.82 148.878C235.974 149.458 236.09 150.057 236.168 150.676C236.284 151.295 236.361 151.952 236.4 152.648H236.574C236.69 151.643 236.844 150.695 237.038 149.806C237.27 148.878 237.521 147.989 237.792 147.138L243.65 129.332H252.93L239.532 165.06C238.72 167.225 237.656 169.043 236.342 170.512C235.066 171.981 233.577 173.083 231.876 173.818C230.174 174.553 228.318 174.92 226.308 174.92C225.341 174.92 224.49 174.862 223.756 174.746C223.06 174.669 222.441 174.572 221.9 174.456V167.612C222.325 167.689 222.828 167.767 223.408 167.844C224.026 167.921 224.664 167.96 225.322 167.96C226.52 167.96 227.545 167.709 228.396 167.206C229.285 166.703 230.02 166.007 230.6 165.118C231.18 164.267 231.644 163.339 231.992 162.334L232.514 160.768L219.928 129.332ZM275.105 128.752C278.663 128.752 281.543 130.144 283.747 132.928C285.951 135.673 287.053 139.733 287.053 145.108C287.053 148.704 286.531 151.739 285.487 154.214C284.443 156.65 283.013 158.487 281.195 159.724C279.378 160.961 277.271 161.58 274.873 161.58C273.365 161.58 272.051 161.387 270.929 161C269.847 160.613 268.919 160.111 268.145 159.492C267.372 158.873 266.695 158.216 266.115 157.52H265.651C265.806 158.255 265.922 159.028 265.999 159.84C266.077 160.613 266.115 161.387 266.115 162.16V174.92H257.473V129.332H264.491L265.709 133.45H266.115C266.695 132.599 267.391 131.826 268.203 131.13C269.015 130.395 269.982 129.815 271.103 129.39C272.263 128.965 273.597 128.752 275.105 128.752ZM272.321 135.654C270.813 135.654 269.615 135.963 268.725 136.582C267.836 137.201 267.179 138.148 266.753 139.424C266.367 140.661 266.154 142.227 266.115 144.122V145.05C266.115 147.099 266.309 148.839 266.695 150.27C267.082 151.662 267.739 152.725 268.667 153.46C269.595 154.195 270.852 154.562 272.437 154.562C273.752 154.562 274.835 154.195 275.685 153.46C276.536 152.725 277.174 151.643 277.599 150.212C278.025 148.781 278.237 147.041 278.237 144.992C278.237 141.899 277.754 139.579 276.787 138.032C275.859 136.447 274.371 135.654 272.321 135.654ZM302.528 141.86C302.528 142.517 302.49 143.329 302.412 144.296C302.374 145.263 302.316 146.249 302.238 147.254C302.2 148.259 302.142 149.149 302.064 149.922C301.987 150.695 301.929 151.237 301.89 151.546L316.506 129.332H326.888V161H318.536V148.356C318.536 147.312 318.575 146.171 318.652 144.934C318.73 143.658 318.807 142.479 318.884 141.396C319 140.275 319.078 139.424 319.116 138.844L304.558 161H294.176V129.332H302.528V141.86ZM348.97 128.752C351.909 128.752 354.422 129.313 356.51 130.434C358.637 131.555 360.28 133.179 361.44 135.306C362.6 137.433 363.18 140.043 363.18 143.136V147.312H342.764C342.842 149.748 343.557 151.662 344.91 153.054C346.302 154.446 348.216 155.142 350.652 155.142C352.702 155.142 354.558 154.949 356.22 154.562C357.883 154.137 359.604 153.499 361.382 152.648V159.318C359.836 160.091 358.192 160.652 356.452 161C354.751 161.387 352.682 161.58 350.246 161.58C347.076 161.58 344.272 161 341.836 159.84C339.4 158.641 337.486 156.843 336.094 154.446C334.702 152.049 334.006 149.033 334.006 145.398C334.006 141.686 334.625 138.612 335.862 136.176C337.138 133.701 338.898 131.845 341.14 130.608C343.383 129.371 345.993 128.752 348.97 128.752ZM349.028 134.9C347.366 134.9 345.974 135.441 344.852 136.524C343.77 137.607 343.132 139.289 342.938 141.57H355.06C355.06 140.294 354.828 139.153 354.364 138.148C353.939 137.143 353.282 136.35 352.392 135.77C351.503 135.19 350.382 134.9 349.028 134.9ZM378.83 129.332V141.512H390.894V129.332H399.536V161H390.894V147.95H378.83V161H370.188V129.332H378.83ZM434.806 135.828H424.424V161H415.782V135.828H405.4V129.332H434.806V135.828ZM453.641 128.694C457.894 128.694 461.142 129.622 463.385 131.478C465.666 133.295 466.807 136.099 466.807 139.888V161H460.775L459.093 156.708H458.861C457.972 157.829 457.044 158.757 456.077 159.492C455.149 160.227 454.066 160.749 452.829 161.058C451.63 161.406 450.142 161.58 448.363 161.58C446.507 161.58 444.825 161.232 443.317 160.536C441.848 159.801 440.688 158.699 439.837 157.23C438.986 155.722 438.561 153.827 438.561 151.546C438.561 148.182 439.74 145.707 442.099 144.122C444.458 142.498 447.996 141.609 452.713 141.454L458.223 141.28V139.888C458.223 138.225 457.778 137.007 456.889 136.234C456.038 135.461 454.84 135.074 453.293 135.074C451.746 135.074 450.238 135.306 448.769 135.77C447.3 136.195 445.83 136.737 444.361 137.394L441.519 131.536C443.22 130.647 445.096 129.951 447.145 129.448C449.233 128.945 451.398 128.694 453.641 128.694ZM454.859 146.442C452.075 146.519 450.142 147.022 449.059 147.95C447.976 148.878 447.435 150.096 447.435 151.604C447.435 152.919 447.822 153.866 448.595 154.446C449.368 154.987 450.374 155.258 451.611 155.258C453.467 155.258 455.033 154.717 456.309 153.634C457.585 152.513 458.223 150.947 458.223 148.936V146.326L454.859 146.442ZM515.557 129.332V161H507.495V145.456C507.495 143.909 507.514 142.401 507.553 140.932C507.63 139.463 507.727 138.109 507.843 136.872H507.669L498.911 161H492.415L483.541 136.814H483.309C483.464 138.09 483.56 139.463 483.599 140.932C483.676 142.363 483.715 143.948 483.715 145.688V161H475.653V129.332H487.891L495.779 150.792L503.783 129.332H515.557Z" fill="#494747"/>
<path d="M75.375 193.68H72.4922L72.4766 192.469H75.0938C75.526 192.469 75.9036 192.396 76.2266 192.25C76.5495 192.104 76.7995 191.896 76.9766 191.625C77.1589 191.349 77.25 191.021 77.25 190.641C77.25 190.224 77.1693 189.885 77.0078 189.625C76.8516 189.359 76.6094 189.167 76.2812 189.047C75.9583 188.922 75.5469 188.859 75.0469 188.859H72.8281V199H71.3203V187.625H75.0469C75.6302 187.625 76.151 187.685 76.6094 187.805C77.0677 187.919 77.4557 188.102 77.7734 188.352C78.0964 188.596 78.3411 188.909 78.5078 189.289C78.6745 189.669 78.7578 190.125 78.7578 190.656C78.7578 191.125 78.638 191.549 78.3984 191.93C78.1589 192.305 77.8255 192.612 77.3984 192.852C76.9766 193.091 76.4818 193.245 75.9141 193.312L75.375 193.68ZM75.3047 199H71.8984L72.75 197.773H75.3047C75.7839 197.773 76.1901 197.69 76.5234 197.523C76.862 197.357 77.1198 197.122 77.2969 196.82C77.474 196.513 77.5625 196.151 77.5625 195.734C77.5625 195.312 77.487 194.948 77.3359 194.641C77.1849 194.333 76.9479 194.096 76.625 193.93C76.3021 193.763 75.8854 193.68 75.375 193.68H73.2266L73.2422 192.469H76.1797L76.5 192.906C77.0469 192.953 77.5104 193.109 77.8906 193.375C78.2708 193.635 78.5599 193.969 78.7578 194.375C78.9609 194.781 79.0625 195.229 79.0625 195.719C79.0625 196.427 78.9062 197.026 78.5938 197.516C78.2865 198 77.8516 198.37 77.2891 198.625C76.7266 198.875 76.0651 199 75.3047 199ZM88 191.578C87.6823 191.578 87.3776 191.648 87.0859 191.789C86.7995 191.93 86.5625 192.125 86.375 192.375C86.1927 192.62 86.1016 192.904 86.1016 193.227H84.7188C84.7188 192.721 84.875 192.255 85.1875 191.828C85.5 191.396 85.9062 191.049 86.4062 190.789C86.9062 190.523 87.4375 190.391 88 190.391C88.5938 190.391 89.1198 190.503 89.5781 190.727C90.0365 190.951 90.4219 191.258 90.7344 191.648C91.0521 192.039 91.2917 192.49 91.4531 193C91.6146 193.505 91.6953 194.042 91.6953 194.609V194.938C91.6953 195.505 91.612 196.044 91.4453 196.555C91.2839 197.06 91.0443 197.51 90.7266 197.906C90.4141 198.297 90.0286 198.604 89.5703 198.828C89.1172 199.052 88.5964 199.164 88.0078 199.164C87.3776 199.164 86.8125 199.029 86.3125 198.758C85.8177 198.487 85.4271 198.122 85.1406 197.664C84.8594 197.201 84.7188 196.68 84.7188 196.102H86.1016C86.1016 196.451 86.1849 196.768 86.3516 197.055C86.5234 197.336 86.7526 197.56 87.0391 197.727C87.3255 197.893 87.6484 197.977 88.0078 197.977C88.3984 197.977 88.7344 197.888 89.0156 197.711C89.3021 197.534 89.5365 197.299 89.7188 197.008C89.901 196.716 90.0339 196.391 90.1172 196.031C90.2057 195.667 90.25 195.302 90.25 194.938V194.609C90.25 194.24 90.2057 193.875 90.1172 193.516C90.0339 193.156 89.901 192.831 89.7188 192.539C89.5417 192.247 89.3099 192.016 89.0234 191.844C88.7422 191.667 88.401 191.578 88 191.578ZM90.9531 194.102V195.281H87.0547V194.102H90.9531ZM96.4688 190.547V199H95.0156V190.547H96.4688ZM99.3047 190.547V191.719H92.2344V190.547H99.3047ZM100.016 194.867V194.688C100.016 194.078 100.104 193.513 100.281 192.992C100.458 192.466 100.714 192.01 101.047 191.625C101.38 191.234 101.784 190.932 102.258 190.719C102.732 190.5 103.263 190.391 103.852 190.391C104.445 190.391 104.979 190.5 105.453 190.719C105.932 190.932 106.339 191.234 106.672 191.625C107.01 192.01 107.268 192.466 107.445 192.992C107.622 193.513 107.711 194.078 107.711 194.688V194.867C107.711 195.477 107.622 196.042 107.445 196.562C107.268 197.083 107.01 197.539 106.672 197.93C106.339 198.315 105.935 198.617 105.461 198.836C104.992 199.049 104.461 199.156 103.867 199.156C103.273 199.156 102.74 199.049 102.266 198.836C101.792 198.617 101.385 198.315 101.047 197.93C100.714 197.539 100.458 197.083 100.281 196.562C100.104 196.042 100.016 195.477 100.016 194.867ZM101.461 194.688V194.867C101.461 195.289 101.51 195.688 101.609 196.062C101.708 196.432 101.857 196.76 102.055 197.047C102.258 197.333 102.51 197.56 102.812 197.727C103.115 197.888 103.466 197.969 103.867 197.969C104.263 197.969 104.609 197.888 104.906 197.727C105.208 197.56 105.458 197.333 105.656 197.047C105.854 196.76 106.003 196.432 106.102 196.062C106.206 195.688 106.258 195.289 106.258 194.867V194.688C106.258 194.271 106.206 193.878 106.102 193.508C106.003 193.133 105.852 192.802 105.648 192.516C105.451 192.224 105.201 191.995 104.898 191.828C104.602 191.661 104.253 191.578 103.852 191.578C103.456 191.578 103.107 191.661 102.805 191.828C102.508 191.995 102.258 192.224 102.055 192.516C101.857 192.802 101.708 193.133 101.609 193.508C101.51 193.878 101.461 194.271 101.461 194.688ZM114.383 197.078L117.258 190.547H118.648L114.883 199H113.883L110.133 190.547H111.523L114.383 197.078ZM111.102 190.547V199H109.656V190.547H111.102ZM117.617 199V190.547H119.07V199H117.617ZM126.812 192.172V202.25H125.359V190.547H126.688L126.812 192.172ZM132.508 194.703V194.867C132.508 195.482 132.435 196.052 132.289 196.578C132.143 197.099 131.93 197.552 131.648 197.938C131.372 198.323 131.031 198.622 130.625 198.836C130.219 199.049 129.753 199.156 129.227 199.156C128.69 199.156 128.216 199.068 127.805 198.891C127.393 198.714 127.044 198.456 126.758 198.117C126.471 197.779 126.242 197.372 126.07 196.898C125.904 196.424 125.789 195.891 125.727 195.297V194.422C125.789 193.797 125.906 193.237 126.078 192.742C126.25 192.247 126.477 191.826 126.758 191.477C127.044 191.122 127.391 190.854 127.797 190.672C128.203 190.484 128.672 190.391 129.203 190.391C129.734 190.391 130.206 190.495 130.617 190.703C131.029 190.906 131.375 191.198 131.656 191.578C131.938 191.958 132.148 192.414 132.289 192.945C132.435 193.471 132.508 194.057 132.508 194.703ZM131.055 194.867V194.703C131.055 194.281 131.01 193.885 130.922 193.516C130.833 193.141 130.695 192.812 130.508 192.531C130.326 192.245 130.091 192.021 129.805 191.859C129.518 191.693 129.177 191.609 128.781 191.609C128.417 191.609 128.099 191.672 127.828 191.797C127.562 191.922 127.336 192.091 127.148 192.305C126.961 192.513 126.807 192.753 126.688 193.023C126.573 193.289 126.487 193.565 126.43 193.852V195.875C126.534 196.24 126.68 196.583 126.867 196.906C127.055 197.224 127.305 197.482 127.617 197.68C127.93 197.872 128.323 197.969 128.797 197.969C129.188 197.969 129.523 197.888 129.805 197.727C130.091 197.56 130.326 197.333 130.508 197.047C130.695 196.76 130.833 196.432 130.922 196.062C131.01 195.688 131.055 195.289 131.055 194.867ZM139.336 197.555V193.203C139.336 192.87 139.268 192.581 139.133 192.336C139.003 192.086 138.805 191.893 138.539 191.758C138.273 191.622 137.945 191.555 137.555 191.555C137.19 191.555 136.87 191.617 136.594 191.742C136.323 191.867 136.109 192.031 135.953 192.234C135.802 192.438 135.727 192.656 135.727 192.891H134.281C134.281 192.589 134.359 192.289 134.516 191.992C134.672 191.695 134.896 191.427 135.188 191.188C135.484 190.943 135.839 190.75 136.25 190.609C136.667 190.464 137.13 190.391 137.641 190.391C138.255 190.391 138.797 190.495 139.266 190.703C139.74 190.911 140.109 191.227 140.375 191.648C140.646 192.065 140.781 192.589 140.781 193.219V197.156C140.781 197.438 140.805 197.737 140.852 198.055C140.904 198.372 140.979 198.646 141.078 198.875V199H139.57C139.497 198.833 139.44 198.612 139.398 198.336C139.357 198.055 139.336 197.794 139.336 197.555ZM139.586 193.875L139.602 194.891H138.141C137.729 194.891 137.362 194.924 137.039 194.992C136.716 195.055 136.445 195.151 136.227 195.281C136.008 195.411 135.841 195.576 135.727 195.773C135.612 195.966 135.555 196.193 135.555 196.453C135.555 196.719 135.615 196.961 135.734 197.18C135.854 197.398 136.034 197.573 136.273 197.703C136.518 197.828 136.818 197.891 137.172 197.891C137.615 197.891 138.005 197.797 138.344 197.609C138.682 197.422 138.951 197.193 139.148 196.922C139.352 196.651 139.461 196.388 139.477 196.133L140.094 196.828C140.057 197.047 139.958 197.289 139.797 197.555C139.635 197.82 139.419 198.076 139.148 198.32C138.883 198.56 138.565 198.76 138.195 198.922C137.831 199.078 137.419 199.156 136.961 199.156C136.388 199.156 135.885 199.044 135.453 198.82C135.026 198.596 134.693 198.297 134.453 197.922C134.219 197.542 134.102 197.117 134.102 196.648C134.102 196.195 134.19 195.797 134.367 195.453C134.544 195.104 134.799 194.815 135.133 194.586C135.466 194.352 135.867 194.174 136.336 194.055C136.805 193.935 137.328 193.875 137.906 193.875H139.586ZM146.211 194.961H144.656V194.07H146.094C146.495 194.07 146.812 194.021 147.047 193.922C147.281 193.818 147.448 193.674 147.547 193.492C147.646 193.31 147.695 193.096 147.695 192.852C147.695 192.633 147.638 192.427 147.523 192.234C147.414 192.036 147.237 191.878 146.992 191.758C146.747 191.633 146.419 191.57 146.008 191.57C145.674 191.57 145.372 191.63 145.102 191.75C144.831 191.865 144.615 192.023 144.453 192.227C144.297 192.424 144.219 192.648 144.219 192.898H142.773C142.773 192.383 142.919 191.94 143.211 191.57C143.508 191.195 143.901 190.906 144.391 190.703C144.885 190.5 145.424 190.398 146.008 190.398C146.497 190.398 146.935 190.453 147.32 190.562C147.711 190.667 148.042 190.823 148.312 191.031C148.583 191.234 148.789 191.49 148.93 191.797C149.076 192.099 149.148 192.451 149.148 192.852C149.148 193.138 149.081 193.409 148.945 193.664C148.81 193.919 148.615 194.146 148.359 194.344C148.104 194.536 147.794 194.688 147.43 194.797C147.07 194.906 146.664 194.961 146.211 194.961ZM144.656 194.414H146.211C146.716 194.414 147.161 194.464 147.547 194.562C147.932 194.656 148.255 194.797 148.516 194.984C148.776 195.172 148.971 195.404 149.102 195.68C149.237 195.951 149.305 196.263 149.305 196.617C149.305 197.013 149.224 197.37 149.062 197.688C148.906 198 148.682 198.266 148.391 198.484C148.099 198.703 147.75 198.87 147.344 198.984C146.943 199.099 146.497 199.156 146.008 199.156C145.461 199.156 144.93 199.062 144.414 198.875C143.898 198.688 143.474 198.398 143.141 198.008C142.807 197.612 142.641 197.109 142.641 196.5H144.086C144.086 196.755 144.167 196.997 144.328 197.227C144.49 197.456 144.714 197.641 145 197.781C145.292 197.922 145.628 197.992 146.008 197.992C146.414 197.992 146.753 197.93 147.023 197.805C147.294 197.68 147.497 197.513 147.633 197.305C147.773 197.096 147.844 196.87 147.844 196.625C147.844 196.307 147.781 196.052 147.656 195.859C147.531 195.667 147.339 195.526 147.078 195.438C146.823 195.344 146.495 195.297 146.094 195.297H144.656V194.414ZM152.703 190.547H154.148L154.023 193.711C153.992 194.513 153.901 195.206 153.75 195.789C153.599 196.372 153.406 196.87 153.172 197.281C152.938 197.688 152.674 198.029 152.383 198.305C152.096 198.581 151.799 198.812 151.492 199H150.773L150.812 197.82L151.109 197.812C151.281 197.609 151.448 197.401 151.609 197.188C151.771 196.969 151.919 196.711 152.055 196.414C152.19 196.112 152.302 195.745 152.391 195.312C152.484 194.875 152.544 194.341 152.57 193.711L152.703 190.547ZM153.062 190.547H158.148V199H156.703V191.883H153.062V190.547ZM150.445 197.812H159.234V201.492H157.789V199H151.891V201.492H150.438L150.445 197.812ZM164.344 199.156C163.755 199.156 163.221 199.057 162.742 198.859C162.268 198.656 161.859 198.372 161.516 198.008C161.177 197.643 160.917 197.211 160.734 196.711C160.552 196.211 160.461 195.664 160.461 195.07V194.742C160.461 194.055 160.562 193.443 160.766 192.906C160.969 192.365 161.245 191.906 161.594 191.531C161.943 191.156 162.339 190.872 162.781 190.68C163.224 190.487 163.682 190.391 164.156 190.391C164.76 190.391 165.281 190.495 165.719 190.703C166.161 190.911 166.523 191.203 166.805 191.578C167.086 191.948 167.294 192.385 167.43 192.891C167.565 193.391 167.633 193.938 167.633 194.531V195.18H161.32V194H166.188V193.891C166.167 193.516 166.089 193.151 165.953 192.797C165.823 192.443 165.615 192.151 165.328 191.922C165.042 191.693 164.651 191.578 164.156 191.578C163.828 191.578 163.526 191.648 163.25 191.789C162.974 191.924 162.737 192.128 162.539 192.398C162.341 192.669 162.188 193 162.078 193.391C161.969 193.781 161.914 194.232 161.914 194.742V195.07C161.914 195.471 161.969 195.849 162.078 196.203C162.193 196.552 162.357 196.859 162.57 197.125C162.789 197.391 163.052 197.599 163.359 197.75C163.672 197.901 164.026 197.977 164.422 197.977C164.932 197.977 165.365 197.872 165.719 197.664C166.073 197.456 166.383 197.177 166.648 196.828L167.523 197.523C167.341 197.799 167.109 198.062 166.828 198.312C166.547 198.562 166.201 198.766 165.789 198.922C165.383 199.078 164.901 199.156 164.344 199.156ZM174.969 190.547V191.742H170.883V190.547H174.969ZM176.242 190.547V199H174.797V190.547H176.242ZM170.531 190.547H171.984L171.766 194.625C171.729 195.255 171.669 195.812 171.586 196.297C171.508 196.776 171.398 197.188 171.258 197.531C171.122 197.875 170.951 198.156 170.742 198.375C170.539 198.589 170.294 198.747 170.008 198.852C169.721 198.951 169.391 199 169.016 199H168.562V197.727L168.875 197.703C169.099 197.688 169.289 197.635 169.445 197.547C169.607 197.458 169.742 197.328 169.852 197.156C169.961 196.979 170.049 196.753 170.117 196.477C170.19 196.201 170.245 195.872 170.281 195.492C170.323 195.112 170.354 194.669 170.375 194.164L170.531 190.547ZM182.078 199.156C181.49 199.156 180.956 199.057 180.477 198.859C180.003 198.656 179.594 198.372 179.25 198.008C178.911 197.643 178.651 197.211 178.469 196.711C178.286 196.211 178.195 195.664 178.195 195.07V194.742C178.195 194.055 178.297 193.443 178.5 192.906C178.703 192.365 178.979 191.906 179.328 191.531C179.677 191.156 180.073 190.872 180.516 190.68C180.958 190.487 181.417 190.391 181.891 190.391C182.495 190.391 183.016 190.495 183.453 190.703C183.896 190.911 184.258 191.203 184.539 191.578C184.82 191.948 185.029 192.385 185.164 192.891C185.299 193.391 185.367 193.938 185.367 194.531V195.18H179.055V194H183.922V193.891C183.901 193.516 183.823 193.151 183.688 192.797C183.557 192.443 183.349 192.151 183.062 191.922C182.776 191.693 182.385 191.578 181.891 191.578C181.562 191.578 181.26 191.648 180.984 191.789C180.708 191.924 180.471 192.128 180.273 192.398C180.076 192.669 179.922 193 179.812 193.391C179.703 193.781 179.648 194.232 179.648 194.742V195.07C179.648 195.471 179.703 195.849 179.812 196.203C179.927 196.552 180.091 196.859 180.305 197.125C180.523 197.391 180.786 197.599 181.094 197.75C181.406 197.901 181.76 197.977 182.156 197.977C182.667 197.977 183.099 197.872 183.453 197.664C183.807 197.456 184.117 197.177 184.383 196.828L185.258 197.523C185.076 197.799 184.844 198.062 184.562 198.312C184.281 198.562 183.935 198.766 183.523 198.922C183.117 199.078 182.635 199.156 182.078 199.156ZM195.883 197.078L198.758 190.547H200.148L196.383 199H195.383L191.633 190.547H193.023L195.883 197.078ZM192.602 190.547V199H191.156V190.547H192.602ZM199.117 199V190.547H200.57V199H199.117ZM204.086 193.453H206.625C207.307 193.453 207.883 193.573 208.352 193.812C208.82 194.047 209.174 194.372 209.414 194.789C209.659 195.201 209.781 195.669 209.781 196.195C209.781 196.586 209.714 196.953 209.578 197.297C209.443 197.635 209.24 197.932 208.969 198.188C208.703 198.443 208.372 198.643 207.977 198.789C207.586 198.93 207.135 199 206.625 199H203.031V190.547H204.477V197.812H206.625C207.042 197.812 207.375 197.737 207.625 197.586C207.875 197.435 208.055 197.24 208.164 197C208.273 196.76 208.328 196.51 208.328 196.25C208.328 195.995 208.273 195.745 208.164 195.5C208.055 195.255 207.875 195.052 207.625 194.891C207.375 194.724 207.042 194.641 206.625 194.641H204.086V193.453ZM212.789 190.547V199H211.344V190.547H212.789ZM222.672 197.969C223.016 197.969 223.333 197.898 223.625 197.758C223.917 197.617 224.156 197.424 224.344 197.18C224.531 196.93 224.638 196.646 224.664 196.328H226.039C226.013 196.828 225.844 197.294 225.531 197.727C225.224 198.154 224.82 198.5 224.32 198.766C223.82 199.026 223.271 199.156 222.672 199.156C222.036 199.156 221.482 199.044 221.008 198.82C220.539 198.596 220.148 198.289 219.836 197.898C219.529 197.508 219.297 197.06 219.141 196.555C218.99 196.044 218.914 195.505 218.914 194.938V194.609C218.914 194.042 218.99 193.505 219.141 193C219.297 192.49 219.529 192.039 219.836 191.648C220.148 191.258 220.539 190.951 221.008 190.727C221.482 190.503 222.036 190.391 222.672 190.391C223.333 190.391 223.911 190.526 224.406 190.797C224.901 191.062 225.289 191.427 225.57 191.891C225.857 192.349 226.013 192.87 226.039 193.453H224.664C224.638 193.104 224.539 192.789 224.367 192.508C224.201 192.227 223.971 192.003 223.68 191.836C223.393 191.664 223.057 191.578 222.672 191.578C222.229 191.578 221.857 191.667 221.555 191.844C221.258 192.016 221.021 192.25 220.844 192.547C220.672 192.839 220.547 193.164 220.469 193.523C220.396 193.878 220.359 194.24 220.359 194.609V194.938C220.359 195.307 220.396 195.672 220.469 196.031C220.542 196.391 220.664 196.716 220.836 197.008C221.013 197.299 221.25 197.534 221.547 197.711C221.849 197.883 222.224 197.969 222.672 197.969ZM227.281 194.867V194.688C227.281 194.078 227.37 193.513 227.547 192.992C227.724 192.466 227.979 192.01 228.312 191.625C228.646 191.234 229.049 190.932 229.523 190.719C229.997 190.5 230.529 190.391 231.117 190.391C231.711 190.391 232.245 190.5 232.719 190.719C233.198 190.932 233.604 191.234 233.938 191.625C234.276 192.01 234.534 192.466 234.711 192.992C234.888 193.513 234.977 194.078 234.977 194.688V194.867C234.977 195.477 234.888 196.042 234.711 196.562C234.534 197.083 234.276 197.539 233.938 197.93C233.604 198.315 233.201 198.617 232.727 198.836C232.258 199.049 231.727 199.156 231.133 199.156C230.539 199.156 230.005 199.049 229.531 198.836C229.057 198.617 228.651 198.315 228.312 197.93C227.979 197.539 227.724 197.083 227.547 196.562C227.37 196.042 227.281 195.477 227.281 194.867ZM228.727 194.688V194.867C228.727 195.289 228.776 195.688 228.875 196.062C228.974 196.432 229.122 196.76 229.32 197.047C229.523 197.333 229.776 197.56 230.078 197.727C230.38 197.888 230.732 197.969 231.133 197.969C231.529 197.969 231.875 197.888 232.172 197.727C232.474 197.56 232.724 197.333 232.922 197.047C233.12 196.76 233.268 196.432 233.367 196.062C233.471 195.688 233.523 195.289 233.523 194.867V194.688C233.523 194.271 233.471 193.878 233.367 193.508C233.268 193.133 233.117 192.802 232.914 192.516C232.716 192.224 232.466 191.995 232.164 191.828C231.867 191.661 231.518 191.578 231.117 191.578C230.721 191.578 230.372 191.661 230.07 191.828C229.773 191.995 229.523 192.224 229.32 192.516C229.122 192.802 228.974 193.133 228.875 193.508C228.776 193.878 228.727 194.271 228.727 194.688ZM242.211 186.867H243.398C243.398 187.378 243.32 187.784 243.164 188.086C243.008 188.383 242.794 188.612 242.523 188.773C242.258 188.935 241.956 189.057 241.617 189.141C241.284 189.224 240.938 189.305 240.578 189.383C240.13 189.477 239.714 189.625 239.328 189.828C238.948 190.026 238.62 190.307 238.344 190.672C238.073 191.036 237.872 191.51 237.742 192.094C237.617 192.677 237.583 193.398 237.641 194.258V194.977H236.453V194.258C236.453 193.294 236.544 192.453 236.727 191.734C236.914 191.016 237.177 190.409 237.516 189.914C237.854 189.419 238.255 189.026 238.719 188.734C239.188 188.443 239.703 188.242 240.266 188.133C240.672 188.055 241.021 187.971 241.312 187.883C241.604 187.789 241.826 187.664 241.977 187.508C242.133 187.352 242.211 187.138 242.211 186.867ZM240.5 191.031C241.052 191.031 241.544 191.128 241.977 191.32C242.409 191.513 242.776 191.781 243.078 192.125C243.38 192.469 243.609 192.875 243.766 193.344C243.927 193.807 244.008 194.312 244.008 194.859V195.031C244.008 195.62 243.922 196.167 243.75 196.672C243.583 197.172 243.336 197.609 243.008 197.984C242.685 198.354 242.289 198.643 241.82 198.852C241.357 199.06 240.828 199.164 240.234 199.164C239.641 199.164 239.109 199.06 238.641 198.852C238.177 198.643 237.781 198.354 237.453 197.984C237.125 197.609 236.875 197.172 236.703 196.672C236.536 196.167 236.453 195.62 236.453 195.031V194.859C236.453 194.729 236.477 194.602 236.523 194.477C236.57 194.352 236.628 194.224 236.695 194.094C236.768 193.964 236.833 193.826 236.891 193.68C237.083 193.211 237.346 192.776 237.68 192.375C238.018 191.974 238.422 191.651 238.891 191.406C239.365 191.156 239.901 191.031 240.5 191.031ZM240.219 192.211C239.688 192.211 239.25 192.333 238.906 192.578C238.568 192.823 238.315 193.148 238.148 193.555C237.982 193.956 237.898 194.391 237.898 194.859V195.031C237.898 195.427 237.945 195.802 238.039 196.156C238.133 196.51 238.273 196.826 238.461 197.102C238.654 197.372 238.896 197.586 239.188 197.742C239.484 197.898 239.833 197.977 240.234 197.977C240.635 197.977 240.982 197.898 241.273 197.742C241.565 197.586 241.805 197.372 241.992 197.102C242.18 196.826 242.32 196.51 242.414 196.156C242.508 195.802 242.555 195.427 242.555 195.031V194.859C242.555 194.505 242.508 194.169 242.414 193.852C242.32 193.534 242.177 193.253 241.984 193.008C241.797 192.763 241.555 192.57 241.258 192.43C240.966 192.284 240.62 192.211 240.219 192.211ZM246.953 192.172V202.25H245.5V190.547H246.828L246.953 192.172ZM252.648 194.703V194.867C252.648 195.482 252.576 196.052 252.43 196.578C252.284 197.099 252.07 197.552 251.789 197.938C251.513 198.323 251.172 198.622 250.766 198.836C250.359 199.049 249.893 199.156 249.367 199.156C248.831 199.156 248.357 199.068 247.945 198.891C247.534 198.714 247.185 198.456 246.898 198.117C246.612 197.779 246.383 197.372 246.211 196.898C246.044 196.424 245.93 195.891 245.867 195.297V194.422C245.93 193.797 246.047 193.237 246.219 192.742C246.391 192.247 246.617 191.826 246.898 191.477C247.185 191.122 247.531 190.854 247.938 190.672C248.344 190.484 248.812 190.391 249.344 190.391C249.875 190.391 250.346 190.495 250.758 190.703C251.169 190.906 251.516 191.198 251.797 191.578C252.078 191.958 252.289 192.414 252.43 192.945C252.576 193.471 252.648 194.057 252.648 194.703ZM251.195 194.867V194.703C251.195 194.281 251.151 193.885 251.062 193.516C250.974 193.141 250.836 192.812 250.648 192.531C250.466 192.245 250.232 192.021 249.945 191.859C249.659 191.693 249.318 191.609 248.922 191.609C248.557 191.609 248.24 191.672 247.969 191.797C247.703 191.922 247.477 192.091 247.289 192.305C247.102 192.513 246.948 192.753 246.828 193.023C246.714 193.289 246.628 193.565 246.57 193.852V195.875C246.674 196.24 246.82 196.583 247.008 196.906C247.195 197.224 247.445 197.482 247.758 197.68C248.07 197.872 248.464 197.969 248.938 197.969C249.328 197.969 249.664 197.888 249.945 197.727C250.232 197.56 250.466 197.333 250.648 197.047C250.836 196.76 250.974 196.432 251.062 196.062C251.151 195.688 251.195 195.289 251.195 194.867ZM259.477 197.555V193.203C259.477 192.87 259.409 192.581 259.273 192.336C259.143 192.086 258.945 191.893 258.68 191.758C258.414 191.622 258.086 191.555 257.695 191.555C257.331 191.555 257.01 191.617 256.734 191.742C256.464 191.867 256.25 192.031 256.094 192.234C255.943 192.438 255.867 192.656 255.867 192.891H254.422C254.422 192.589 254.5 192.289 254.656 191.992C254.812 191.695 255.036 191.427 255.328 191.188C255.625 190.943 255.979 190.75 256.391 190.609C256.807 190.464 257.271 190.391 257.781 190.391C258.396 190.391 258.938 190.495 259.406 190.703C259.88 190.911 260.25 191.227 260.516 191.648C260.786 192.065 260.922 192.589 260.922 193.219V197.156C260.922 197.438 260.945 197.737 260.992 198.055C261.044 198.372 261.12 198.646 261.219 198.875V199H259.711C259.638 198.833 259.581 198.612 259.539 198.336C259.497 198.055 259.477 197.794 259.477 197.555ZM259.727 193.875L259.742 194.891H258.281C257.87 194.891 257.503 194.924 257.18 194.992C256.857 195.055 256.586 195.151 256.367 195.281C256.148 195.411 255.982 195.576 255.867 195.773C255.753 195.966 255.695 196.193 255.695 196.453C255.695 196.719 255.755 196.961 255.875 197.18C255.995 197.398 256.174 197.573 256.414 197.703C256.659 197.828 256.958 197.891 257.312 197.891C257.755 197.891 258.146 197.797 258.484 197.609C258.823 197.422 259.091 197.193 259.289 196.922C259.492 196.651 259.602 196.388 259.617 196.133L260.234 196.828C260.198 197.047 260.099 197.289 259.938 197.555C259.776 197.82 259.56 198.076 259.289 198.32C259.023 198.56 258.706 198.76 258.336 198.922C257.971 199.078 257.56 199.156 257.102 199.156C256.529 199.156 256.026 199.044 255.594 198.82C255.167 198.596 254.833 198.297 254.594 197.922C254.359 197.542 254.242 197.117 254.242 196.648C254.242 196.195 254.331 195.797 254.508 195.453C254.685 195.104 254.94 194.815 255.273 194.586C255.607 194.352 256.008 194.174 256.477 194.055C256.945 193.935 257.469 193.875 258.047 193.875H259.727ZM268.844 190.547V191.742H264.758V190.547H268.844ZM270.117 190.547V199H268.672V190.547H270.117ZM264.406 190.547H265.859L265.641 194.625C265.604 195.255 265.544 195.812 265.461 196.297C265.383 196.776 265.273 197.188 265.133 197.531C264.997 197.875 264.826 198.156 264.617 198.375C264.414 198.589 264.169 198.747 263.883 198.852C263.596 198.951 263.266 199 262.891 199H262.438V197.727L262.75 197.703C262.974 197.688 263.164 197.635 263.32 197.547C263.482 197.458 263.617 197.328 263.727 197.156C263.836 196.979 263.924 196.753 263.992 196.477C264.065 196.201 264.12 195.872 264.156 195.492C264.198 195.112 264.229 194.669 264.25 194.164L264.406 190.547ZM274.008 196.711L277.906 190.547H279.359V199H277.906V192.836L274.008 199H272.57V190.547H274.008V196.711ZM289.617 195.281H286.844L286.828 194.125H289.094C289.542 194.125 289.914 194.081 290.211 193.992C290.513 193.904 290.74 193.771 290.891 193.594C291.042 193.417 291.117 193.198 291.117 192.938C291.117 192.734 291.073 192.557 290.984 192.406C290.901 192.25 290.773 192.122 290.602 192.023C290.43 191.919 290.216 191.844 289.961 191.797C289.711 191.745 289.417 191.719 289.078 191.719H287.227V199H285.781V190.547H289.078C289.615 190.547 290.096 190.594 290.523 190.688C290.956 190.781 291.323 190.924 291.625 191.117C291.932 191.305 292.167 191.544 292.328 191.836C292.49 192.128 292.57 192.471 292.57 192.867C292.57 193.122 292.518 193.365 292.414 193.594C292.31 193.823 292.156 194.026 291.953 194.203C291.75 194.38 291.5 194.526 291.203 194.641C290.906 194.75 290.565 194.82 290.18 194.852L289.617 195.281ZM289.617 199H286.32L287.039 197.828H289.617C290.018 197.828 290.352 197.779 290.617 197.68C290.883 197.576 291.081 197.43 291.211 197.242C291.346 197.049 291.414 196.82 291.414 196.555C291.414 196.289 291.346 196.062 291.211 195.875C291.081 195.682 290.883 195.536 290.617 195.438C290.352 195.333 290.018 195.281 289.617 195.281H287.422L287.438 194.125H290.18L290.703 194.562C291.167 194.599 291.56 194.714 291.883 194.906C292.206 195.099 292.451 195.344 292.617 195.641C292.784 195.932 292.867 196.25 292.867 196.594C292.867 196.99 292.792 197.339 292.641 197.641C292.495 197.943 292.281 198.195 292 198.398C291.719 198.596 291.378 198.747 290.977 198.852C290.576 198.951 290.122 199 289.617 199ZM298.188 197.969C298.531 197.969 298.849 197.898 299.141 197.758C299.432 197.617 299.672 197.424 299.859 197.18C300.047 196.93 300.154 196.646 300.18 196.328H301.555C301.529 196.828 301.359 197.294 301.047 197.727C300.74 198.154 300.336 198.5 299.836 198.766C299.336 199.026 298.786 199.156 298.188 199.156C297.552 199.156 296.997 199.044 296.523 198.82C296.055 198.596 295.664 198.289 295.352 197.898C295.044 197.508 294.812 197.06 294.656 196.555C294.505 196.044 294.43 195.505 294.43 194.938V194.609C294.43 194.042 294.505 193.505 294.656 193C294.812 192.49 295.044 192.039 295.352 191.648C295.664 191.258 296.055 190.951 296.523 190.727C296.997 190.503 297.552 190.391 298.188 190.391C298.849 190.391 299.427 190.526 299.922 190.797C300.417 191.062 300.805 191.427 301.086 191.891C301.372 192.349 301.529 192.87 301.555 193.453H300.18C300.154 193.104 300.055 192.789 299.883 192.508C299.716 192.227 299.487 192.003 299.195 191.836C298.909 191.664 298.573 191.578 298.188 191.578C297.745 191.578 297.372 191.667 297.07 191.844C296.773 192.016 296.536 192.25 296.359 192.547C296.188 192.839 296.062 193.164 295.984 193.523C295.911 193.878 295.875 194.24 295.875 194.609V194.938C295.875 195.307 295.911 195.672 295.984 196.031C296.057 196.391 296.18 196.716 296.352 197.008C296.529 197.299 296.766 197.534 297.062 197.711C297.365 197.883 297.74 197.969 298.188 197.969ZM307.992 194.133V195.312H303.5V194.133H307.992ZM304.758 190.547V199H303.312V190.547H304.758ZM306.758 194.867V194.688C306.758 194.078 306.846 193.513 307.023 192.992C307.201 192.466 307.456 192.01 307.789 191.625C308.128 191.234 308.531 190.932 309 190.719C309.474 190.5 310.005 190.391 310.594 190.391C311.193 190.391 311.729 190.5 312.203 190.719C312.677 190.932 313.081 191.234 313.414 191.625C313.753 192.01 314.01 192.466 314.188 192.992C314.365 193.513 314.453 194.078 314.453 194.688V194.867C314.453 195.477 314.365 196.042 314.188 196.562C314.01 197.083 313.755 197.539 313.422 197.93C313.089 198.315 312.685 198.617 312.211 198.836C311.737 199.049 311.203 199.156 310.609 199.156C310.016 199.156 309.482 199.049 309.008 198.836C308.534 198.617 308.128 198.315 307.789 197.93C307.456 197.539 307.201 197.083 307.023 196.562C306.846 196.042 306.758 195.477 306.758 194.867ZM308.211 194.688V194.867C308.211 195.289 308.26 195.688 308.359 196.062C308.458 196.432 308.607 196.76 308.805 197.047C309.008 197.333 309.258 197.56 309.555 197.727C309.857 197.888 310.208 197.969 310.609 197.969C311.01 197.969 311.359 197.888 311.656 197.727C311.958 197.56 312.208 197.333 312.406 197.047C312.604 196.76 312.753 196.432 312.852 196.062C312.956 195.688 313.008 195.289 313.008 194.867V194.688C313.008 194.271 312.956 193.878 312.852 193.508C312.753 193.133 312.602 192.802 312.398 192.516C312.201 192.224 311.951 191.995 311.648 191.828C311.346 191.661 310.995 191.578 310.594 191.578C310.198 191.578 309.852 191.661 309.555 191.828C309.258 191.995 309.008 192.224 308.805 192.516C308.607 192.802 308.458 193.133 308.359 193.508C308.26 193.878 308.211 194.271 308.211 194.688ZM325.195 197.555V193.203C325.195 192.87 325.128 192.581 324.992 192.336C324.862 192.086 324.664 191.893 324.398 191.758C324.133 191.622 323.805 191.555 323.414 191.555C323.049 191.555 322.729 191.617 322.453 191.742C322.182 191.867 321.969 192.031 321.812 192.234C321.661 192.438 321.586 192.656 321.586 192.891H320.141C320.141 192.589 320.219 192.289 320.375 191.992C320.531 191.695 320.755 191.427 321.047 191.188C321.344 190.943 321.698 190.75 322.109 190.609C322.526 190.464 322.99 190.391 323.5 190.391C324.115 190.391 324.656 190.495 325.125 190.703C325.599 190.911 325.969 191.227 326.234 191.648C326.505 192.065 326.641 192.589 326.641 193.219V197.156C326.641 197.438 326.664 197.737 326.711 198.055C326.763 198.372 326.839 198.646 326.938 198.875V199H325.43C325.357 198.833 325.299 198.612 325.258 198.336C325.216 198.055 325.195 197.794 325.195 197.555ZM325.445 193.875L325.461 194.891H324C323.589 194.891 323.221 194.924 322.898 194.992C322.576 195.055 322.305 195.151 322.086 195.281C321.867 195.411 321.701 195.576 321.586 195.773C321.471 195.966 321.414 196.193 321.414 196.453C321.414 196.719 321.474 196.961 321.594 197.18C321.714 197.398 321.893 197.573 322.133 197.703C322.378 197.828 322.677 197.891 323.031 197.891C323.474 197.891 323.865 197.797 324.203 197.609C324.542 197.422 324.81 197.193 325.008 196.922C325.211 196.651 325.32 196.388 325.336 196.133L325.953 196.828C325.917 197.047 325.818 197.289 325.656 197.555C325.495 197.82 325.279 198.076 325.008 198.32C324.742 198.56 324.424 198.76 324.055 198.922C323.69 199.078 323.279 199.156 322.82 199.156C322.247 199.156 321.745 199.044 321.312 198.82C320.885 198.596 320.552 198.297 320.312 197.922C320.078 197.542 319.961 197.117 319.961 196.648C319.961 196.195 320.049 195.797 320.227 195.453C320.404 195.104 320.659 194.815 320.992 194.586C321.326 194.352 321.727 194.174 322.195 194.055C322.664 193.935 323.188 193.875 323.766 193.875H325.445ZM330.484 190.547V199H329.039V190.547H330.484ZM336.031 190.547L332.023 195.391H330L329.781 194.125H331.438L334.273 190.547H336.031ZM334.477 199L331.367 195.172L332.297 194.125L336.312 199H334.477ZM341.016 190.547V199H339.562V190.547H341.016ZM343.852 190.547V191.719H336.781V190.547H343.852ZM347.742 198.125L350.094 190.547H351.641L348.25 200.305C348.172 200.513 348.068 200.737 347.938 200.977C347.812 201.221 347.651 201.453 347.453 201.672C347.255 201.891 347.016 202.068 346.734 202.203C346.458 202.344 346.128 202.414 345.742 202.414C345.628 202.414 345.482 202.398 345.305 202.367C345.128 202.336 345.003 202.31 344.93 202.289L344.922 201.117C344.964 201.122 345.029 201.128 345.117 201.133C345.211 201.143 345.276 201.148 345.312 201.148C345.641 201.148 345.919 201.104 346.148 201.016C346.378 200.932 346.57 200.789 346.727 200.586C346.888 200.388 347.026 200.115 347.141 199.766L347.742 198.125ZM346.016 190.547L348.211 197.109L348.586 198.633L347.547 199.164L344.438 190.547H346.016ZM357.805 197.555V193.203C357.805 192.87 357.737 192.581 357.602 192.336C357.471 192.086 357.273 191.893 357.008 191.758C356.742 191.622 356.414 191.555 356.023 191.555C355.659 191.555 355.339 191.617 355.062 191.742C354.792 191.867 354.578 192.031 354.422 192.234C354.271 192.438 354.195 192.656 354.195 192.891H352.75C352.75 192.589 352.828 192.289 352.984 191.992C353.141 191.695 353.365 191.427 353.656 191.188C353.953 190.943 354.307 190.75 354.719 190.609C355.135 190.464 355.599 190.391 356.109 190.391C356.724 190.391 357.266 190.495 357.734 190.703C358.208 190.911 358.578 191.227 358.844 191.648C359.115 192.065 359.25 192.589 359.25 193.219V197.156C359.25 197.438 359.273 197.737 359.32 198.055C359.372 198.372 359.448 198.646 359.547 198.875V199H358.039C357.966 198.833 357.909 198.612 357.867 198.336C357.826 198.055 357.805 197.794 357.805 197.555ZM358.055 193.875L358.07 194.891H356.609C356.198 194.891 355.831 194.924 355.508 194.992C355.185 195.055 354.914 195.151 354.695 195.281C354.477 195.411 354.31 195.576 354.195 195.773C354.081 195.966 354.023 196.193 354.023 196.453C354.023 196.719 354.083 196.961 354.203 197.18C354.323 197.398 354.503 197.573 354.742 197.703C354.987 197.828 355.286 197.891 355.641 197.891C356.083 197.891 356.474 197.797 356.812 197.609C357.151 197.422 357.419 197.193 357.617 196.922C357.82 196.651 357.93 196.388 357.945 196.133L358.562 196.828C358.526 197.047 358.427 197.289 358.266 197.555C358.104 197.82 357.888 198.076 357.617 198.32C357.352 198.56 357.034 198.76 356.664 198.922C356.299 199.078 355.888 199.156 355.43 199.156C354.857 199.156 354.354 199.044 353.922 198.82C353.495 198.596 353.161 198.297 352.922 197.922C352.688 197.542 352.57 197.117 352.57 196.648C352.57 196.195 352.659 195.797 352.836 195.453C353.013 195.104 353.268 194.815 353.602 194.586C353.935 194.352 354.336 194.174 354.805 194.055C355.273 193.935 355.797 193.875 356.375 193.875H358.055ZM367.172 190.547V191.742H363.086V190.547H367.172ZM368.445 190.547V199H367V190.547H368.445ZM362.734 190.547H364.188L363.969 194.625C363.932 195.255 363.872 195.812 363.789 196.297C363.711 196.776 363.602 197.188 363.461 197.531C363.326 197.875 363.154 198.156 362.945 198.375C362.742 198.589 362.497 198.747 362.211 198.852C361.924 198.951 361.594 199 361.219 199H360.766V197.727L361.078 197.703C361.302 197.688 361.492 197.635 361.648 197.547C361.81 197.458 361.945 197.328 362.055 197.156C362.164 196.979 362.253 196.753 362.32 196.477C362.393 196.201 362.448 195.872 362.484 195.492C362.526 195.112 362.557 194.669 362.578 194.164L362.734 190.547ZM371.961 193.453H374.5C375.182 193.453 375.758 193.573 376.227 193.812C376.695 194.047 377.049 194.372 377.289 194.789C377.534 195.201 377.656 195.669 377.656 196.195C377.656 196.586 377.589 196.953 377.453 197.297C377.318 197.635 377.115 197.932 376.844 198.188C376.578 198.443 376.247 198.643 375.852 198.789C375.461 198.93 375.01 199 374.5 199H370.906V190.547H372.352V197.812H374.5C374.917 197.812 375.25 197.737 375.5 197.586C375.75 197.435 375.93 197.24 376.039 197C376.148 196.76 376.203 196.51 376.203 196.25C376.203 195.995 376.148 195.745 376.039 195.5C375.93 195.255 375.75 195.052 375.5 194.891C375.25 194.724 374.917 194.641 374.5 194.641H371.961V193.453ZM385.195 194.211V195.383H380.727V194.211H385.195ZM381.031 190.547V199H379.586V190.547H381.031ZM386.367 190.547V199H384.914V190.547H386.367ZM391.07 198.125L393.422 190.547H394.969L391.578 200.305C391.5 200.513 391.396 200.737 391.266 200.977C391.141 201.221 390.979 201.453 390.781 201.672C390.583 201.891 390.344 202.068 390.062 202.203C389.786 202.344 389.456 202.414 389.07 202.414C388.956 202.414 388.81 202.398 388.633 202.367C388.456 202.336 388.331 202.31 388.258 202.289L388.25 201.117C388.292 201.122 388.357 201.128 388.445 201.133C388.539 201.143 388.604 201.148 388.641 201.148C388.969 201.148 389.247 201.104 389.477 201.016C389.706 200.932 389.898 200.789 390.055 200.586C390.216 200.388 390.354 200.115 390.469 199.766L391.07 198.125ZM389.344 190.547L391.539 197.109L391.914 198.633L390.875 199.164L387.766 190.547H389.344ZM401.086 194.133V195.312H396.594V194.133H401.086ZM397.852 190.547V199H396.406V190.547H397.852ZM399.852 194.867V194.688C399.852 194.078 399.94 193.513 400.117 192.992C400.294 192.466 400.549 192.01 400.883 191.625C401.221 191.234 401.625 190.932 402.094 190.719C402.568 190.5 403.099 190.391 403.688 190.391C404.286 190.391 404.823 190.5 405.297 190.719C405.771 190.932 406.174 191.234 406.508 191.625C406.846 192.01 407.104 192.466 407.281 192.992C407.458 193.513 407.547 194.078 407.547 194.688V194.867C407.547 195.477 407.458 196.042 407.281 196.562C407.104 197.083 406.849 197.539 406.516 197.93C406.182 198.315 405.779 198.617 405.305 198.836C404.831 199.049 404.297 199.156 403.703 199.156C403.109 199.156 402.576 199.049 402.102 198.836C401.628 198.617 401.221 198.315 400.883 197.93C400.549 197.539 400.294 197.083 400.117 196.562C399.94 196.042 399.852 195.477 399.852 194.867ZM401.305 194.688V194.867C401.305 195.289 401.354 195.688 401.453 196.062C401.552 196.432 401.701 196.76 401.898 197.047C402.102 197.333 402.352 197.56 402.648 197.727C402.951 197.888 403.302 197.969 403.703 197.969C404.104 197.969 404.453 197.888 404.75 197.727C405.052 197.56 405.302 197.333 405.5 197.047C405.698 196.76 405.846 196.432 405.945 196.062C406.049 195.688 406.102 195.289 406.102 194.867V194.688C406.102 194.271 406.049 193.878 405.945 193.508C405.846 193.133 405.695 192.802 405.492 192.516C405.294 192.224 405.044 191.995 404.742 191.828C404.44 191.661 404.089 191.578 403.688 191.578C403.292 191.578 402.945 191.661 402.648 191.828C402.352 191.995 402.102 192.224 401.898 192.516C401.701 192.802 401.552 193.133 401.453 193.508C401.354 193.878 401.305 194.271 401.305 194.688ZM72.6641 216.711L76.5625 210.547H78.0156V219H76.5625V212.836L72.6641 219H71.2266V210.547H72.6641V216.711ZM86.0703 214.211V215.383H81.6016V214.211H86.0703ZM81.9062 210.547V219H80.4609V210.547H81.9062ZM87.2422 210.547V219H85.7891V210.547H87.2422ZM99.2891 214.922V215.086C99.2891 215.68 99.224 216.227 99.0938 216.727C98.9635 217.221 98.7682 217.651 98.5078 218.016C98.2526 218.38 97.9349 218.664 97.5547 218.867C97.1745 219.065 96.7344 219.164 96.2344 219.164C95.8229 219.164 95.4609 219.109 95.1484 219C94.8359 218.885 94.5703 218.721 94.3516 218.508C94.138 218.294 93.9661 218.039 93.8359 217.742C93.7109 217.44 93.625 217.102 93.5781 216.727V212.977C93.625 212.576 93.7109 212.216 93.8359 211.898C93.9661 211.581 94.138 211.31 94.3516 211.086C94.5703 210.862 94.8333 210.69 95.1406 210.57C95.4479 210.451 95.8073 210.391 96.2188 210.391C96.625 210.391 96.9896 210.464 97.3125 210.609C97.6406 210.75 97.9271 210.953 98.1719 211.219C98.4219 211.484 98.6276 211.805 98.7891 212.18C98.9557 212.549 99.0807 212.966 99.1641 213.43C99.2474 213.893 99.2891 214.391 99.2891 214.922ZM97.8438 215.086V214.922C97.8438 214.557 97.8177 214.211 97.7656 213.883C97.7188 213.549 97.6432 213.245 97.5391 212.969C97.4401 212.688 97.3099 212.443 97.1484 212.234C96.987 212.026 96.7917 211.865 96.5625 211.75C96.3385 211.635 96.0807 211.578 95.7891 211.578C95.4766 211.578 95.2161 211.617 95.0078 211.695C94.8047 211.773 94.6458 211.878 94.5312 212.008C94.4167 212.133 94.3333 212.266 94.2812 212.406V217.305C94.3438 217.419 94.4349 217.529 94.5547 217.633C94.6745 217.732 94.8359 217.815 95.0391 217.883C95.2422 217.945 95.4974 217.977 95.8047 217.977C96.1693 217.977 96.4792 217.904 96.7344 217.758C96.9948 217.607 97.2057 217.398 97.3672 217.133C97.5339 216.867 97.6536 216.56 97.7266 216.211C97.8047 215.862 97.8438 215.487 97.8438 215.086ZM89.25 215.086V214.922C89.25 214.391 89.2917 213.893 89.375 213.43C89.4583 212.966 89.5833 212.549 89.75 212.18C89.9167 211.805 90.1224 211.484 90.3672 211.219C90.6172 210.953 90.9036 210.75 91.2266 210.609C91.5547 210.464 91.9219 210.391 92.3281 210.391C92.7292 210.391 93.0781 210.451 93.375 210.57C93.6771 210.69 93.9323 210.862 94.1406 211.086C94.349 211.31 94.5156 211.581 94.6406 211.898C94.7656 212.216 94.8542 212.576 94.9062 212.977V216.578C94.8594 216.974 94.7734 217.331 94.6484 217.648C94.5234 217.966 94.3568 218.24 94.1484 218.469C93.9401 218.693 93.6823 218.865 93.375 218.984C93.0729 219.104 92.7188 219.164 92.3125 219.164C91.8125 219.164 91.3724 219.065 90.9922 218.867C90.612 218.664 90.2917 218.38 90.0312 218.016C89.776 217.651 89.5807 217.221 89.4453 216.727C89.3151 216.227 89.25 215.68 89.25 215.086ZM90.7031 214.922V215.086C90.7031 215.487 90.737 215.862 90.8047 216.211C90.8776 216.56 90.9896 216.867 91.1406 217.133C91.2969 217.398 91.5 217.607 91.75 217.758C92 217.904 92.3073 217.977 92.6719 217.977C92.9844 217.977 93.2422 217.938 93.4453 217.859C93.6484 217.781 93.8099 217.68 93.9297 217.555C94.0495 217.43 94.1406 217.299 94.2031 217.164V212.406C94.151 212.266 94.0651 212.133 93.9453 212.008C93.8307 211.878 93.6719 211.773 93.4688 211.695C93.2656 211.617 93.0052 211.578 92.6875 211.578C92.3229 211.578 92.013 211.667 91.7578 211.844C91.5026 212.021 91.2969 212.263 91.1406 212.57C90.9896 212.878 90.8776 213.234 90.8047 213.641C90.737 214.042 90.7031 214.469 90.7031 214.922ZM93.4844 222.25V207H94.9375V222.25H93.4844ZM100.797 214.867V214.688C100.797 214.078 100.885 213.513 101.062 212.992C101.24 212.466 101.495 212.01 101.828 211.625C102.161 211.234 102.565 210.932 103.039 210.719C103.513 210.5 104.044 210.391 104.633 210.391C105.227 210.391 105.76 210.5 106.234 210.719C106.714 210.932 107.12 211.234 107.453 211.625C107.792 212.01 108.049 212.466 108.227 212.992C108.404 213.513 108.492 214.078 108.492 214.688V214.867C108.492 215.477 108.404 216.042 108.227 216.562C108.049 217.083 107.792 217.539 107.453 217.93C107.12 218.315 106.716 218.617 106.242 218.836C105.773 219.049 105.242 219.156 104.648 219.156C104.055 219.156 103.521 219.049 103.047 218.836C102.573 218.617 102.167 218.315 101.828 217.93C101.495 217.539 101.24 217.083 101.062 216.562C100.885 216.042 100.797 215.477 100.797 214.867ZM102.242 214.688V214.867C102.242 215.289 102.292 215.688 102.391 216.062C102.49 216.432 102.638 216.76 102.836 217.047C103.039 217.333 103.292 217.56 103.594 217.727C103.896 217.888 104.247 217.969 104.648 217.969C105.044 217.969 105.391 217.888 105.688 217.727C105.99 217.56 106.24 217.333 106.438 217.047C106.635 216.76 106.784 216.432 106.883 216.062C106.987 215.688 107.039 215.289 107.039 214.867V214.688C107.039 214.271 106.987 213.878 106.883 213.508C106.784 213.133 106.633 212.802 106.43 212.516C106.232 212.224 105.982 211.995 105.68 211.828C105.383 211.661 105.034 211.578 104.633 211.578C104.237 211.578 103.888 211.661 103.586 211.828C103.289 211.995 103.039 212.224 102.836 212.516C102.638 212.802 102.49 213.133 102.391 213.508C102.292 213.878 102.242 214.271 102.242 214.688ZM111.75 212.172V222.25H110.297V210.547H111.625L111.75 212.172ZM117.445 214.703V214.867C117.445 215.482 117.372 216.052 117.227 216.578C117.081 217.099 116.867 217.552 116.586 217.938C116.31 218.323 115.969 218.622 115.562 218.836C115.156 219.049 114.69 219.156 114.164 219.156C113.628 219.156 113.154 219.068 112.742 218.891C112.331 218.714 111.982 218.456 111.695 218.117C111.409 217.779 111.18 217.372 111.008 216.898C110.841 216.424 110.727 215.891 110.664 215.297V214.422C110.727 213.797 110.844 213.237 111.016 212.742C111.188 212.247 111.414 211.826 111.695 211.477C111.982 211.122 112.328 210.854 112.734 210.672C113.141 210.484 113.609 210.391 114.141 210.391C114.672 210.391 115.143 210.495 115.555 210.703C115.966 210.906 116.312 211.198 116.594 211.578C116.875 211.958 117.086 212.414 117.227 212.945C117.372 213.471 117.445 214.057 117.445 214.703ZM115.992 214.867V214.703C115.992 214.281 115.948 213.885 115.859 213.516C115.771 213.141 115.633 212.812 115.445 212.531C115.263 212.245 115.029 212.021 114.742 211.859C114.456 211.693 114.115 211.609 113.719 211.609C113.354 211.609 113.036 211.672 112.766 211.797C112.5 211.922 112.273 212.091 112.086 212.305C111.898 212.513 111.745 212.753 111.625 213.023C111.51 213.289 111.424 213.565 111.367 213.852V215.875C111.471 216.24 111.617 216.583 111.805 216.906C111.992 217.224 112.242 217.482 112.555 217.68C112.867 217.872 113.26 217.969 113.734 217.969C114.125 217.969 114.461 217.888 114.742 217.727C115.029 217.56 115.263 217.333 115.445 217.047C115.633 216.76 115.771 216.432 115.859 216.062C115.948 215.688 115.992 215.289 115.992 214.867ZM124.148 217.078L127.023 210.547H128.414L124.648 219H123.648L119.898 210.547H121.289L124.148 217.078ZM120.867 210.547V219H119.422V210.547H120.867ZM127.383 219V210.547H128.836V219H127.383ZM136.148 217.555V213.203C136.148 212.87 136.081 212.581 135.945 212.336C135.815 212.086 135.617 211.893 135.352 211.758C135.086 211.622 134.758 211.555 134.367 211.555C134.003 211.555 133.682 211.617 133.406 211.742C133.135 211.867 132.922 212.031 132.766 212.234C132.615 212.438 132.539 212.656 132.539 212.891H131.094C131.094 212.589 131.172 212.289 131.328 211.992C131.484 211.695 131.708 211.427 132 211.188C132.297 210.943 132.651 210.75 133.062 210.609C133.479 210.464 133.943 210.391 134.453 210.391C135.068 210.391 135.609 210.495 136.078 210.703C136.552 210.911 136.922 211.227 137.188 211.648C137.458 212.065 137.594 212.589 137.594 213.219V217.156C137.594 217.438 137.617 217.737 137.664 218.055C137.716 218.372 137.792 218.646 137.891 218.875V219H136.383C136.31 218.833 136.253 218.612 136.211 218.336C136.169 218.055 136.148 217.794 136.148 217.555ZM136.398 213.875L136.414 214.891H134.953C134.542 214.891 134.174 214.924 133.852 214.992C133.529 215.055 133.258 215.151 133.039 215.281C132.82 215.411 132.654 215.576 132.539 215.773C132.424 215.966 132.367 216.193 132.367 216.453C132.367 216.719 132.427 216.961 132.547 217.18C132.667 217.398 132.846 217.573 133.086 217.703C133.331 217.828 133.63 217.891 133.984 217.891C134.427 217.891 134.818 217.797 135.156 217.609C135.495 217.422 135.763 217.193 135.961 216.922C136.164 216.651 136.273 216.388 136.289 216.133L136.906 216.828C136.87 217.047 136.771 217.289 136.609 217.555C136.448 217.82 136.232 218.076 135.961 218.32C135.695 218.56 135.378 218.76 135.008 218.922C134.643 219.078 134.232 219.156 133.773 219.156C133.201 219.156 132.698 219.044 132.266 218.82C131.839 218.596 131.505 218.297 131.266 217.922C131.031 217.542 130.914 217.117 130.914 216.648C130.914 216.195 131.003 215.797 131.18 215.453C131.357 215.104 131.612 214.815 131.945 214.586C132.279 214.352 132.68 214.174 133.148 214.055C133.617 213.935 134.141 213.875 134.719 213.875H136.398ZM139.992 219V210.547H141.438V217.812H145.328V210.547H146.781V219H139.992ZM147.781 217.812L147.641 221.508H146.352V219H145.25V217.812H147.781ZM150.914 216.711L154.812 210.547H156.266V219H154.812V212.836L150.914 219H149.477V210.547H150.914V216.711ZM163.398 214.133V215.312H158.906V214.133H163.398ZM160.164 210.547V219H158.719V210.547H160.164ZM162.164 214.867V214.688C162.164 214.078 162.253 213.513 162.43 212.992C162.607 212.466 162.862 212.01 163.195 211.625C163.534 211.234 163.938 210.932 164.406 210.719C164.88 210.5 165.411 210.391 166 210.391C166.599 210.391 167.135 210.5 167.609 210.719C168.083 210.932 168.487 211.234 168.82 211.625C169.159 212.01 169.417 212.466 169.594 212.992C169.771 213.513 169.859 214.078 169.859 214.688V214.867C169.859 215.477 169.771 216.042 169.594 216.562C169.417 217.083 169.161 217.539 168.828 217.93C168.495 218.315 168.091 218.617 167.617 218.836C167.143 219.049 166.609 219.156 166.016 219.156C165.422 219.156 164.888 219.049 164.414 218.836C163.94 218.617 163.534 218.315 163.195 217.93C162.862 217.539 162.607 217.083 162.43 216.562C162.253 216.042 162.164 215.477 162.164 214.867ZM163.617 214.688V214.867C163.617 215.289 163.667 215.688 163.766 216.062C163.865 216.432 164.013 216.76 164.211 217.047C164.414 217.333 164.664 217.56 164.961 217.727C165.263 217.888 165.615 217.969 166.016 217.969C166.417 217.969 166.766 217.888 167.062 217.727C167.365 217.56 167.615 217.333 167.812 217.047C168.01 216.76 168.159 216.432 168.258 216.062C168.362 215.688 168.414 215.289 168.414 214.867V214.688C168.414 214.271 168.362 213.878 168.258 213.508C168.159 213.133 168.008 212.802 167.805 212.516C167.607 212.224 167.357 211.995 167.055 211.828C166.753 211.661 166.401 211.578 166 211.578C165.604 211.578 165.258 211.661 164.961 211.828C164.664 211.995 164.414 212.224 164.211 212.516C164.013 212.802 163.865 213.133 163.766 213.508C163.667 213.878 163.617 214.271 163.617 214.688ZM177.141 210.547H178.586L178.461 213.711C178.43 214.513 178.339 215.206 178.188 215.789C178.036 216.372 177.844 216.87 177.609 217.281C177.375 217.688 177.112 218.029 176.82 218.305C176.534 218.581 176.237 218.812 175.93 219H175.211L175.25 217.82L175.547 217.812C175.719 217.609 175.885 217.401 176.047 217.188C176.208 216.969 176.357 216.711 176.492 216.414C176.628 216.112 176.74 215.745 176.828 215.312C176.922 214.875 176.982 214.341 177.008 213.711L177.141 210.547ZM177.5 210.547H182.586V219H181.141V211.883H177.5V210.547ZM174.883 217.812H183.672V221.492H182.227V219H176.328V221.492H174.875L174.883 217.812ZM190.922 210.547V211.742H186.836V210.547H190.922ZM192.195 210.547V219H190.75V210.547H192.195ZM186.484 210.547H187.938L187.719 214.625C187.682 215.255 187.622 215.812 187.539 216.297C187.461 216.776 187.352 217.188 187.211 217.531C187.076 217.875 186.904 218.156 186.695 218.375C186.492 218.589 186.247 218.747 185.961 218.852C185.674 218.951 185.344 219 184.969 219H184.516V217.727L184.828 217.703C185.052 217.688 185.242 217.635 185.398 217.547C185.56 217.458 185.695 217.328 185.805 217.156C185.914 216.979 186.003 216.753 186.07 216.477C186.143 216.201 186.198 215.872 186.234 215.492C186.276 215.112 186.307 214.669 186.328 214.164L186.484 210.547ZM196.234 214.969H197.797L195.352 219H193.789L196.234 214.969ZM197.445 210.547H200.977V219H199.531V211.719H197.445C197.034 211.719 196.698 211.789 196.438 211.93C196.177 212.065 195.987 212.242 195.867 212.461C195.747 212.68 195.688 212.906 195.688 213.141C195.688 213.37 195.742 213.591 195.852 213.805C195.961 214.013 196.133 214.185 196.367 214.32C196.602 214.456 196.904 214.523 197.273 214.523H199.922V215.711H197.273C196.789 215.711 196.359 215.646 195.984 215.516C195.609 215.385 195.292 215.206 195.031 214.977C194.771 214.742 194.573 214.469 194.438 214.156C194.302 213.839 194.234 213.495 194.234 213.125C194.234 212.755 194.305 212.414 194.445 212.102C194.591 211.789 194.799 211.516 195.07 211.281C195.346 211.047 195.682 210.867 196.078 210.742C196.479 210.612 196.935 210.547 197.445 210.547ZM212.258 217.555V213.203C212.258 212.87 212.19 212.581 212.055 212.336C211.924 212.086 211.727 211.893 211.461 211.758C211.195 211.622 210.867 211.555 210.477 211.555C210.112 211.555 209.792 211.617 209.516 211.742C209.245 211.867 209.031 212.031 208.875 212.234C208.724 212.438 208.648 212.656 208.648 212.891H207.203C207.203 212.589 207.281 212.289 207.438 211.992C207.594 211.695 207.818 211.427 208.109 211.188C208.406 210.943 208.76 210.75 209.172 210.609C209.589 210.464 210.052 210.391 210.562 210.391C211.177 210.391 211.719 210.495 212.188 210.703C212.661 210.911 213.031 211.227 213.297 211.648C213.568 212.065 213.703 212.589 213.703 213.219V217.156C213.703 217.438 213.727 217.737 213.773 218.055C213.826 218.372 213.901 218.646 214 218.875V219H212.492C212.419 218.833 212.362 218.612 212.32 218.336C212.279 218.055 212.258 217.794 212.258 217.555ZM212.508 213.875L212.523 214.891H211.062C210.651 214.891 210.284 214.924 209.961 214.992C209.638 215.055 209.367 215.151 209.148 215.281C208.93 215.411 208.763 215.576 208.648 215.773C208.534 215.966 208.477 216.193 208.477 216.453C208.477 216.719 208.536 216.961 208.656 217.18C208.776 217.398 208.956 217.573 209.195 217.703C209.44 217.828 209.74 217.891 210.094 217.891C210.536 217.891 210.927 217.797 211.266 217.609C211.604 217.422 211.872 217.193 212.07 216.922C212.273 216.651 212.383 216.388 212.398 216.133L213.016 216.828C212.979 217.047 212.88 217.289 212.719 217.555C212.557 217.82 212.341 218.076 212.07 218.32C211.805 218.56 211.487 218.76 211.117 218.922C210.753 219.078 210.341 219.156 209.883 219.156C209.31 219.156 208.807 219.044 208.375 218.82C207.948 218.596 207.615 218.297 207.375 217.922C207.141 217.542 207.023 217.117 207.023 216.648C207.023 216.195 207.112 215.797 207.289 215.453C207.466 215.104 207.721 214.815 208.055 214.586C208.388 214.352 208.789 214.174 209.258 214.055C209.727 213.935 210.25 213.875 210.828 213.875H212.508ZM221.398 206.867H222.586C222.586 207.378 222.508 207.784 222.352 208.086C222.195 208.383 221.982 208.612 221.711 208.773C221.445 208.935 221.143 209.057 220.805 209.141C220.471 209.224 220.125 209.305 219.766 209.383C219.318 209.477 218.901 209.625 218.516 209.828C218.135 210.026 217.807 210.307 217.531 210.672C217.26 211.036 217.06 211.51 216.93 212.094C216.805 212.677 216.771 213.398 216.828 214.258V214.977H215.641V214.258C215.641 213.294 215.732 212.453 215.914 211.734C216.102 211.016 216.365 210.409 216.703 209.914C217.042 209.419 217.443 209.026 217.906 208.734C218.375 208.443 218.891 208.242 219.453 208.133C219.859 208.055 220.208 207.971 220.5 207.883C220.792 207.789 221.013 207.664 221.164 207.508C221.32 207.352 221.398 207.138 221.398 206.867ZM219.688 211.031C220.24 211.031 220.732 211.128 221.164 211.32C221.596 211.513 221.964 211.781 222.266 212.125C222.568 212.469 222.797 212.875 222.953 213.344C223.115 213.807 223.195 214.312 223.195 214.859V215.031C223.195 215.62 223.109 216.167 222.938 216.672C222.771 217.172 222.523 217.609 222.195 217.984C221.872 218.354 221.477 218.643 221.008 218.852C220.544 219.06 220.016 219.164 219.422 219.164C218.828 219.164 218.297 219.06 217.828 218.852C217.365 218.643 216.969 218.354 216.641 217.984C216.312 217.609 216.062 217.172 215.891 216.672C215.724 216.167 215.641 215.62 215.641 215.031V214.859C215.641 214.729 215.664 214.602 215.711 214.477C215.758 214.352 215.815 214.224 215.883 214.094C215.956 213.964 216.021 213.826 216.078 213.68C216.271 213.211 216.534 212.776 216.867 212.375C217.206 211.974 217.609 211.651 218.078 211.406C218.552 211.156 219.089 211.031 219.688 211.031ZM219.406 212.211C218.875 212.211 218.438 212.333 218.094 212.578C217.755 212.823 217.503 213.148 217.336 213.555C217.169 213.956 217.086 214.391 217.086 214.859V215.031C217.086 215.427 217.133 215.802 217.227 216.156C217.32 216.51 217.461 216.826 217.648 217.102C217.841 217.372 218.083 217.586 218.375 217.742C218.672 217.898 219.021 217.977 219.422 217.977C219.823 217.977 220.169 217.898 220.461 217.742C220.753 217.586 220.992 217.372 221.18 217.102C221.367 216.826 221.508 216.51 221.602 216.156C221.695 215.802 221.742 215.427 221.742 215.031V214.859C221.742 214.505 221.695 214.169 221.602 213.852C221.508 213.534 221.365 213.253 221.172 213.008C220.984 212.763 220.742 212.57 220.445 212.43C220.154 212.284 219.807 212.211 219.406 212.211ZM226.258 216.711L230.156 210.547H231.609V219H230.156V212.836L226.258 219H224.82V210.547H226.258V216.711ZM237.375 210.547V219H235.922V210.547H237.375ZM240.211 210.547V211.719H233.141V210.547H240.211ZM244.102 218.125L246.453 210.547H248L244.609 220.305C244.531 220.513 244.427 220.737 244.297 220.977C244.172 221.221 244.01 221.453 243.812 221.672C243.615 221.891 243.375 222.068 243.094 222.203C242.818 222.344 242.487 222.414 242.102 222.414C241.987 222.414 241.841 222.398 241.664 222.367C241.487 222.336 241.362 222.31 241.289 222.289L241.281 221.117C241.323 221.122 241.388 221.128 241.477 221.133C241.57 221.143 241.635 221.148 241.672 221.148C242 221.148 242.279 221.104 242.508 221.016C242.737 220.932 242.93 220.789 243.086 220.586C243.247 220.388 243.385 220.115 243.5 219.766L244.102 218.125ZM242.375 210.547L244.57 217.109L244.945 218.633L243.906 219.164L240.797 210.547H242.375ZM250.75 212.172V222.25H249.297V210.547H250.625L250.75 212.172ZM256.445 214.703V214.867C256.445 215.482 256.372 216.052 256.227 216.578C256.081 217.099 255.867 217.552 255.586 217.938C255.31 218.323 254.969 218.622 254.562 218.836C254.156 219.049 253.69 219.156 253.164 219.156C252.628 219.156 252.154 219.068 251.742 218.891C251.331 218.714 250.982 218.456 250.695 218.117C250.409 217.779 250.18 217.372 250.008 216.898C249.841 216.424 249.727 215.891 249.664 215.297V214.422C249.727 213.797 249.844 213.237 250.016 212.742C250.188 212.247 250.414 211.826 250.695 211.477C250.982 211.122 251.328 210.854 251.734 210.672C252.141 210.484 252.609 210.391 253.141 210.391C253.672 210.391 254.143 210.495 254.555 210.703C254.966 210.906 255.312 211.198 255.594 211.578C255.875 211.958 256.086 212.414 256.227 212.945C256.372 213.471 256.445 214.057 256.445 214.703ZM254.992 214.867V214.703C254.992 214.281 254.948 213.885 254.859 213.516C254.771 213.141 254.633 212.812 254.445 212.531C254.263 212.245 254.029 212.021 253.742 211.859C253.456 211.693 253.115 211.609 252.719 211.609C252.354 211.609 252.036 211.672 251.766 211.797C251.5 211.922 251.273 212.091 251.086 212.305C250.898 212.513 250.745 212.753 250.625 213.023C250.51 213.289 250.424 213.565 250.367 213.852V215.875C250.471 216.24 250.617 216.583 250.805 216.906C250.992 217.224 251.242 217.482 251.555 217.68C251.867 217.872 252.26 217.969 252.734 217.969C253.125 217.969 253.461 217.888 253.742 217.727C254.029 217.56 254.263 217.333 254.445 217.047C254.633 216.76 254.771 216.432 254.859 216.062C254.948 215.688 254.992 215.289 254.992 214.867ZM259.852 216.711L263.75 210.547H265.203V219H263.75V212.836L259.852 219H258.414V210.547H259.852V216.711ZM271.031 219.156C270.443 219.156 269.909 219.057 269.43 218.859C268.956 218.656 268.547 218.372 268.203 218.008C267.865 217.643 267.604 217.211 267.422 216.711C267.24 216.211 267.148 215.664 267.148 215.07V214.742C267.148 214.055 267.25 213.443 267.453 212.906C267.656 212.365 267.932 211.906 268.281 211.531C268.63 211.156 269.026 210.872 269.469 210.68C269.911 210.487 270.37 210.391 270.844 210.391C271.448 210.391 271.969 210.495 272.406 210.703C272.849 210.911 273.211 211.203 273.492 211.578C273.773 211.948 273.982 212.385 274.117 212.891C274.253 213.391 274.32 213.938 274.32 214.531V215.18H268.008V214H272.875V213.891C272.854 213.516 272.776 213.151 272.641 212.797C272.51 212.443 272.302 212.151 272.016 211.922C271.729 211.693 271.339 211.578 270.844 211.578C270.516 211.578 270.214 211.648 269.938 211.789C269.661 211.924 269.424 212.128 269.227 212.398C269.029 212.669 268.875 213 268.766 213.391C268.656 213.781 268.602 214.232 268.602 214.742V215.07C268.602 215.471 268.656 215.849 268.766 216.203C268.88 216.552 269.044 216.859 269.258 217.125C269.477 217.391 269.74 217.599 270.047 217.75C270.359 217.901 270.714 217.977 271.109 217.977C271.62 217.977 272.052 217.872 272.406 217.664C272.76 217.456 273.07 217.177 273.336 216.828L274.211 217.523C274.029 217.799 273.797 218.062 273.516 218.312C273.234 218.562 272.888 218.766 272.477 218.922C272.07 219.078 271.589 219.156 271.031 219.156ZM281.742 214.211V215.383H277.273V214.211H281.742ZM277.578 210.547V219H276.133V210.547H277.578ZM282.914 210.547V219H281.461V210.547H282.914ZM288.688 210.547V219H287.234V210.547H288.688ZM291.523 210.547V211.719H284.453V210.547H291.523ZM292.234 214.867V214.688C292.234 214.078 292.323 213.513 292.5 212.992C292.677 212.466 292.932 212.01 293.266 211.625C293.599 211.234 294.003 210.932 294.477 210.719C294.951 210.5 295.482 210.391 296.07 210.391C296.664 210.391 297.198 210.5 297.672 210.719C298.151 210.932 298.557 211.234 298.891 211.625C299.229 212.01 299.487 212.466 299.664 212.992C299.841 213.513 299.93 214.078 299.93 214.688V214.867C299.93 215.477 299.841 216.042 299.664 216.562C299.487 217.083 299.229 217.539 298.891 217.93C298.557 218.315 298.154 218.617 297.68 218.836C297.211 219.049 296.68 219.156 296.086 219.156C295.492 219.156 294.958 219.049 294.484 218.836C294.01 218.617 293.604 218.315 293.266 217.93C292.932 217.539 292.677 217.083 292.5 216.562C292.323 216.042 292.234 215.477 292.234 214.867ZM293.68 214.688V214.867C293.68 215.289 293.729 215.688 293.828 216.062C293.927 216.432 294.076 216.76 294.273 217.047C294.477 217.333 294.729 217.56 295.031 217.727C295.333 217.888 295.685 217.969 296.086 217.969C296.482 217.969 296.828 217.888 297.125 217.727C297.427 217.56 297.677 217.333 297.875 217.047C298.073 216.76 298.221 216.432 298.32 216.062C298.424 215.688 298.477 215.289 298.477 214.867V214.688C298.477 214.271 298.424 213.878 298.32 213.508C298.221 213.133 298.07 212.802 297.867 212.516C297.669 212.224 297.419 211.995 297.117 211.828C296.82 211.661 296.471 211.578 296.07 211.578C295.674 211.578 295.326 211.661 295.023 211.828C294.727 211.995 294.477 212.224 294.273 212.516C294.076 212.802 293.927 213.133 293.828 213.508C293.729 213.878 293.68 214.271 293.68 214.688ZM305.711 215.281H302.938L302.922 214.125H305.188C305.635 214.125 306.008 214.081 306.305 213.992C306.607 213.904 306.833 213.771 306.984 213.594C307.135 213.417 307.211 213.198 307.211 212.938C307.211 212.734 307.167 212.557 307.078 212.406C306.995 212.25 306.867 212.122 306.695 212.023C306.523 211.919 306.31 211.844 306.055 211.797C305.805 211.745 305.51 211.719 305.172 211.719H303.32V219H301.875V210.547H305.172C305.708 210.547 306.19 210.594 306.617 210.688C307.049 210.781 307.417 210.924 307.719 211.117C308.026 211.305 308.26 211.544 308.422 211.836C308.583 212.128 308.664 212.471 308.664 212.867C308.664 213.122 308.612 213.365 308.508 213.594C308.404 213.823 308.25 214.026 308.047 214.203C307.844 214.38 307.594 214.526 307.297 214.641C307 214.75 306.659 214.82 306.273 214.852L305.711 215.281ZM305.711 219H302.414L303.133 217.828H305.711C306.112 217.828 306.445 217.779 306.711 217.68C306.977 217.576 307.174 217.43 307.305 217.242C307.44 217.049 307.508 216.82 307.508 216.555C307.508 216.289 307.44 216.062 307.305 215.875C307.174 215.682 306.977 215.536 306.711 215.438C306.445 215.333 306.112 215.281 305.711 215.281H303.516L303.531 214.125H306.273L306.797 214.562C307.26 214.599 307.654 214.714 307.977 214.906C308.299 215.099 308.544 215.344 308.711 215.641C308.878 215.932 308.961 216.25 308.961 216.594C308.961 216.99 308.885 217.339 308.734 217.641C308.589 217.943 308.375 218.195 308.094 218.398C307.812 218.596 307.471 218.747 307.07 218.852C306.669 218.951 306.216 219 305.711 219ZM310.922 218.234C310.922 217.99 310.997 217.784 311.148 217.617C311.305 217.445 311.529 217.359 311.82 217.359C312.112 217.359 312.333 217.445 312.484 217.617C312.641 217.784 312.719 217.99 312.719 218.234C312.719 218.474 312.641 218.677 312.484 218.844C312.333 219.01 312.112 219.094 311.82 219.094C311.529 219.094 311.305 219.01 311.148 218.844C310.997 218.677 310.922 218.474 310.922 218.234Z" fill="#494747"/>
<path d="M0 5.99999C0 2.68629 2.68629 0 6 0H986C989.314 0 992 2.68629 992 6V258C992 261.314 989.314 264 986 264H5.99999C2.68629 264 0 261.314 0 258V5.99999Z" fill="url(#paint0_linear_2_2483)"/>
<g style="mix-blend-mode:multiply">
<path d="M785.791 98.8586C786.302 95.548 789.424 93.2969 792.727 93.8584L1146.49 154.008C1148.15 154.291 1149.62 155.264 1150.53 156.687L1377.7 511.422C1379.91 514.863 1378.1 519.453 1374.14 520.469L702.597 692.928C698.426 693.999 694.518 690.457 695.175 686.201L785.791 98.8586Z" fill="url(#paint1_linear_2_2483)" fill-opacity="0.3"/>
</g>
<g style="mix-blend-mode:multiply" filter="url(#filter0_d_2_2483)">
<path d="M840.105 54.2821C840.615 50.9716 843.738 48.7204 847.04 49.2819L1200.8 109.432C1202.47 109.715 1203.94 110.688 1204.85 112.111L1432.02 466.845C1434.22 470.287 1432.41 474.876 1428.46 475.893L756.91 648.351C752.739 649.423 748.831 645.881 749.488 641.625L840.105 54.2821Z" fill="url(#paint2_linear_2_2483)"/>
</g>
<g style="mix-blend-mode:multiply" filter="url(#filter1_d_2_2483)">
<path d="M730.845 206.756C731.356 203.446 734.478 201.194 737.78 201.756L1091.54 261.905C1093.21 262.189 1094.68 263.162 1095.59 264.585L1322.76 619.319C1324.96 622.761 1323.16 627.35 1319.2 628.366L647.651 800.825C643.48 801.896 639.572 798.355 640.228 794.099L730.845 206.756Z" fill="url(#paint3_linear_2_2483)"/>
</g>
</g>
<defs>
<filter id="filter0_d_2_2483" x="711.416" y="25.196" width="739.553" height="655.348" filterUnits="userSpaceOnUse" color-interpolation-filters="sRGB">
<feFlood flood-opacity="0" result="BackgroundImageFix"/>
<feColorMatrix in="SourceAlpha" type="matrix" values="0 0 0 0 0 0 0 0 0 0 0 0 0 0 0 0 0 0 127 0" result="hardAlpha"/>
<feOffset dx="-10" dy="4"/>
<feGaussianBlur stdDeviation="14"/>
<feComposite in2="hardAlpha" operator="out"/>
<feColorMatrix type="matrix" values="0 0 0 0 0 0 0 0 0 0 0 0 0 0 0 0 0 0 0.1 0"/>
<feBlend mode="normal" in2="BackgroundImageFix" result="effect1_dropShadow_2_2483"/>
<feBlend mode="normal" in="SourceGraphic" in2="effect1_dropShadow_2_2483" result="shape"/>
</filter>
<filter id="filter1_d_2_2483" x="602.156" y="177.67" width="739.553" height="655.348" filterUnits="userSpaceOnUse" color-interpolation-filters="sRGB">
<feFlood flood-opacity="0" result="BackgroundImageFix"/>
<feColorMatrix in="SourceAlpha" type="matrix" values="0 0 0 0 0 0 0 0 0 0 0 0 0 0 0 0 0 0 127 0" result="hardAlpha"/>
<feOffset dx="-10" dy="4"/>
<feGaussianBlur stdDeviation="14"/>
<feComposite in2="hardAlpha" operator="out"/>
<feColorMatrix type="matrix" values="0 0 0 0 0 0 0 0 0 0 0 0 0 0 0 0 0 0 0.1 0"/>
<feBlend mode="normal" in2="BackgroundImageFix" result="effect1_dropShadow_2_2483"/>
<feBlend mode="normal" in="SourceGraphic" in2="effect1_dropShadow_2_2483" result="shape"/>
</filter>
<linearGradient id="paint0_linear_2_2483" x1="744" y1="264" x2="576.983" y2="-284.677" gradientUnits="userSpaceOnUse">
<stop stop-color="#FDD5BF"/>
<stop offset="1" stop-color="#FFF8F2"/>
</linearGradient>
<linearGradient id="paint1_linear_2_2483" x1="652.855" y1="354.107" x2="1240.84" y2="474.094" gradientUnits="userSpaceOnUse">
<stop stop-color="#E05206"/>
<stop offset="1" stop-color="#F98558"/>
</linearGradient>
<linearGradient id="paint2_linear_2_2483" x1="707.169" y1="309.531" x2="1295.15" y2="429.517" gradientUnits="userSpaceOnUse">
<stop stop-color="white"/>
<stop offset="1" stop-color="#F98558"/>
</linearGradient>
<linearGradient id="paint3_linear_2_2483" x1="597.909" y1="462.005" x2="1185.89" y2="581.991" gradientUnits="userSpaceOnUse">
<stop stop-color="white"/>
<stop offset="1" stop-color="#F98558"/>
</linearGradient>
<clipPath id="clip0_2_2483">
<rect width="992" height="264" rx="6" fill="white"/>
</clipPath>
</defs>
</svg>
