<svg width="375" height="143" viewBox="0 0 375 143" fill="none" xmlns="http://www.w3.org/2000/svg">
<g style="mix-blend-mode:multiply">
<path d="M186.042 86.1573C188.61 84.007 192.442 84.3761 194.553 86.9772L273.982 184.865C275.047 186.177 275.509 187.878 275.255 189.549L253.043 335.418C252.428 339.458 248.043 341.715 244.398 339.866L27.4408 229.844C23.6001 227.896 23.001 222.656 26.3029 219.892L186.042 86.1573Z" fill="url(#paint0_linear_96_16908)" fill-opacity="0.3"/>
</g>
<g style="mix-blend-mode:multiply" filter="url(#filter0_d_96_16908)">
<path d="M211.794 87.0186C214.363 84.8683 218.194 85.2375 220.305 87.8386L299.735 185.726C300.8 187.039 301.262 188.739 301.007 190.41L278.796 336.28C278.181 340.319 273.795 342.576 270.15 340.728L53.1933 230.705C49.3526 228.757 48.7534 223.518 52.0554 220.753L211.794 87.0186Z" fill="url(#paint1_linear_96_16908)"/>
</g>
<g style="mix-blend-mode:multiply" filter="url(#filter1_d_96_16908)">
<path d="M144.789 102.59C147.357 100.44 151.189 100.809 153.3 103.41L232.729 201.298C233.794 202.61 234.256 204.311 234.002 205.982L211.79 351.851C211.175 355.891 206.79 358.148 203.145 356.299L-13.8121 246.277C-17.6528 244.329 -18.2519 239.089 -14.95 236.325L144.789 102.59Z" fill="url(#paint2_linear_96_16908)"/>
</g>
<defs>
<filter id="filter0_d_96_16908" x="11.9062" y="61.6191" width="307.169" height="311.762" filterUnits="userSpaceOnUse" color-interpolation-filters="sRGB">
<feFlood flood-opacity="0" result="BackgroundImageFix"/>
<feColorMatrix in="SourceAlpha" type="matrix" values="0 0 0 0 0 0 0 0 0 0 0 0 0 0 0 0 0 0 127 0" result="hardAlpha"/>
<feOffset dx="-10" dy="4"/>
<feGaussianBlur stdDeviation="14"/>
<feComposite in2="hardAlpha" operator="out"/>
<feColorMatrix type="matrix" values="0 0 0 0 0 0 0 0 0 0 0 0 0 0 0 0 0 0 0.1 0"/>
<feBlend mode="normal" in2="BackgroundImageFix" result="effect1_dropShadow_96_16908"/>
<feBlend mode="normal" in="SourceGraphic" in2="effect1_dropShadow_96_16908" result="shape"/>
</filter>
<filter id="filter1_d_96_16908" x="-55.0991" y="77.1909" width="307.169" height="311.762" filterUnits="userSpaceOnUse" color-interpolation-filters="sRGB">
<feFlood flood-opacity="0" result="BackgroundImageFix"/>
<feColorMatrix in="SourceAlpha" type="matrix" values="0 0 0 0 0 0 0 0 0 0 0 0 0 0 0 0 0 0 127 0" result="hardAlpha"/>
<feOffset dx="-10" dy="4"/>
<feGaussianBlur stdDeviation="14"/>
<feComposite in2="hardAlpha" operator="out"/>
<feColorMatrix type="matrix" values="0 0 0 0 0 0 0 0 0 0 0 0 0 0 0 0 0 0 0.1 0"/>
<feBlend mode="normal" in2="BackgroundImageFix" result="effect1_dropShadow_96_16908"/>
<feBlend mode="normal" in="SourceGraphic" in2="effect1_dropShadow_96_16908" result="shape"/>
</filter>
<linearGradient id="paint0_linear_96_16908" x1="90.5971" y1="121.841" x2="223.575" y2="297.202" gradientUnits="userSpaceOnUse">
<stop stop-color="#E05206"/>
<stop offset="1" stop-color="#F98558"/>
</linearGradient>
<linearGradient id="paint1_linear_96_16908" x1="116.35" y1="122.702" x2="249.327" y2="298.064" gradientUnits="userSpaceOnUse">
<stop stop-color="white"/>
<stop offset="1" stop-color="#F98558"/>
</linearGradient>
<linearGradient id="paint2_linear_96_16908" x1="49.3441" y1="138.274" x2="182.322" y2="313.635" gradientUnits="userSpaceOnUse">
<stop stop-color="white"/>
<stop offset="1" stop-color="#F98558"/>
</linearGradient>
</defs>
</svg>
